<?xml version="1.0" encoding="UTF-8"?>
<svg version="1.1" xmlns="http://www.w3.org/2000/svg" width="100" height="100">
<path d="M0 0 C0.99 0.495 0.99 0.495 2 1 C1.54109375 1.37253906 1.0821875 1.74507813 0.609375 2.12890625 C-1.50689001 4.58932115 -1.94404676 6.80112535 -2.75 9.9375 C-7.66831631 26.57135627 -19.66807608 40.25097328 -33 51 C-33.99 51.495 -33.99 51.495 -35 52 C-35.43021915 54.19824307 -35.79386565 56.40966455 -36.125 58.625 C-37.37180333 64.92971166 -38.95221264 68.02088715 -44.0625 71.86328125 C-46 73 -46 73 -49 74 C-50.26026798 71.47946405 -49.91874445 70.1457902 -49.5625 67.375 C-49.46066406 66.55773437 -49.35882813 65.74046875 -49.25390625 64.8984375 C-49.17011719 64.27195312 -49.08632813 63.64546875 -49 63 C-49.94875 63.495 -50.8975 63.99 -51.875 64.5 C-55 66 -55 66 -57 66 C-57.33 68.31 -57.66 70.62 -58 73 C-58.66 73 -59.32 73 -60 73 C-59.9175 73.70125 -59.835 74.4025 -59.75 75.125 C-60.35140757 82.04118702 -67.23774319 88.34935859 -72 93 C-75.81199455 95.81528038 -80.21929314 95.22267693 -84.75 95.125 C-85.54277344 95.11597656 -86.33554688 95.10695313 -87.15234375 95.09765625 C-89.10169281 95.07417012 -91.05088575 95.03830137 -93 95 C-93.02909763 91.75001888 -93.04683161 88.50007143 -93.0625 85.25 C-93.07087891 84.32960938 -93.07925781 83.40921875 -93.08789062 82.4609375 C-93.09111328 81.57148437 -93.09433594 80.68203125 -93.09765625 79.765625 C-93.10289307 78.94868164 -93.10812988 78.13173828 -93.11352539 77.29003906 C-93.00262842 75.05302052 -92.56420733 73.15865779 -92 71 C-92 70.01 -92 69.02 -92 68 C-90.46875 65.73828125 -90.46875 65.73828125 -88.5 63.3125 C-87.8503125 62.50425781 -87.200625 61.69601563 -86.53125 60.86328125 C-85.77328125 59.94095703 -85.77328125 59.94095703 -85 59 C-83.68 59.33 -82.36 59.66 -81 60 C-80.34 59.01 -79.68 58.02 -79 57 C-77.3224848 54.94057212 -76.52691911 54.09934519 -73.88671875 53.6015625 C-71.6875 53.625 -71.6875 53.625 -68 54 C-67.67 52.02 -67.34 50.04 -67 48 C-71.16138263 47.91840426 -74.9472484 48.01751476 -79 49 C-76.99586248 43.31499603 -73.97731437 39.43317117 -69 36 C-65.93794441 35.2618621 -62.96548283 34.9404604 -59.8359375 34.609375 C-55.13200953 33.59861362 -52.9083692 30.62755832 -50 27 C-37.6736346 14.35757395 -23.3815986 3.88257336 -5.05859375 3.37109375 C-2.51186266 2.9120056 -1.62564689 1.95804753 0 0 Z M-84 62 C-84.33 62.66 -84.66 63.32 -85 64 C-84.34 64 -83.68 64 -83 64 C-83.33 63.34 -83.66 62.68 -84 62 Z M-88 66 C-88.33 66.99 -88.66 67.98 -89 69 C-88.01 69 -87.02 69 -86 69 C-86.66 68.01 -87.32 67.02 -88 66 Z " fill="#B9A06E" transform="translate(93,5)"/>
<path d="M0 0 C0.66 0.33 1.32 0.66 2 1 C1.54109375 1.37253906 1.0821875 1.74507813 0.609375 2.12890625 C-1.50689001 4.58932115 -1.94404676 6.80112535 -2.75 9.9375 C-7.66831631 26.57135627 -19.66807608 40.25097328 -33 51 C-33.99 51.495 -33.99 51.495 -35 52 C-35.43021915 54.19824307 -35.79386565 56.40966455 -36.125 58.625 C-37.37180333 64.92971166 -38.95221264 68.02088715 -44.0625 71.86328125 C-46 73 -46 73 -49 74 C-50.26026798 71.47946405 -49.91874445 70.1457902 -49.5625 67.375 C-49.46066406 66.55773437 -49.35882813 65.74046875 -49.25390625 64.8984375 C-49.17011719 64.27195312 -49.08632813 63.64546875 -49 63 C-49.60328125 63.20496094 -50.2065625 63.40992188 -50.828125 63.62109375 C-51.54484375 63.74613281 -52.2615625 63.87117188 -53 64 C-55.75 62.0625 -55.75 62.0625 -58 60 C-56.56869725 56.83831632 -54.82485862 54.37725517 -52.5625 51.75 C-51.96566406 51.04359375 -51.36882813 50.3371875 -50.75390625 49.609375 C-49 48 -49 48 -46 48 C-45.360625 47.030625 -44.72125 46.06125 -44.0625 45.0625 C-42 42 -42 42 -39.75 41.125 C-39.1725 41.08375 -38.595 41.0425 -38 41 C-38 39.68 -38 38.36 -38 37 C-41.79588866 37.54226981 -43.47211993 39.20127563 -46 42 C-50.00390625 37.703125 -50.00390625 37.703125 -51 36 C-50.73650531 32.62726802 -49.35185271 31.01024509 -46.9375 28.75 C-46.38964844 28.22921875 -45.84179688 27.7084375 -45.27734375 27.171875 C-44.85582031 26.78515625 -44.43429688 26.3984375 -44 26 C-43.01 26.33 -42.02 26.66 -41 27 C-42.37154504 29.95409701 -43.98863724 32.44008376 -46 35 C-45.01 33.9790625 -45.01 33.9790625 -44 32.9375 C-41.10641533 30.02738056 -38.00434561 27.3888748 -34.8671875 24.74609375 C-32.91648864 23.04732013 -32.91648864 23.04732013 -31.48828125 20.80078125 C-30.99714844 20.20652344 -30.50601563 19.61226562 -30 19 C-26.3125 18.75 -26.3125 18.75 -23 19 C-22.505 20.485 -22.505 20.485 -22 22 C-21.01 21.34 -20.02 20.68 -19 20 C-19.42925781 19.14148437 -19.42925781 19.14148437 -19.8671875 18.265625 C-21.578125 14.84375 -23.2890625 11.421875 -25 8 C-18.32020206 5.53237705 -12.21472903 3.57085451 -5.05859375 3.37109375 C-2.51186266 2.9120056 -1.62564689 1.95804753 0 0 Z " fill="#5F797F" transform="translate(93,5)"/>
<path d="M0 0 C1.60546875 1.96875 1.60546875 1.96875 3.1875 4.5 C3.71730469 5.3353125 4.24710938 6.170625 4.79296875 7.03125 C5.19128906 7.6809375 5.58960938 8.330625 6 9 C5.34 10.32 4.68 11.64 4 13 C3.34 13 2.68 13 2 13 C1.505 12.01 1.505 12.01 1 11 C-1.84190778 10.46714229 -3.26776991 10.23703763 -6 11 C-9.04770528 13.69118126 -11.47401218 16.82523215 -14 20 C-16.51151654 22.78408422 -18.35343988 24.78447996 -22 26 C-20.66666667 23.33333333 -19.33333333 20.66666667 -18 18 C-21.35915158 19.43963639 -23.71624938 21.12416589 -26 24 C-26 27.03822316 -24.99700998 28.00326184 -22.9375 30.25 C-22.298125 30.8275 -21.65875 31.405 -21 32 C-19.68 30.35 -18.36 28.7 -17 27 C-15.68 27.33 -14.36 27.66 -13 28 C-13.1875 30.375 -13.1875 30.375 -14 33 C-16.5625 34.3125 -16.5625 34.3125 -19 35 C-19 35.99 -19 36.98 -19 38 C-21.5 39.6875 -21.5 39.6875 -24 41 C-24 40.01 -24 39.02 -24 38 C-24.60328125 38.48210938 -25.2065625 38.96421875 -25.828125 39.4609375 C-26.62734375 40.09257813 -27.4265625 40.72421875 -28.25 41.375 C-29.03890625 42.00148437 -29.8278125 42.62796875 -30.640625 43.2734375 C-32.71181189 44.78910737 -34.67069497 45.94219634 -37 47 C-39.12038635 44.38485683 -41.13091744 41.80362384 -43 39 C-47.17153059 38.6851675 -50.94153944 39.01613077 -55 40 C-52.99586248 34.31499603 -49.97731437 30.43317117 -45 27 C-41.93794441 26.2618621 -38.96548283 25.9404604 -35.8359375 25.609375 C-31.13200953 24.59861362 -28.9083692 21.62755832 -26 18 C-8.45 0 -8.45 0 0 0 Z " fill="#DAD6BC" transform="translate(69,14)"/>
<path d="M0 0 C1 6.875 1 6.875 1 8 C3.64 8.33 6.28 8.66 9 9 C5.86940933 15.55933283 3.85883882 19.11928769 -3 22 C-3.804375 22.144375 -4.60875 22.28875 -5.4375 22.4375 C-7.96109149 22.99145911 -9.38338033 23.7364825 -11.5625 25.0625 C-15 27 -15 27 -19 27 C-18.59564633 22.04666757 -17.59485418 18.89256208 -14.97265625 14.69140625 C-13.8265 12.83566145 -13.8265 12.83566145 -13 9.875 C-11.59589545 5.83819941 -9.58952403 3.04312514 -6 0.6875 C-4 0 -4 0 0 0 Z " fill="#D38B29" transform="translate(27,60)"/>
<path d="M0 0 C0.66 0.33 1.32 0.66 2 1 C1.54496094 1.36609375 1.08992188 1.7321875 0.62109375 2.109375 C-1.55171245 4.64344296 -2.06730552 7.0381234 -2.9375 10.25 C-4.42180321 15.37915589 -6.09422752 19.53756369 -9 24 C-13.83926116 23.85335572 -16.1885868 21.38340865 -19.3515625 18.0546875 C-21.86387754 14.92322373 -23.39025775 11.67021233 -25 8 C-18.32020206 5.53237705 -12.21472903 3.57085451 -5.05859375 3.37109375 C-2.51186266 2.9120056 -1.62564689 1.95804753 0 0 Z " fill="#E0322C" transform="translate(93,5)"/>
<path d="M0 0 C0.66 0 1.32 0 2 0 C0.97598957 5.52965633 -2.28379199 9.55691648 -5.9375 13.6875 C-6.60652344 14.45449219 -7.27554687 15.22148438 -7.96484375 16.01171875 C-11.95885898 19.91374131 -14.97744865 20.2220811 -20.39453125 20.17578125 C-21.56048828 20.15064453 -21.56048828 20.15064453 -22.75 20.125 C-23.54277344 20.11597656 -24.33554687 20.10695313 -25.15234375 20.09765625 C-27.10169281 20.07417012 -29.05088575 20.03830137 -31 20 C-31 17.03 -31 14.06 -31 11 C-30.01 10.67 -29.02 10.34 -28 10 C-27.236875 10.391875 -26.47375 10.78375 -25.6875 11.1875 C-24.3571875 11.5896875 -24.3571875 11.5896875 -23 12 C-20.03201925 10.24407254 -20.03201925 10.24407254 -17 8 C-12.8172001 6.48553797 -10.23891786 5.7135162 -6 7 C-5.59007813 6.4946875 -5.18015625 5.989375 -4.7578125 5.46875 C-4.21898438 4.8190625 -3.68015625 4.169375 -3.125 3.5 C-2.59132813 2.8503125 -2.05765625 2.200625 -1.5078125 1.53125 C-1.01023437 1.0259375 -0.51265625 0.520625 0 0 Z " fill="#3A7179" transform="translate(31,80)"/>
<path d="M0 0 C0.99 0.33 1.98 0.66 3 1 C1.62845496 3.95409701 0.01136276 6.44008376 -2 9 C-1.195625 8.2575 -1.195625 8.2575 -0.375 7.5 C2.68245535 5.56897557 4.438173 5.55477163 8 6 C10.375 7.0625 10.375 7.0625 12 9 C12.5625 12.375 12.5625 12.375 12 16 C9.875 18.9375 9.875 18.9375 7 21 C3.6875 21.3125 3.6875 21.3125 1 21 C1 19.68 1 18.36 1 17 C2.65 16.34 4.3 15.68 6 15 C6 13.68 6 12.36 6 11 C2.20411134 11.54226981 0.52788007 13.20127563 -2 16 C-6.00390625 11.703125 -6.00390625 11.703125 -7 10 C-6.73650531 6.62726802 -5.35185271 5.01024509 -2.9375 2.75 C-2.38964844 2.22921875 -1.84179688 1.7084375 -1.27734375 1.171875 C-0.64505859 0.59179688 -0.64505859 0.59179688 0 0 Z " fill="#E03D26" transform="translate(49,31)"/>
<path d="M0 0 C-3 2 -3 2 -5.4375 3.3125 C-8.28860874 5.19005941 -9.9087019 7.33179208 -12 10 C-12.66 10 -13.32 10 -14 10 C-13.95875 10.78375 -13.9175 11.5675 -13.875 12.375 C-14 15 -14 15 -16 17 C-16.99 17 -17.98 17 -19 17 C-19.226875 17.9075 -19.45375 18.815 -19.6875 19.75 C-21.18127977 23.44888324 -22.75400577 24.77905658 -26 27 C-26.08066508 23.45073659 -25.94247192 20.41646071 -25 17 C-25 16.01 -25 15.02 -25 14 C-23.46875 11.73828125 -23.46875 11.73828125 -21.5 9.3125 C-20.8503125 8.50425781 -20.200625 7.69601563 -19.53125 6.86328125 C-18.77328125 5.94095703 -18.77328125 5.94095703 -18 5 C-16.68 5.33 -15.36 5.66 -14 6 C-13.360625 5.01 -12.72125 4.02 -12.0625 3 C-8.70226934 -1.1371626 -4.9579947 -0.58329349 0 0 Z M-17 8 C-17.33 8.66 -17.66 9.32 -18 10 C-17.34 10 -16.68 10 -16 10 C-16.33 9.34 -16.66 8.68 -17 8 Z M-21 12 C-21.33 12.99 -21.66 13.98 -22 15 C-21.01 15 -20.02 15 -19 15 C-19.66 14.01 -20.32 13.02 -21 12 Z " fill="#B0C4A4" transform="translate(26,59)"/>
<path d="M0 0 C-0.6238858 11.07935125 -0.6238858 11.07935125 -4 15 C-6.58237268 17.12816089 -9.24787082 19.09769693 -12 21 C-14.35569904 18.64430096 -14.53861201 17.69434736 -14.875 14.4375 C-14.8515488 10.40975602 -14.26057265 9.26564367 -11.390625 6.33984375 C-3.37812591 0 -3.37812591 0 0 0 Z " fill="#BA3130" transform="translate(57,58)"/>
<path d="M0 0 C1.85625 0.0309375 1.85625 0.0309375 3.75 0.0625 C2.80424938 1.75134039 1.8529376 3.43735342 0.87109375 5.10546875 C-0.13661413 6.86456857 -1.04412736 8.68016685 -1.9375 10.5 C-4.25 13.0625 -4.25 13.0625 -6.328125 13.3984375 C-7.90485937 13.38277458 -9.48182996 13.31863665 -11.0546875 13.20703125 C-13.59498743 13.0397873 -15.79240582 13.42828215 -18.25 14.0625 C-16.92171574 10.14611547 -15.30991233 7.7141869 -12.375 4.8125 C-11.69695313 4.12671875 -11.01890625 3.4409375 -10.3203125 2.734375 C-7.02103796 0.07005518 -4.13356315 -0.06889272 0 0 Z " fill="#DB4836" transform="translate(32.25,39.9375)"/>
<path d="M0 0 C3.375 0.3125 3.375 0.3125 4.375 1.3125 C4.83935845 6.6526222 4.83935845 6.6526222 3.1875 9 C0.99832923 10.58526159 -1.30789471 11.92223683 -3.625 13.3125 C-5.37649165 14.89495275 -5.37649165 14.89495275 -6.625 16.3125 C-7.615 15.6525 -8.605 14.9925 -9.625 14.3125 C-11.28049531 13.92750109 -12.9472433 13.58456865 -14.625 13.3125 C-13.53746426 10.04989277 -12.84672511 9.44032778 -10.25 7.375 C-8.05411984 5.59251429 -6.6485299 4.34975568 -5.125 1.9375 C-3.625 0.3125 -3.625 0.3125 0 0 Z " fill="#BEB482" transform="translate(66.625,23.6875)"/>
<path d="M0 0 C1.32 0.33 2.64 0.66 4 1 C-2.56841572 11.97507437 -14.69335768 28.33156795 -27.8515625 31.73828125 C-28.56054688 31.82464844 -29.26953125 31.91101563 -30 32 C-27.70559685 28.70803026 -25.2774714 26.39099031 -22.0625 24.0625 C-17.6521216 20.73640068 -13.93522534 16.97225372 -10.1875 12.9375 C-9.63650635 12.34783447 -9.0855127 11.75816895 -8.51782227 11.15063477 C-5.28993912 7.62326238 -2.54491674 4.04845109 0 0 Z " fill="#89A6A5" transform="translate(79,29)"/>
<path d="M0 0 C2.04014857 1.54144559 3.34422252 3.20774003 4.7578125 5.328125 C4.0978125 6.648125 3.4378125 7.968125 2.7578125 9.328125 C2.0978125 9.328125 1.4378125 9.328125 0.7578125 9.328125 C0.4278125 8.668125 0.0978125 8.008125 -0.2421875 7.328125 C-3.08409528 6.79526729 -4.50995741 6.56516263 -7.2421875 7.328125 C-10.28989278 10.01930626 -12.71619968 13.15335715 -15.2421875 16.328125 C-17.75370404 19.11220922 -19.59562738 21.11260496 -23.2421875 22.328125 C-21.2421875 18.328125 -19.2421875 14.328125 -17.2421875 10.328125 C-16.5821875 10.328125 -15.9221875 10.328125 -15.2421875 10.328125 C-15.02304687 9.74804688 -14.80390625 9.16796875 -14.578125 8.5703125 C-12.81370067 5.60896874 -10.75211169 4.31711087 -7.8671875 2.453125 C-6.91070312 1.81632812 -5.95421875 1.17953125 -4.96875 0.5234375 C-2.2421875 -0.671875 -2.2421875 -0.671875 0 0 Z " fill="#F6EACA" transform="translate(70.2421875,17.671875)"/>
<path d="M0 0 C0.66 0.33 1.32 0.66 2 1 C1.3503125 1.69867188 0.700625 2.39734375 0.03125 3.1171875 C-0.8040625 4.02726562 -1.639375 4.93734375 -2.5 5.875 C-3.3353125 6.77992187 -4.170625 7.68484375 -5.03125 8.6171875 C-7.21231559 10.74181632 -7.21231559 10.74181632 -7 13 C-5.70766393 14.37310707 -4.37562854 15.71034824 -3 17 C-4.98 17.99 -4.98 17.99 -7 19 C-7 18.34 -7 17.68 -7 17 C-10.3 17 -13.6 17 -17 17 C-16.67 15.68 -16.34 14.36 -16 13 C-16.34023254 10.68668116 -16.34023254 10.68668116 -17 8.375 C-18.10629067 4.21258134 -18.10629067 4.21258134 -17 2 C-16.34 2 -15.68 2 -15 2 C-13.61061923 3.96147874 -12.2739589 5.96166576 -11 8 C-8.00779732 6.63629701 -5.70973471 5.05091917 -3.25 2.875 C-2.63640625 2.33617187 -2.0228125 1.79734375 -1.390625 1.2421875 C-0.93171875 0.83226562 -0.4728125 0.42234375 0 0 Z " fill="#A0322C" transform="translate(43,52)"/>
<path d="M0 0 C1 5.875 1 5.875 1 7 C2.32 7.33 3.64 7.66 5 8 C5 8.99 5 9.98 5 11 C3.08850332 12.0098473 1.17058431 13.00754495 -0.75 14 C-1.81734375 14.556875 -2.8846875 15.11375 -3.984375 15.6875 C-7 17 -7 17 -11 17 C-9.7874262 13.27566618 -8.49140021 9.62197194 -7 6 C-6.34 6 -5.68 6 -5 6 C-5 4.68 -5 3.36 -5 2 C-2 0 -2 0 0 0 Z " fill="#F3E5B1" transform="translate(27,61)"/>
<path d="M0 0 C0.66 0.33 1.32 0.66 2 1 C1.54496094 1.36609375 1.08992188 1.7321875 0.62109375 2.109375 C-1.55171245 4.64344296 -2.06730552 7.0381234 -2.9375 10.25 C-4.42180321 15.37915589 -6.09422752 19.53756369 -9 24 C-11.78211944 23.62403791 -13.5879284 23.32681541 -15.8125 21.5625 C-17 20 -17 20 -17 18 C-15.56640625 16.66015625 -15.56640625 16.66015625 -13.5625 15.0625 C-8.31844332 10.63460241 -4.21150126 5.39111156 0 0 Z " fill="#9C3138" transform="translate(93,5)"/>
<path d="M0 0 C1.32 0.33 2.64 0.66 4 1 C3.8125 3.375 3.8125 3.375 3 6 C0.4375 7.3125 0.4375 7.3125 -2 8 C-2 8.99 -2 9.98 -2 11 C-4.5 12.6875 -4.5 12.6875 -7 14 C-7 13.01 -7 12.02 -7 11 C-7.60328125 11.48210938 -8.2065625 11.96421875 -8.828125 12.4609375 C-9.62734375 13.09257813 -10.4265625 13.72421875 -11.25 14.375 C-12.03890625 15.00148438 -12.8278125 15.62796875 -13.640625 16.2734375 C-15.71181189 17.78910737 -17.67069497 18.94219634 -20 20 C-20 19.01 -20 18.02 -20 17 C-18.02043058 15.30911778 -16.02054804 13.64169528 -14 12 C-14 11.34 -14 10.68 -14 10 C-13.01 9.67 -12.02 9.34 -11 9 C-10.360625 8.34 -9.72125 7.68 -9.0625 7 C-7 5 -7 5 -4.9375 4.5 C-2.23268855 3.80198414 -1.47297905 2.28311753 0 0 Z " fill="#A4A994" transform="translate(52,41)"/>
<path d="M0 0 C1.65 1.65 3.3 3.3 5 5 C4.01 6.485 4.01 6.485 3 8 C2.34 8 1.68 8 1 8 C0.67 8.99 0.34 9.98 0 11 C-1.7421875 12.7890625 -1.7421875 12.7890625 -3.875 14.625 C-4.57367188 15.23601563 -5.27234375 15.84703125 -5.9921875 16.4765625 C-8 18 -8 18 -11 19 C-11.3125 16.875 -11.3125 16.875 -11 14 C-8.6875 10.9375 -8.6875 10.9375 -6 8 C-4.98758315 6.67607028 -3.98560611 5.34400833 -3 4 C-2 2.66666667 -1 1.33333333 0 0 Z " fill="#D2D0B1" transform="translate(41,40)"/>
<path d="M0 0 C1.32 0.99 2.64 1.98 4 3 C3.4328125 3.5465625 2.865625 4.093125 2.28125 4.65625 C-0.15251694 7.15669549 -2.31690457 9.77860707 -4.5 12.5 C-9.85333333 19.17333333 -9.85333333 19.17333333 -13 22 C-13.66 22 -14.32 22 -15 22 C-15.375 18.75 -15.375 18.75 -15 15 C-12.25 12.8125 -12.25 12.8125 -9 11 C-5.96472783 8.45989062 -5.96472783 8.45989062 -4.5 4.9375 C-3.80198414 2.23268855 -2.28311753 1.47297905 0 0 Z " fill="#5D787F" transform="translate(77,26)"/>
<path d="M0 0 C0.99 0.66 1.98 1.32 3 2 C2.48050781 2.42410156 1.96101563 2.84820313 1.42578125 3.28515625 C-3.75814034 7.64501636 -8.07252927 11.9041247 -11 18.125 C-12.47998108 20.89996452 -14.78631719 22.78631719 -17 25 C-18.29519995 27.16620544 -18.29519995 27.16620544 -19 29 C-20.2734375 26.95703125 -20.2734375 26.95703125 -21 24 C-19.65126959 21.2995684 -18.35505233 19.11507342 -16.625 16.6875 C-16.18671875 16.04232422 -15.7484375 15.39714844 -15.296875 14.73242188 C-14.2142065 13.14372353 -13.10919303 11.57029435 -12 10 C-11.34 10.33 -10.68 10.66 -10 11 C-9.52949219 10.45730469 -9.05898438 9.91460937 -8.57421875 9.35546875 C-7.95160156 8.64003906 -7.32898437 7.92460938 -6.6875 7.1875 C-6.07261719 6.47980469 -5.45773438 5.77210937 -4.82421875 5.04296875 C-3.26665665 3.29863261 -1.67341125 1.63221959 0 0 Z " fill="#CECFB8" transform="translate(48,29)"/>
<path d="M0 0 C1.2065625 0.0309375 1.2065625 0.0309375 2.4375 0.0625 C-0.3125 5.9375 -0.3125 5.9375 -2.5625 7.0625 C-4.7697923 7.13342842 -6.97917452 7.14665025 -9.1875 7.125 C-10.37601563 7.11597656 -11.56453125 7.10695313 -12.7890625 7.09765625 C-13.70429688 7.08605469 -14.61953125 7.07445313 -15.5625 7.0625 C-12.65445402 2.83261494 -12.65445402 2.83261494 -10.5625 1.0625 C-6.8125 0.75 -6.8125 0.75 -3.5625 1.0625 C-2.5625 0.0625 -2.5625 0.0625 0 0 Z " fill="#58695C" transform="translate(19.5625,92.9375)"/>
<path d="M0 0 C0 0.66 0 1.32 0 2 C-9.41002278 7.37129841 -9.41002278 7.37129841 -14 9 C-14.99 7.02 -15.98 5.04 -17 3 C-15.1096624 2.29753005 -13.21243172 1.61359151 -11.3125 0.9375 C-10.25675781 0.55464844 -9.20101562 0.17179688 -8.11328125 -0.22265625 C-4.90666208 -1.0233052 -3.1313693 -0.9237249 0 0 Z " fill="#DF4835" transform="translate(85,10)"/>
<path d="M0 0 C-1.32 2.31 -2.64 4.62 -4 7 C-4.59167969 6.98839844 -5.18335938 6.97679687 -5.79296875 6.96484375 C-10.00231785 6.91677614 -13.8922333 6.93993117 -18 8 C-16.59842718 3.79528155 -14.12981266 2.52576753 -10.5 0.1640625 C-6.58601108 -1.65838859 -4.1136359 -1.04710732 0 0 Z " fill="#CE2A26" transform="translate(32,46)"/>
<path d="M0 0 C0.33 0 0.66 0 1 0 C0.67 2.64 0.34 5.28 0 8 C-0.66 8 -1.32 8 -2 8 C-2 8.66 -2 9.32 -2 10 C-3.875 12.125 -3.875 12.125 -6 14 C-6.66 14 -7.32 14 -8 14 C-8.66 15.32 -9.32 16.64 -10 18 C-10.33 17.34 -10.66 16.68 -11 16 C-11.99 16.33 -12.98 16.66 -14 17 C-14 16.01 -14 15.02 -14 14 C-8.76744186 9 -8.76744186 9 -5 9 C-4.731875 8.443125 -4.46375 7.88625 -4.1875 7.3125 C-2.89596023 4.79739624 -1.52231135 2.3827482 0 0 Z " fill="#819D8B" transform="translate(35,70)"/>
<path d="M0 0 C0.66 0.33 1.32 0.66 2 1 C0.49280982 5.80416869 -0.64974237 8.12473695 -5.0625 10.6875 C-5.75472656 11.04199219 -6.44695313 11.39648438 -7.16015625 11.76171875 C-9.35116811 13.23634881 -10.01832605 14.58396308 -11 17 C-11.33 14.36 -11.66 11.72 -12 9 C-8.04 6.03 -4.08 3.06 0 0 Z " fill="#7C1D1B" transform="translate(55,58)"/>
<path d="M0 0 C1.32 0.33 2.64 0.66 4 1 C0.59445921 6.26630019 -2.87668862 11.2703193 -7 16 C-7.99 15.34 -8.98 14.68 -10 14 C-8.66189532 11.07289602 -7.14313267 8.83245076 -5 6.4375 C-3.12253722 4.33004803 -1.57778314 2.36667471 0 0 Z " fill="#78999C" transform="translate(79,29)"/>
<path d="M0 0 C0.66 0.33 1.32 0.66 2 1 C1.34 2.32 0.68 3.64 0 5 C-0.66 5 -1.32 5 -2 5 C-2.33 6.65 -2.66 8.3 -3 10 C-3.99 10.33 -4.98 10.66 -6 11 C-6.6837045 12.32467746 -7.34964186 13.65863633 -8 15 C-11 17 -11 17 -14 17 C-13.01437243 13.68470727 -12.34552581 12.25050621 -9.5 10.1875 C-7 9 -7 9 -5 9 C-4.9175 8.071875 -4.835 7.14375 -4.75 6.1875 C-4 3 -4 3 -1.9375 1.125 C-1.298125 0.75375 -0.65875 0.3825 0 0 Z " fill="#6E8A8D" transform="translate(75,24)"/>
<path d="M0 0 C1.010625 0.350625 2.02125 0.70125 3.0625 1.0625 C4.0525 1.0625 5.0425 1.0625 6.0625 1.0625 C4.99369777 2.40750955 3.90687492 3.73821438 2.8125 5.0625 C2.20921875 5.805 1.6059375 6.5475 0.984375 7.3125 C-0.9375 9.0625 -0.9375 9.0625 -4.9375 9.0625 C-4.9375 6.0925 -4.9375 3.1225 -4.9375 0.0625 C-2.9375 -0.9375 -2.9375 -0.9375 0 0 Z " fill="#95835B" transform="translate(4.9375,90.9375)"/>
<path d="M0 0 C0.4247346 4.3322929 0.47048413 6.34962488 -2.125 9.9375 C-5.43148796 12.30954571 -7.0239197 12.46233492 -11 12 C-11 10.68 -11 9.36 -11 8 C-9.02 7.67 -7.04 7.34 -5 7 C-4.814375 5.5459375 -4.814375 5.5459375 -4.625 4.0625 C-4.41875 3.051875 -4.2125 2.04125 -4 1 C-2 0 -2 0 0 0 Z " fill="#B03220" transform="translate(61,40)"/>
<path d="M0 0 C-0.57634139 4.75481646 -2.55068521 7.97048212 -5 12 C-6.875 11.75 -6.875 11.75 -9 11 C-10.1328125 8.953125 -10.1328125 8.953125 -11 7 C-9.73742767 5.82439821 -8.46462916 4.65977135 -7.1875 3.5 C-6.12595703 2.52546875 -6.12595703 2.52546875 -5.04296875 1.53125 C-3 0 -3 0 0 0 Z " fill="#8B221D" transform="translate(87,16)"/>
<path d="M0 0 C0.33 0.66 0.66 1.32 1 2 C1.66 2.33 2.32 2.66 3 3 C0.92657234 4.84571017 -1.15739889 6.67625557 -3.25 8.5 C-4.12978516 9.28697266 -4.12978516 9.28697266 -5.02734375 10.08984375 C-5.60097656 10.58613281 -6.17460938 11.08242188 -6.765625 11.59375 C-7.55114746 12.28500977 -7.55114746 12.28500977 -8.35253906 12.99023438 C-10 14 -10 14 -14 14 C-13.21625 13.2575 -12.4325 12.515 -11.625 11.75 C-8.99387321 9.26345191 -8.99387321 9.26345191 -7.875 6.75 C-7 5 -7 5 -4 4 C-2.62804426 2.70644173 -1.28817344 1.37701298 0 0 Z " fill="#B2BCAD" transform="translate(45,46)"/>
<path d="M0 0 C0.99 0.33 1.98 0.66 3 1 C1.62845496 3.95409701 0.01136276 6.44008376 -2 9 C-1.34 9.33 -0.68 9.66 0 10 C-0.66 10 -1.32 10 -2 10 C-2.66 11.32 -3.32 12.64 -4 14 C-5.5625 12.25 -5.5625 12.25 -7 10 C-6.61989435 6.63334996 -5.36974767 5.02699782 -2.9375 2.75 C-2.38964844 2.22921875 -1.84179688 1.7084375 -1.27734375 1.171875 C-0.64505859 0.59179688 -0.64505859 0.59179688 0 0 Z " fill="#E96434" transform="translate(49,31)"/>
<path d="M0 0 C1.65 0 3.3 0 5 0 C5 0.99 5 1.98 5 3 C6.216875 2.67 7.43375 2.34 8.6875 2 C11.87210604 1.19677787 14.6972843 0.79358027 18 1 C17.46375 1.2475 16.9275 1.495 16.375 1.75 C13.81382048 3.00770765 13.81382048 3.00770765 11.125 5.25 C8 7 8 7 4.75 6.25 C3.8425 5.8375 2.935 5.425 2 5 C1.34 5 0.68 5 0 5 C0 3.35 0 1.7 0 0 Z " fill="#A69266" transform="translate(0,86)"/>
<path d="M0 0 C0.33 0.66 0.66 1.32 1 2 C0.06421005 4.35981813 -0.93347808 6.69631264 -2 9 C0.97 8.34 3.94 7.68 7 7 C4.52601863 9.65069433 2.42357749 11.71615844 -1 13 C-2.32 13 -3.64 13 -5 13 C-4.54996653 7.37458159 -3.31558515 4.38512875 0 0 Z " fill="#CB6536" transform="translate(13,74)"/>
<path d="M0 0 C-2.97 3.96 -2.97 3.96 -6 8 C-8.31 7.67 -10.62 7.34 -13 7 C-6.12138728 -2.04046243 -6.12138728 -2.04046243 0 0 Z " fill="#778D7B" transform="translate(22,87)"/>
<path d="M0 0 C-1.65 0.66 -3.3 1.32 -5 2 C-5 3.32 -5 4.64 -5 6 C-5.66 6 -6.32 6 -7 6 C-7.103125 6.70125 -7.20625 7.4025 -7.3125 8.125 C-8.09359003 11.39137647 -9.42058743 14.0471852 -11 17 C-10.01 17.33 -9.02 17.66 -8 18 C-9.32 18 -10.64 18 -12 18 C-12.21266983 13.53393347 -11.74428992 10.13121297 -10 6 C-8.4375 4.3125 -8.4375 4.3125 -7 3 C-6.67 2.01 -6.34 1.02 -6 0 C-3.50907189 -1.24546405 -2.58919267 -0.7767578 0 0 Z " fill="#ECA832" transform="translate(27,61)"/>
<path d="M0 0 C-3 2 -3 2 -5.4375 3.3125 C-8.14874419 4.90390799 -8.14874419 4.90390799 -10.0625 7.625 C-12.08638908 10.10589629 -12.89157277 10.66695423 -16 11 C-14.24602895 1.99096689 -8.7191621 -1.22068269 0 0 Z " fill="#7FB5AE" transform="translate(26,59)"/>
<path d="M0 0 C0.66 0 1.32 0 2 0 C1.54058002 4.93876484 0.22187131 7.28996637 -3 11 C-3.70885894 12.31138904 -4.39456452 13.63777017 -5 15 C-6.203125 12.83203125 -6.203125 12.83203125 -7 10 C-5.734375 7.32421875 -5.734375 7.32421875 -3.75 4.6875 C-3.10546875 3.80449219 -2.4609375 2.92148437 -1.796875 2.01171875 C-1.20390625 1.34785156 -0.6109375 0.68398438 0 0 Z " fill="#B2BBAD" transform="translate(34,43)"/>
<path d="M0 0 C1.98 0 3.96 0 6 0 C6.625 2.375 6.625 2.375 7 5 C5 7 5 7 2.375 7.125 C1.59125 7.08375 0.8075 7.0425 0 7 C-1.125 2.25 -1.125 2.25 0 0 Z " fill="#29576D" transform="translate(63,25)"/>
<path d="M0 0 C0.66 0 1.32 0 2 0 C3.3726682 1.97321053 4.70427617 3.97543152 6 6 C6.66 6.66 7.32 7.32 8 8 C6.68 9.32 5.36 10.64 4 12 C-1.05908096 5.92560175 -1.05908096 5.92560175 -0.8125 2.0625 C-0.544375 1.381875 -0.27625 0.70125 0 0 Z " fill="#C74632" transform="translate(26,54)"/>
<path d="M0 0 C1.32 0.33 2.64 0.66 4 1 C2.77435227 4.81312629 0.41136694 6.39010518 -3.046875 8.25 C-6.05464603 9.40498408 -8.83117937 9.25867923 -12 9 C-8.35140239 5.95950199 -4.2555467 4.03481238 0 2 C0 1.34 0 0.68 0 0 Z " fill="#E8AD3A" transform="translate(32,69)"/>
<path d="M0 0 C0.721875 0.144375 1.44375 0.28875 2.1875 0.4375 C1.125 3.375 1.125 3.375 -0.8125 6.4375 C-4.5 7.3125 -4.5 7.3125 -7.8125 7.4375 C-3.69871444 0.57535558 -3.69871444 0.57535558 0 0 Z " fill="#325D63" transform="translate(19.8125,92.5625)"/>
<path d="M0 0 C0.66 0.33 1.32 0.66 2 1 C2.625 3.0625 2.625 3.0625 3 5 C0.03 7.475 0.03 7.475 -3 10 C-3.75 7.8125 -3.75 7.8125 -4 5 C-2.0625 2.1875 -2.0625 2.1875 0 0 Z " fill="#F6E9C9" transform="translate(41,40)"/>
<path d="M0 0 C-9.41002278 5.37129841 -9.41002278 5.37129841 -14 7 C-14 6.01 -14 5.02 -14 4 C-9.48025132 0.77160809 -5.46462089 -1.61743536 0 0 Z " fill="#ED6B4C" transform="translate(85,12)"/>
<path d="M0 0 C0.66 0 1.32 0 2 0 C1.48474397 5.28137429 -0.25477117 8.57221156 -3 13 C-4.32 12.67 -5.64 12.34 -7 12 C-6.25 9.625 -6.25 9.625 -5 7 C-3.9790625 6.505 -3.9790625 6.505 -2.9375 6 C-2.298125 5.67 -1.65875 5.34 -1 5 C-0.18828772 2.44480079 -0.18828772 2.44480079 0 0 Z " fill="#D8B977" transform="translate(12,69)"/>
<path d="M0 0 C0.33 0 0.66 0 1 0 C1.12375 0.7425 1.2475 1.485 1.375 2.25 C1.95486701 4.80141485 2.73708739 6.7267573 4 9 C0.91190305 10.76462683 -0.23312136 11 -4 11 C-2.7874262 7.27566618 -1.49140021 3.62197194 0 0 Z " fill="#F2D47C" transform="translate(20,67)"/>
<path d="M0 0 C-2 4 -2 4 -2.96875 5.84375 C-4.05209729 8.1089307 -4.85242111 10.36202887 -5.625 12.75 C-5.88539062 13.54921875 -6.14578125 14.3484375 -6.4140625 15.171875 C-6.60742188 15.77515625 -6.80078125 16.3784375 -7 17 C-8.28807475 13.13577575 -8.0859168 9.86994512 -7 6 C-3.4 0 -3.4 0 0 0 Z " fill="#E67D38" transform="translate(21,62)"/>
<path d="M0 0 C1.32 1.32 2.64 2.64 4 4 C3.34 5.32 2.68 6.64 2 8 C1.34 8 0.68 8 0 8 C-0.33 7.34 -0.66 6.68 -1 6 C-4.02934491 5.34227572 -4.02934491 5.34227572 -7 5 C-3.375 2 -3.375 2 0 2 C0 1.34 0 0.68 0 0 Z " fill="#BFC5B3" transform="translate(71,19)"/>
<path d="M0 0 C0.33 0 0.66 0 1 0 C2.32124352 5.10880829 2.32124352 5.10880829 2 8 C0.00096668 10.50140818 -2.33601171 12.24615235 -5 14 C-5.33 13.34 -5.66 12.68 -6 12 C-7.32 11.67 -8.64 11.34 -10 11 C-7.36 10.34 -4.72 9.68 -2 9 C-1.34 6.03 -0.68 3.06 0 0 Z " fill="#7C7F71" transform="translate(61,41)"/>
<path d="M0 0 C0.66 0.66 1.32 1.32 2 2 C-0.64 3.98 -3.28 5.96 -6 8 C-6.66 7.67 -7.32 7.34 -8 7 C-8 6.01 -8 5.02 -8 4 C-5.36 2.68 -2.72 1.36 0 0 Z " fill="#819B9B" transform="translate(47,61)"/>
<path d="M0 0 C0.99 0.33 1.98 0.66 3 1 C2.49339844 1.68835938 2.49339844 1.68835938 1.9765625 2.390625 C-1.36308951 6.98192426 -1.36308951 6.98192426 -4 12 C-5.13213213 6.77477477 -5.13213213 6.77477477 -5 4 C-2.75 1.4375 -2.75 1.4375 0 0 Z " fill="#7C2324" transform="translate(48,63)"/>
<path d="M0 0 C0.33 0.66 0.66 1.32 1 2 C2.98 1.34 4.96 0.68 7 0 C3.484375 4.6875 3.484375 4.6875 2 6 C0.68 6 -0.64 6 -2 6 C-2 4.35 -2 2.7 -2 1 C-1.34 0.67 -0.68 0.34 0 0 Z " fill="#7D7151" transform="translate(2,94)"/>
<path d="M0 0 C0.3125 2.75 0.3125 2.75 0 6 C-2.5 8.375 -2.5 8.375 -5 10 C-5.49076517 4.60158311 -5.49076517 4.60158311 -3.0625 1.625 C-1 0 -1 0 0 0 Z " fill="#83A798" transform="translate(5,76)"/>
<path d="M0 0 C2.97 0 5.94 0 9 0 C7.66697708 2.66604583 6.81009519 2.99124788 4 4 C1.30840157 4.16468671 -1.29843606 4.09005213 -4 4 C-2.68 3.67 -1.36 3.34 0 3 C0 2.01 0 1.02 0 0 Z " fill="#F7E39B" transform="translate(23,71)"/>
<path d="M0 0 C0.66 0.33 1.32 0.66 2 1 C1.82374165 3.37948772 1.30280227 4.70225849 -0.40234375 6.37890625 C-1.90649092 7.62115486 -3.45129851 8.81376056 -5 10 C-4.49701212 5.59885603 -2.91227269 3.28804981 0 0 Z " fill="#F5E8C8" transform="translate(35,48)"/>
<path d="M0 0 C0 3.69418201 -1.28179295 5.77836178 -3 9 C-3.66 9 -4.32 9 -5 9 C-5.33 9.66 -5.66 10.32 -6 11 C-6.66 9.68 -7.32 8.36 -8 7 C-5.36 4.69 -2.72 2.38 0 0 Z " fill="#AA2823" transform="translate(84,16)"/>
<path d="M0 0 C0.66 0.33 1.32 0.66 2 1 C-0.34715382 4.78152559 -2.82822214 6.46751017 -7 8 C-9.375 7.1875 -9.375 7.1875 -11 6 C-10.34 6 -9.68 6 -9 6 C-9 5.34 -9 4.68 -9 4 C-7.88625 3.71125 -6.7725 3.4225 -5.625 3.125 C-1.99708908 2.30758671 -1.99708908 2.30758671 0 0 Z " fill="#D57439" transform="translate(31,74)"/>
<path d="M0 0 C0.33 0 0.66 0 1 0 C0.67 2.64 0.34 5.28 0 8 C-0.66 8 -1.32 8 -2 8 C-2 8.66 -2 9.32 -2 10 C-2.99 10.33 -3.98 10.66 -5 11 C-5.33 10.34 -5.66 9.68 -6 9 C-5.02501855 7.4972763 -4.04490611 5.99788037 -3.0625 4.5 C-2.51722656 3.6646875 -1.97195312 2.829375 -1.41015625 1.96875 C-0.94480469 1.3190625 -0.47945312 0.669375 0 0 Z " fill="#7CACA5" transform="translate(35,70)"/>
<path d="M0 0 C0.33 0.66 0.66 1.32 1 2 C1.66 2.33 2.32 2.66 3 3 C0.69 4.65 -1.62 6.3 -4 8 C-4.99 7.01 -5.98 6.02 -7 5 C-6.01 4.67 -5.02 4.34 -4 4 C-2.62804426 2.70644173 -1.28817344 1.37701298 0 0 Z " fill="#B6C4B4" transform="translate(45,46)"/>
<path d="M0 0 C0.99 0.66 1.98 1.32 3 2 C2.44570313 2.48210938 1.89140625 2.96421875 1.3203125 3.4609375 C0.59585938 4.09257813 -0.12859375 4.72421875 -0.875 5.375 C-1.59429687 6.00148438 -2.31359375 6.62796875 -3.0546875 7.2734375 C-4.4076598 8.47426834 -5.7208345 9.7208345 -7 11 C-7.33 10.01 -7.66 9.02 -8 8 C-5.36 5.36 -2.72 2.72 0 0 Z " fill="#D2C196" transform="translate(48,29)"/>
<path d="M0 0 C0.66 0.33 1.32 0.66 2 1 C1.401875 1.70125 0.80375 2.4025 0.1875 3.125 C-1.97740961 5.97030977 -3.49596636 8.76632767 -5 12 C-5.99 12 -6.98 12 -8 12 C-6.59023295 8.96147295 -4.91129772 6.4060405 -2.875 3.75 C-2.06675781 2.69039063 -2.06675781 2.69039063 -1.2421875 1.609375 C-0.83226563 1.07828125 -0.42234375 0.5471875 0 0 Z " fill="#9C5554" transform="translate(93,5)"/>
<path d="M0 0 C0.99 0.66 1.98 1.32 3 2 C3 3.32 3 4.64 3 6 C0.69 5.67 -1.62 5.34 -4 5 C-3 2 -3 2 0 0 Z " fill="#C5C9B0" transform="translate(56,32)"/>
<path d="M0 0 C0.99 0.33 1.98 0.66 3 1 C2.67 2.65 2.34 4.3 2 6 C-0.97 5.505 -0.97 5.505 -4 5 C-2.68 3.35 -1.36 1.7 0 0 Z " fill="#BCA979" transform="translate(5,81)"/>
<path d="M0 0 C1.32 0.33 2.64 0.66 4 1 C3.625 3.4375 3.625 3.4375 3 6 C2.01 6.495 2.01 6.495 1 7 C0.67 6.01 0.34 5.02 0 4 C-0.66 4 -1.32 4 -2 4 C-1.34 2.68 -0.68 1.36 0 0 Z " fill="#BDCBA4" transform="translate(8,69)"/>
<path d="M0 0 C0.66 0.33 1.32 0.66 2 1 C1.34 2.32 0.68 3.64 0 5 C-0.66 5 -1.32 5 -2 5 C-2 5.99 -2 6.98 -2 8 C-2.99 7.67 -3.98 7.34 -5 7 C-4.60196439 4.11424181 -4.20990931 3.17810487 -1.9375 1.25 C-1.298125 0.8375 -0.65875 0.425 0 0 Z " fill="#82938D" transform="translate(75,24)"/>
<path d="M0 0 C-0.33 0.66 -0.66 1.32 -1 2 C-1.66 2 -2.32 2 -3 2 C-2.979375 2.969375 -2.95875 3.93875 -2.9375 4.9375 C-3 8 -3 8 -4 9 C-5.66617115 9.04063832 -7.33388095 9.042721 -9 9 C-8.360625 8.79375 -7.72125 8.5875 -7.0625 8.375 C-4.65074923 7.10461791 -4.65074923 7.10461791 -4.25 3.875 C-4.1675 2.92625 -4.085 1.9775 -4 1 C-4.66 0.67 -5.32 0.34 -6 0 C-3 -1 -3 -1 0 0 Z " fill="#D45931" transform="translate(60,39)"/>
<path d="M0 0 C1.32 0 2.64 0 4 0 C4 1.65 4 3.3 4 5 C1.69 4.67 -0.62 4.34 -3 4 C-1.75 2 -1.75 2 0 0 Z " fill="#697F70" transform="translate(12,90)"/>
<path d="M0 0 C0.33 0.66 0.66 1.32 1 2 C-2.63 2.33 -6.26 2.66 -10 3 C-10 2.34 -10 1.68 -10 1 C-3.44680851 -1.53191489 -3.44680851 -1.53191489 0 0 Z " fill="#F7EBBC" transform="translate(32,69)"/>
<path d="M0 0 C1.5 1.375 1.5 1.375 3 3 C3 3.66 3 4.32 3 5 C4.32 5.66 5.64 6.32 7 7 C4.07175348 7.97608217 2.04386724 8.08226668 -1 8 C-0.7525 7.13375 -0.7525 7.13375 -0.5 6.25 C0.14462031 3.73335631 0.14462031 3.73335631 0 0 Z " fill="#867168" transform="translate(27,61)"/>
<path d="M0 0 C0.99 0.33 1.98 0.66 3 1 C1.02 3.31 -0.96 5.62 -3 8 C-3.33 7.01 -3.66 6.02 -4 5 C-2.0625 2.3125 -2.0625 2.3125 0 0 Z " fill="#717259" transform="translate(24,90)"/>
<path d="M0 0 C0.66 0.99 1.32 1.98 2 3 C2.66 3 3.32 3 4 3 C3.1875 4.9375 3.1875 4.9375 2 7 C1.01 7.33 0.02 7.66 -1 8 C-2 6 -2 6 -1.0625 2.875 C-0.5365625 1.451875 -0.5365625 1.451875 0 0 Z " fill="#AF3A3B" transform="translate(45,71)"/>
<path d="M0 0 C0.66 0.33 1.32 0.66 2 1 C0.83709195 4.48872415 -0.13967609 5.09976864 -3.0625 7.1875 C-3.79597656 7.71730469 -4.52945313 8.24710938 -5.28515625 8.79296875 C-5.85105469 9.19128906 -6.41695312 9.58960937 -7 10 C-5.17495091 6.07699728 -2.81729174 3.26212728 0 0 Z " fill="#5F6D72" transform="translate(42,55)"/>
<path d="M0 0 C1.32 0.33 2.64 0.66 4 1 C2.7260411 3.03833424 1.38938077 5.03852126 0 7 C-0.66 7 -1.32 7 -2 7 C-1.42415568 4.61435923 -0.77772405 2.33317216 0 0 Z " fill="#AD2520" transform="translate(28,46)"/>
<path d="M0 0 C2.97 0.495 2.97 0.495 6 1 C4.75 2.5 4.75 2.5 3 4 C1.68 4 0.36 4 -1 4 C-0.67 2.68 -0.34 1.36 0 0 Z " fill="#B65A37" transform="translate(9,83)"/>
<path d="M0 0 C0.99 0.33 1.98 0.66 3 1 C2.67 2.32 2.34 3.64 2 5 C0.68 4.67 -0.64 4.34 -2 4 C-2 3.01 -2 2.02 -2 1 C-1.34 0.67 -0.68 0.34 0 0 Z " fill="#8AA896" transform="translate(27,79)"/>
<path d="M0 0 C0.66 0 1.32 0 2 0 C1.37240135 2.92879371 0.41377341 5.36095629 -1 8 C-1.33 8 -1.66 8 -2 8 C-1.125 1.125 -1.125 1.125 0 0 Z " fill="#5D857F" transform="translate(31,80)"/>
<path d="M0 0 C0.99 0 1.98 0 3 0 C3 0.99 3 1.98 3 3 C1.35 3.66 -0.3 4.32 -2 5 C-2 2 -2 2 0 0 Z " fill="#B5C4A4" transform="translate(8,64)"/>
<path d="M0 0 C0 0.99 0 1.98 0 3 C-2.31 4.32 -4.62 5.64 -7 7 C-5.54744301 3.17053157 -3.57104439 1.87949705 0 0 Z " fill="#8D201D" transform="translate(54,63)"/>
<path d="M0 0 C1.32 0.66 2.64 1.32 4 2 C2.68 3.32 1.36 4.64 0 6 C-0.38218767 4.34385343 -0.71395102 2.67542976 -1 1 C-0.67 0.67 -0.34 0.34 0 0 Z " fill="#BD3F33" transform="translate(30,60)"/>
<path d="M0 0 C2.97 0 5.94 0 9 0 C6.31143836 1.79237442 4.0466145 2.98446183 1 4 C0.34 3.67 -0.32 3.34 -1 3 C-0.67 2.01 -0.34 1.02 0 0 Z " fill="#A6C4B0" transform="translate(17,59)"/>
<path d="M0 0 C0.99 0.33 1.98 0.66 3 1 C-0.465 3.97 -0.465 3.97 -4 7 C-4.66 6.67 -5.32 6.34 -6 6 C-4.02 4.02 -2.04 2.04 0 0 Z " fill="#C9CDB8" transform="translate(36,52)"/>
<path d="M0 0 C0 3 0 3 -1 5 C-3.64860427 5.59355614 -6.29197322 5.74209269 -9 6 C-9 5.34 -9 4.68 -9 4 C-7.6078125 3.566875 -7.6078125 3.566875 -6.1875 3.125 C-2.90208333 2.1125 -2.90208333 2.1125 0 0 Z " fill="#BE2E2B" transform="translate(27,47)"/>
<path d="M0 0 C0.66 0.66 1.32 1.32 2 2 C0.35 3.65 -1.3 5.3 -3 7 C-3.66 6.67 -4.32 6.34 -5 6 C-3.35 4.02 -1.7 2.04 0 0 Z " fill="#75A6A4" transform="translate(5,68)"/>
<path d="M0 0 C0.33 0.66 0.66 1.32 1 2 C1.66 2.33 2.32 2.66 3 3 C2.01 5.31 1.02 7.62 0 10 C-0.33 10 -0.66 10 -1 10 C-0.67 6.7 -0.34 3.4 0 0 Z " fill="#F7E39B" transform="translate(22,63)"/>
<path d="M0 0 C0.66 0.99 1.32 1.98 2 3 C1.01 3 0.02 3 -1 3 C-1 3.66 -1 4.32 -1 5 C-2.32 5.33 -3.64 5.66 -5 6 C-3.86695008 2.60085025 -2.87481525 1.94745549 0 0 Z " fill="#D4352E" transform="translate(19,48)"/>
<path d="M0 0 C0 2.31 0 4.62 0 7 C-0.66 6.01 -1.32 5.02 -2 4 C-2.99 4.495 -2.99 4.495 -4 5 C-4 3.68 -4 2.36 -4 1 C-2 0 -2 0 0 0 Z " fill="#BE3623" transform="translate(61,40)"/>
<path d="M0 0 C0.33 0.99 0.66 1.98 1 3 C-0.8125 5.6875 -0.8125 5.6875 -3 8 C-3.66 8 -4.32 8 -5 8 C-3.62845496 5.04590299 -2.01136276 2.55991624 0 0 Z " fill="#F0DDAB" transform="translate(52,32)"/>
<path d="M0 0 C0.66 0.99 1.32 1.98 2 3 C-1.4352048 5.29013653 -2.985331 5.17842973 -7 5 C-3.375 2 -3.375 2 0 2 C0 1.34 0 0.68 0 0 Z " fill="#DFD0A6" transform="translate(71,19)"/>
<path d="M0 0 C0.66 0.33 1.32 0.66 2 1 C1.01 1 0.02 1 -1 1 C-0.67 0.67 -0.34 0.34 0 0 Z " fill="#7DBCCC" transform="translate(12,61)"/>
<path d="" fill="#71ADB8" transform="translate(0,0)"/>
<path d="" fill="#7AA8B9" transform="translate(0,0)"/>
</svg>
