<?xml version="1.0" encoding="UTF-8"?>
<svg version="1.1" xmlns="http://www.w3.org/2000/svg" width="97" height="144">
<path d="M0 0 C6.6549344 2.90324827 11.83716571 8.99329066 15.0859375 15.35546875 C16.45347357 23.73162721 16.13925508 31.15259815 11.296875 38.328125 C7.92634854 42.57282544 4.41372177 45.00407661 -0.4140625 47.41796875 C0.81957031 47.74667969 0.81957031 47.74667969 2.078125 48.08203125 C9.69717547 50.24633427 16.09958636 52.86030255 22.5859375 57.41796875 C23.22144531 57.85753906 23.85695313 58.29710937 24.51171875 58.75 C32.77690598 65.10924605 38.36662736 75.44904455 40.14794922 85.63012695 C40.61982437 89.71103158 40.73003891 93.67132121 40.71875 97.7734375 C40.71970673 98.55632645 40.72066345 99.33921539 40.72164917 100.14582825 C40.72232625 101.79554322 40.7205051 103.44526093 40.71630859 105.0949707 C40.71098995 107.58095508 40.71625099 110.06675581 40.72265625 112.55273438 C40.73910914 136.90575176 40.73910914 136.90575176 38.22705078 140.19995117 C36.5859375 141.41796875 36.5859375 141.41796875 33.6484375 141.91796875 C30.5859375 141.41796875 30.5859375 141.41796875 28.41943359 139.58813477 C25.68545655 134.861012 26.09778694 130.56019994 26.1875 125.1953125 C26.18276068 122.94205626 26.17753672 120.68880099 26.171875 118.43554688 C26.18655463 114.90289454 26.21078584 111.37064166 26.24609375 107.83813477 C26.89540635 88.19784036 26.89540635 88.19784036 17.8112793 71.46362305 C10.67949285 64.57554677 1.12332849 61.4657901 -8.6015625 61.04296875 C-18.66175016 61.26652848 -28.08525821 64.43555073 -35.4140625 71.41796875 C-37.47687259 73.65759113 -39.07875468 75.81187971 -40.55078125 78.47265625 C-43.74765428 84.14029866 -43.74765428 84.14029866 -47.4140625 85.66796875 C-50.4140625 85.41796875 -50.4140625 85.41796875 -53.3515625 83.91796875 C-55.4140625 81.41796875 -55.4140625 81.41796875 -55.6640625 78.35546875 C-53.62605433 69.49870428 -46.82698484 61.37974823 -39.4140625 56.41796875 C-32.39964796 52.40621587 -25.43435812 48.86162196 -17.4140625 47.41796875 C-18.4246875 46.92296875 -19.4353125 46.42796875 -20.4765625 45.91796875 C-26.53543392 42.45751576 -31.31051351 37.10566696 -33.4140625 30.41796875 C-34.48148323 21.84489492 -33.70277367 14.43153536 -28.4140625 7.41796875 C-25.93376146 5.05554341 -23.36310081 3.15338692 -20.4140625 1.41796875 C-19.81207031 1.04414062 -19.21007813 0.6703125 -18.58984375 0.28515625 C-13.04359493 -1.92537739 -5.72449452 -1.38017748 0 0 Z M-18.4140625 16.41796875 C-21.00050714 19.82737305 -20.77909365 23.25661365 -20.4140625 27.41796875 C-18.94972104 31.208029 -17.71148561 32.2463785 -14.1640625 34.29296875 C-9.91908072 35.56646328 -7.65446736 35.67438501 -3.4140625 34.41796875 C0.06393719 31.84727332 1.35514941 30.19687855 2.5859375 26.04296875 C2.5859375 21.68898135 1.75801324 19.18290003 -0.4140625 15.41796875 C-3.29285218 12.93901097 -5.07723945 12.46083714 -8.8515625 11.98046875 C-13.09751477 12.50190149 -15.15223827 13.68713916 -18.4140625 16.41796875 Z " fill="#0F0F10" transform="translate(56.4140625,1.58203125)"/>
<path d="M0 0 C2.94255824 0.92936172 4.23062842 2.00060344 6.375 4.19604492 C7.39980469 5.23341797 7.39980469 5.23341797 8.4453125 6.29174805 C9.14398438 7.01942383 9.84265625 7.74709961 10.5625 8.49682617 C11.26117188 9.20516602 11.95984375 9.91350586 12.6796875 10.64331055 C24.5625 22.78395766 24.5625 22.78395766 24.5625 26.80932617 C22.29492263 31.22799578 19.19070779 34.60758516 15.8125 38.18432617 C15.27681396 38.75505859 14.74112793 39.32579102 14.18920898 39.91381836 C13.12890798 41.04031805 12.06639349 42.16473924 11.00146484 43.28686523 C9.78688117 44.57192526 8.58877454 45.87252911 7.39453125 47.17651367 C4.99245496 49.73236526 3.151039 51.54308234 -0.0625 52.99682617 C-3.63469814 52.71481053 -5.07293987 51.44412175 -7.4375 48.80932617 C-8.02004548 44.88394963 -7.7894258 43.30509466 -5.46875 40.03588867 C-4.6334375 39.17737305 -3.798125 38.31885742 -2.9375 37.43432617 C-1.68453125 36.12334961 -1.68453125 36.12334961 -0.40625 34.78588867 C0.2434375 34.13362305 0.893125 33.48135742 1.5625 32.80932617 C0.31114258 32.79998047 -0.94021484 32.79063477 -2.22949219 32.78100586 C-6.8740595 32.74112136 -11.51796335 32.67536676 -16.16210938 32.60180664 C-18.17178827 32.5735881 -20.18157834 32.55237797 -22.19140625 32.53833008 C-25.08130849 32.51691282 -27.9698729 32.47026914 -30.859375 32.41870117 C-31.75742859 32.41747253 -32.65548218 32.4162439 -33.58074951 32.41497803 C-39.80270847 32.26901925 -39.80270847 32.26901925 -43.03613281 29.92749023 C-44.4375 27.80932617 -44.4375 27.80932617 -44.4375 25.30932617 C-43.17629346 22.15630983 -42.16859656 20.86913951 -39.4375 18.80932617 C-36.46963698 18.19495777 -33.53872751 18.20441315 -30.515625 18.19995117 C-29.65563904 18.18341492 -28.79565308 18.16687866 -27.90960693 18.14984131 C-25.16883212 18.10134249 -22.4286122 18.07998661 -19.6875 18.05932617 C-17.82679497 18.031168 -15.96611581 18.00124078 -14.10546875 17.96948242 C-9.54952485 17.8955832 -4.99388933 17.84602023 -0.4375 17.80932617 C-1.18241699 16.99963379 -1.18241699 16.99963379 -1.94238281 16.17358398 C-2.58530273 15.46041016 -3.22822266 14.74723633 -3.890625 14.01245117 C-4.53161133 13.30765625 -5.17259766 12.60286133 -5.83300781 11.87670898 C-7.4375 9.80932617 -7.4375 9.80932617 -8.1875 6.55932617 C-7.4375 3.80932617 -7.4375 3.80932617 -5.25 1.37182617 C-2.4375 -0.19067383 -2.4375 -0.19067383 0 0 Z " fill="#0D0D0D" transform="translate(52.4375,90.190673828125)"/>
<path d="M0 0 C0.66 0.33 1.32 0.66 2 1 C-1.96 4.96 -5.92 8.92 -10 13 C-10 8.41771462 -7.08388033 6.1816619 -4 3 C-1.625 1.0625 -1.625 1.0625 0 0 Z " fill="#414141" transform="translate(17,58)"/>
<path d="M0 0 C0.66 0.33 1.32 0.66 2 1 C-0.97 3.97 -3.94 6.94 -7 10 C-7 6.04435836 -5.59478606 4.89133304 -3 2 C-2.01 1.34 -1.02 0.68 0 0 Z " fill="#3D3D3D" transform="translate(34,4)"/>
</svg>
