<?xml version="1.0" encoding="UTF-8"?>
<svg version="1.1" xmlns="http://www.w3.org/2000/svg" width="100" height="98">
<path d="M0 0 C0.78375 0.165 1.5675 0.33 2.375 0.5 C5.09522679 1.23945377 5.09522679 1.23945377 8 0 C10.04296875 0.55859375 10.04296875 0.55859375 12.1875 1.4375 C12.90292969 1.72496094 13.61835937 2.01242188 14.35546875 2.30859375 C14.89816406 2.53675781 15.44085938 2.76492188 16 3 C16 2.34 16 1.68 16 1 C17.36125 1.0309375 17.36125 1.0309375 18.75 1.0625 C21.84063578 1.15021023 21.84063578 1.15021023 24.0625 0.375 C26.99940735 -0.19343368 28.42558407 0.51971084 31 2 C33.71023885 5.14973704 34.8893507 7.2531172 35.5 11.375 C34.88746331 15.81589103 33.7187154 19.39835773 31 23 C28.375 24.125 28.375 24.125 26 24 C25.01 23.01 25.01 23.01 24 22 C23.505 24.475 23.505 24.475 23 27 C24.485 27.495 24.485 27.495 26 28 C26.495 29.485 26.495 29.485 27 31 C26.34 31 25.68 31 25 31 C25 31.66 25 32.32 25 33 C26.485 33.99 26.485 33.99 28 35 C27.34 35 26.68 35 26 35 C26.185625 35.7425 26.37125 36.485 26.5625 37.25 C27.00000274 40.00001724 27.05538293 41.44949126 26 44 C25.01 44.66 24.02 45.32 23 46 C22.63402914 47.90018867 22.63402914 47.90018867 22.8125 50.0703125 C22.83570312 50.885 22.85890625 51.6996875 22.8828125 52.5390625 C22.95987757 54.2396317 23.03797304 55.94015457 23.1171875 57.640625 C23.28432184 63.5646088 22.24714216 67.52817904 20 73 C20.53263792 76.95673887 21.46241228 78.47694167 24.3125 81.25 C28.42701495 83.72481964 33.19242567 83.91887619 37.87890625 84.41015625 C41.20848412 85.03940063 43.29406595 85.97936768 46 88 C46 88.66 46 89.32 46 90 C43.26100031 90.76665964 40.79379393 91.12915241 37.953125 91.17578125 C36.8084375 91.21155273 36.8084375 91.21155273 35.640625 91.24804688 C34.06276398 91.29058725 32.48456107 91.32206799 30.90625 91.34179688 C26.78765811 91.49037024 23.74566061 91.91912368 20.109375 93.91796875 C10.84683105 98.95850008 -0.08004879 98.34475626 -10.34399414 98.31567383 C-12.69398494 98.31249122 -15.04273994 98.33613469 -17.39257812 98.36132812 C-18.91145677 98.36359984 -20.43033875 98.36430521 -21.94921875 98.36328125 C-22.63900314 98.372491 -23.32878754 98.38170074 -24.03947449 98.39118958 C-28.84775439 98.34612641 -35.39786166 97.60213834 -39 94 C-39.04063832 92.33382885 -39.042721 90.66611905 -39 89 C-36.31779129 88.44778056 -33.64058024 87.94131922 -30.9375 87.5 C-29.968125 87.335 -28.99875 87.17 -28 87 C-27.2575 86.938125 -26.515 86.87625 -25.75 86.8125 C-23.72435178 86.07636947 -23.72435178 86.07636947 -22.5625 83.5 C-21.80083396 78.76074465 -22.96340855 75.29166781 -25 71 C-25.51820312 70.37867187 -26.03640625 69.75734375 -26.5703125 69.1171875 C-28.46964594 66.30451339 -28.50467836 64.11391817 -28.6875 60.75 C-28.75324219 59.67234375 -28.81898437 58.5946875 -28.88671875 57.484375 C-28.92410156 56.66453125 -28.96148438 55.8446875 -29 55 C-29.88300781 55.40992188 -30.76601563 55.81984375 -31.67578125 56.2421875 C-39.086523 59.56945931 -45.85697964 62.03613228 -54 63 C-54 61.02 -54 59.04 -54 57 C-53.10539062 56.5875 -52.21078125 56.175 -51.2890625 55.75 C-38.82624122 49.86521104 -29.93386302 44.4653345 -25 31 C-23.5625 27.4375 -23.5625 27.4375 -22 25 C-18.875 23.8125 -18.875 23.8125 -16 23 C-15.505 21.515 -15.505 21.515 -15 20 C-10.87878788 16.88124488 -10.87878788 16.88124488 -7.6875 17.3125 C-7.130625 17.539375 -6.57375 17.76625 -6 18 C-6.33 16.35 -6.66 14.7 -7 13 C-6.01 13 -5.02 13 -4 13 C-4.495 11.02 -4.495 11.02 -5 9 C-4.34 8.67 -3.68 8.34 -3 8 C-3 7.34 -3 6.68 -3 6 C-2.34 5.67 -1.68 5.34 -1 5 C-1 3.68 -1 2.36 -1 1 C-0.67 0.67 -0.34 0.34 0 0 Z M0 1 C1 4 1 4 1 4 Z " fill="#130F10" transform="translate(54,0)"/>
<path d="M0 0 C0.78375 0.165 1.5675 0.33 2.375 0.5 C5.09522679 1.23945377 5.09522679 1.23945377 8 0 C10.04296875 0.55859375 10.04296875 0.55859375 12.1875 1.4375 C12.90292969 1.72496094 13.61835937 2.01242188 14.35546875 2.30859375 C14.89816406 2.53675781 15.44085938 2.76492188 16 3 C16 2.34 16 1.68 16 1 C17.36125 1.0309375 17.36125 1.0309375 18.75 1.0625 C21.84063578 1.15021023 21.84063578 1.15021023 24.0625 0.375 C26.99940735 -0.19343368 28.42558407 0.51971084 31 2 C33.71023885 5.14973704 34.8893507 7.2531172 35.5 11.375 C34.88746331 15.81589103 33.7187154 19.39835773 31 23 C28.375 24.125 28.375 24.125 26 24 C25.01 23.01 25.01 23.01 24 22 C23.505 24.475 23.505 24.475 23 27 C24.485 27.495 24.485 27.495 26 28 C26.495 29.485 26.495 29.485 27 31 C26.34 31 25.68 31 25 31 C25 31.66 25 32.32 25 33 C26.485 33.99 26.485 33.99 28 35 C27.34 35 26.68 35 26 35 C26.185625 35.7425 26.37125 36.485 26.5625 37.25 C27.00000274 40.00001724 27.05538293 41.44949126 26 44 C25.01 44.66 24.02 45.32 23 46 C22.6340183 47.91669093 22.6340183 47.91669093 22.8125 50.10546875 C22.83570312 50.92466797 22.85890625 51.74386719 22.8828125 52.58789062 C22.96005885 54.30147213 23.03816365 56.01501518 23.1171875 57.72851562 C23.27481183 63.33731477 22.59638676 67.00330777 20 72 C19.67 72 19.34 72 19 72 C19.2784375 70.2365625 19.2784375 70.2365625 19.5625 68.4375 C20.08230996 64.38731406 19.7502354 61.00125547 19 57 C18.34 57 17.68 57 17 57 C16.505 55.02 16.505 55.02 16 53 C15.34 54.32 14.68 55.64 14 57 C12.68 56.34 11.36 55.68 10 55 C10.515625 54.62875 11.03125 54.2575 11.5625 53.875 C13.36319983 51.96826848 13.36319983 51.96826848 12.6875 48.8125 C12.460625 47.884375 12.23375 46.95625 12 46 C12.66 46 13.32 46 14 46 C14 43.8979185 12.3045918 42.49096206 11 41 C8.90584196 40.20376178 8.90584196 40.20376178 7 40 C6.67 40.99 6.34 41.98 6 43 C5.01 42.67 4.02 42.34 3 42 C3 43.65 3 45.3 3 47 C4.98 46.505 4.98 46.505 7 46 C7.495 47.98 7.495 47.98 8 50 C8.66 49.67 9.32 49.34 10 49 C8.8355018 53.94911734 5.94846611 55.82068699 1.97265625 58.5703125 C0.11451965 59.9170016 -1.42801778 61.33438875 -3 63 C-3 61.68 -3 60.36 -3 59 C-3.99 59.66 -4.98 60.32 -6 61 C-6.2475 60.4225 -6.495 59.845 -6.75 59.25 C-7.9318612 56.86733113 -7.9318612 56.86733113 -10.125 54.9375 C-12 53 -12 53 -12 50 C-11.34 50 -10.68 50 -10 50 C-10 50.66 -10 51.32 -10 52 C-9.34 52 -8.68 52 -8 52 C-8.19471111 50.05000871 -8.19471111 50.05000871 -9 48 C-10.9837767 46.71563266 -10.9837767 46.71563266 -13 46 C-13.66 47.65 -14.32 49.3 -15 51 C-14.505 51.45375 -14.01 51.9075 -13.5 52.375 C-12 54 -12 54 -12 56 C-18.57625165 52.71187418 -18.57625165 52.71187418 -20.40234375 48.31640625 C-21.60903334 43.63949823 -21.20400085 38.79024225 -21 34 C-21 33.67 -21 33.34 -21 33 C-21.82011312 34.55851755 -22.63076213 36.12201716 -23.4375 37.6875 C-23.88996094 38.55761719 -24.34242187 39.42773438 -24.80859375 40.32421875 C-25.96249432 42.91576593 -26.4775816 45.22788796 -27 48 C-29.87565928 52.07385065 -33.46522657 53.00669152 -38.07421875 54.2890625 C-40.19660691 54.82305062 -40.19660691 54.82305062 -41 57 C-45.09194801 58.41644354 -48.66708088 59.26260116 -53 59 C-52 56 -52 56 -49.62890625 54.67578125 C-48.61699219 54.22589844 -47.60507812 53.77601562 -46.5625 53.3125 C-35.50962905 47.94396268 -29.26145281 42.63021496 -25 31 C-23.5625 27.4375 -23.5625 27.4375 -22 25 C-18.875 23.8125 -18.875 23.8125 -16 23 C-15.505 21.515 -15.505 21.515 -15 20 C-10.87878788 16.88124488 -10.87878788 16.88124488 -7.6875 17.3125 C-7.130625 17.539375 -6.57375 17.76625 -6 18 C-6.33 16.35 -6.66 14.7 -7 13 C-6.01 13 -5.02 13 -4 13 C-4.495 11.02 -4.495 11.02 -5 9 C-4.34 8.67 -3.68 8.34 -3 8 C-3 7.34 -3 6.68 -3 6 C-2.34 5.67 -1.68 5.34 -1 5 C-1 3.68 -1 2.36 -1 1 C-0.67 0.67 -0.34 0.34 0 0 Z M0 1 C1 4 1 4 1 4 Z " fill="#39302C" transform="translate(54,0)"/>
<path d="M0 0 C5.73033708 4.58426966 5.73033708 4.58426966 7.5 7.3125 C8.95870909 9.26563261 8.95870909 9.26563261 11.8125 9.75 C16.18278264 8.7216982 17.28143328 6.4377257 19.60546875 2.75 C20.06566406 2.1725 20.52585937 1.595 21 1 C21.99 1 22.98 1 24 1 C25.79471789 18.61584634 25.79471789 18.61584634 23 27 C23.66 27 24.32 27 25 27 C25 27.66 25 28.32 25 29 C25.66 29 26.32 29 27 29 C27 29.99 27 30.98 27 32 C29.31 32 31.62 32 34 32 C34.33 31.34 34.66 30.68 35 30 C34.01 30 33.02 30 32 30 C31.67 28.02 31.34 26.04 31 24 C31.66 24.33 32.32 24.66 33 25 C32.7215625 24.2575 32.7215625 24.2575 32.4375 23.5 C31.79860704 19.84918311 32.45094709 16.66035276 33 13 C33.66 13.33 34.32 13.66 35 14 C35.2475 14.928125 35.495 15.85625 35.75 16.8125 C36.99359251 19.98366091 37.97226444 21.44386822 40.890625 23.19921875 C44.74094522 24.66091439 48.80347023 24.98293151 52.87890625 25.41015625 C56.20848412 26.03940063 58.29406595 26.97936768 61 29 C61 29.66 61 30.32 61 31 C58.26100031 31.76665964 55.79379393 32.12915241 52.953125 32.17578125 C51.8084375 32.21155273 51.8084375 32.21155273 50.640625 32.24804688 C49.06276398 32.29058725 47.48456107 32.32206799 45.90625 32.34179688 C40.77576342 32.52687315 37.25614218 33.57293427 32.76904297 36.0534668 C24.71077726 40.36507267 13.84013218 39.21474005 5 39 C5 38.67 5 38.34 5 38 C6.3921875 37.814375 6.3921875 37.814375 7.8125 37.625 C11.13925235 37.18466918 11.13925235 37.18466918 14 35 C15.98 34.505 15.98 34.505 18 34 C13.71 33.67 9.42 33.34 5 33 C4.67 30.69 4.34 28.38 4 26 C4.66 26 5.32 26 6 26 C5.54625 25.154375 5.0925 24.30875 4.625 23.4375 C2.99638907 19.9923615 1.97141945 16.67751648 1 13 C0.67 12.01 0.34 11.02 0 10 C0.165 9.030625 0.33 8.06125 0.5 7.0625 C0.96845456 4.1932158 0.93215166 2.69288256 0 0 Z " fill="#7C6955" transform="translate(39,59)"/>
<path d="M0 0 C0.33 0.66 0.66 1.32 1 2 C1.99 2 2.98 2 4 2 C3.67 2.61875 3.34 3.2375 3 3.875 C1.85806765 5.91018344 1.85806765 5.91018344 2 8 C1.16666667 13.83333333 1.16666667 13.83333333 0 15 C0.66 15.33 1.32 15.66 2 16 C2.66 13.69 3.32 11.38 4 9 C4.33 9 4.66 9 5 9 C5.12375 9.78375 5.2475 10.5675 5.375 11.375 C5.79117993 14.14057822 5.79117993 14.14057822 8 16 C9.18354754 21.81910875 8.80440641 25.28604637 7 31 C6.07678831 36.2102046 5.79769154 40.78999667 7 46 C6.34 45.34 5.68 44.68 5 44 C5 45.32 5 46.64 5 48 C5.99 48 6.98 48 8 48 C7.67 48.99 7.34 49.98 7 51 C3.535 50.505 3.535 50.505 0 50 C0 49.01 0 48.02 0 47 C-0.66 47 -1.32 47 -2 47 C-2 46.34 -2 45.68 -2 45 C-3.485 45.495 -3.485 45.495 -5 46 C-4.855625 45.14019531 -4.71125 44.28039062 -4.5625 43.39453125 C-3.26982454 35.1627021 -2.75054503 27.34288303 -3 19 C-6.40091077 20.85961131 -7.87389654 21.79253947 -9.9375 25.1875 C-12 28 -12 28 -14.9375 28.75 C-19.25386375 27.69293133 -20.60996197 25.65535228 -23 22 C-23 20.68 -23 19.36 -23 18 C-23.66 18 -24.32 18 -25 18 C-25 17.34 -25 16.68 -25 16 C-21.62537285 16.54723683 -19.91765 17.0549 -17 19 C-16.01 18.01 -15.02 17.02 -14 16 C-14 17.65 -14 19.3 -14 21 C-12.9171875 19.9171875 -12.9171875 19.9171875 -11.8125 18.8125 C-9.94788757 16.94788757 -8.07294412 15.09354536 -6.1875 13.25 C-3.88382027 11.40351711 -3.88382027 11.40351711 -4 10 C-4.33 10 -4.66 10 -5 10 C-5 8.35 -5 6.7 -5 5 C-6.65 5.66 -8.3 6.32 -10 7 C-9.75 4.125 -9.75 4.125 -9 1 C-5.98775677 -1.47434266 -3.60050154 -1.16773023 0 0 Z " fill="#231611" transform="translate(66,41)"/>
<path d="M0 0 C0.78375 0.165 1.5675 0.33 2.375 0.5 C5.09522679 1.23945377 5.09522679 1.23945377 8 0 C10.04296875 0.55859375 10.04296875 0.55859375 12.1875 1.4375 C12.90292969 1.72496094 13.61835937 2.01242188 14.35546875 2.30859375 C14.89816406 2.53675781 15.44085938 2.76492188 16 3 C16 2.34 16 1.68 16 1 C17.36125 1.0309375 17.36125 1.0309375 18.75 1.0625 C21.84063578 1.15021023 21.84063578 1.15021023 24.0625 0.375 C26.99940735 -0.19343368 28.42558407 0.51971084 31 2 C33.3125 5.125 33.3125 5.125 35 8 C34.34 9.32 33.68 10.64 33 12 C32.938125 11.05125 32.87625 10.1025 32.8125 9.125 C32.4103125 7.578125 32.4103125 7.578125 32 6 C29.53744315 4.54708727 29.53744315 4.54708727 27 4 C27 4.66 27 5.32 27 6 C20.91528324 7.9214895 12.95741205 7.31851422 7.25 4.4375 C6.13625 3.7259375 6.13625 3.7259375 5 3 C4.9071875 4.051875 4.9071875 4.051875 4.8125 5.125 C3.73190608 8.94864004 1.62881265 11.05823346 -1 14 C-3.83611704 17.38152417 -5.35033146 20.91169101 -7 25 C-7.391875 25.969375 -7.78375 26.93875 -8.1875 27.9375 C-8.455625 28.618125 -8.72375 29.29875 -9 30 C-9.66 29.01 -10.32 28.02 -11 27 C-10.505 26.505 -10.505 26.505 -10 26 C-10.66 26 -11.32 26 -12 26 C-12.33 26.66 -12.66 27.32 -13 28 C-18.75 28.125 -18.75 28.125 -21 27 C-20.8453125 28.175625 -20.8453125 28.175625 -20.6875 29.375 C-21.06987816 33.81058663 -22.67255686 36.68298715 -24.80859375 40.53515625 C-26.02381814 43.04927622 -26.49079509 45.27047818 -27 48 C-29.87565928 52.07385065 -33.46522657 53.00669152 -38.07421875 54.2890625 C-40.19660691 54.82305062 -40.19660691 54.82305062 -41 57 C-45.09194801 58.41644354 -48.66708088 59.26260116 -53 59 C-52 56 -52 56 -49.62890625 54.67578125 C-48.61699219 54.22589844 -47.60507812 53.77601562 -46.5625 53.3125 C-35.50962905 47.94396268 -29.26145281 42.63021496 -25 31 C-23.5625 27.4375 -23.5625 27.4375 -22 25 C-18.875 23.8125 -18.875 23.8125 -16 23 C-15.505 21.515 -15.505 21.515 -15 20 C-10.87878788 16.88124488 -10.87878788 16.88124488 -7.6875 17.3125 C-7.130625 17.539375 -6.57375 17.76625 -6 18 C-6.33 16.35 -6.66 14.7 -7 13 C-6.01 13 -5.02 13 -4 13 C-4.495 11.02 -4.495 11.02 -5 9 C-4.34 8.67 -3.68 8.34 -3 8 C-3 7.34 -3 6.68 -3 6 C-2.34 5.67 -1.68 5.34 -1 5 C-1 3.68 -1 2.36 -1 1 C-0.67 0.67 -0.34 0.34 0 0 Z M0 1 C1 4 1 4 1 4 Z " fill="#E3E0D7" transform="translate(54,0)"/>
<path d="M0 0 C4.48174228 2.00905689 6.39435011 3.65703719 8.4375 8.1875 C9.09194825 12.6232048 8.46140361 14.5840364 6.28515625 18.390625 C5 20 5 20 2.375 21.125 C0 21 0 21 -2 19 C-2.33 20.65 -2.66 22.3 -3 24 C-2.01 24.33 -1.02 24.66 0 25 C0.33 25.99 0.66 26.98 1 28 C0.34 28 -0.32 28 -1 28 C-1 28.66 -1 29.32 -1 30 C-0.01 30.66 0.98 31.32 2 32 C1.34 32 0.68 32 0 32 C0.185625 32.7425 0.37125 33.485 0.5625 34.25 C0.99203108 36.94990963 0.85122974 38.44631077 0 41 C-0.66 41 -1.32 41 -2 41 C-2.08121094 40.40703125 -2.16242188 39.8140625 -2.24609375 39.203125 C-3.23118234 36.32442051 -4.59207507 35.47537614 -7.0625 33.75 C-7.79597656 33.22921875 -8.52945313 32.7084375 -9.28515625 32.171875 C-10.13400391 31.59179688 -10.13400391 31.59179688 -11 31 C-10.67 29.02 -10.34 27.04 -10 25 C-9.34 25 -8.68 25 -8 25 C-7.34 24.67 -6.68 24.34 -6 24 C-6 22.35 -6 20.7 -6 19 C-7.98 18.34 -9.96 17.68 -12 17 C-12 16.01 -12 15.02 -12 14 C-12.66386719 14.13277344 -13.32773438 14.26554687 -14.01171875 14.40234375 C-18.34114583 15.26822917 -22.67057292 16.13411458 -27 17 C-25.375 14 -25.375 14 -23 11 C-20 10.75 -20 10.75 -17 11 C-14.16777975 10.05592658 -13.27221172 9.46275992 -11.75 6.875 C-11.37875 5.946875 -11.37875 5.946875 -11 5 C-9.02 5 -7.04 5 -5 5 C-5 4.34 -5 3.68 -5 3 C-3.02 3 -1.04 3 1 3 C0.67 2.01 0.34 1.02 0 0 Z " fill="#444F56" transform="translate(80,3)"/>
<path d="M0 0 C0.66 0 1.32 0 2 0 C6 6.875 6 6.875 6 8 C8.97 8.495 8.97 8.495 12 9 C11.67 9.66 11.34 10.32 11 11 C10.95153418 12.36763357 10.96289981 13.73771388 11.0078125 15.10546875 C11.02457031 15.92466797 11.04132813 16.74386719 11.05859375 17.58789062 C11.1023716 19.30166459 11.15426721 21.01525318 11.21484375 22.72851562 C11.31059359 28.30376768 10.5670335 32.03393257 8 37 C7.67 37 7.34 37 7 37 C7.185625 35.824375 7.37125 34.64875 7.5625 33.4375 C8.08230996 29.38731406 7.7502354 26.00125547 7 22 C6.34 22 5.68 22 5 22 C4.67 20.68 4.34 19.36 4 18 C3.34 19.32 2.68 20.64 2 22 C0.68 21.34 -0.64 20.68 -2 20 C-1.484375 19.62875 -0.96875 19.2575 -0.4375 18.875 C1.36319983 16.96826848 1.36319983 16.96826848 0.6875 13.8125 C0.460625 12.884375 0.23375 11.95625 0 11 C0.66 11 1.32 11 2 11 C2 8.8979185 0.3045918 7.49096206 -1 6 C-3.09415804 5.20376178 -3.09415804 5.20376178 -5 5 C-5.33 5.99 -5.66 6.98 -6 8 C-6.99 7.67 -7.98 7.34 -9 7 C-9 8.65 -9 10.3 -9 12 C-7.68 11.67 -6.36 11.34 -5 11 C-4.67 12.32 -4.34 13.64 -4 15 C-3.34 14.67 -2.68 14.34 -2 14 C-3.1644982 18.94911734 -6.05153389 20.82068699 -10.02734375 23.5703125 C-11.88548035 24.9170016 -13.42801778 26.33438875 -15 28 C-15 26.68 -15 25.36 -15 24 C-15.99 24.66 -16.98 25.32 -18 26 C-18.2475 25.4225 -18.495 24.845 -18.75 24.25 C-19.9318612 21.86733113 -19.9318612 21.86733113 -22.125 19.9375 C-24 18 -24 18 -24 15 C-23.34 15 -22.68 15 -22 15 C-21.67 15.66 -21.34 16.32 -21 17 C-20.34 17 -19.68 17 -19 17 C-19 15.68 -19 14.36 -19 13 C-15.535 12.505 -15.535 12.505 -12 12 C-12.165 11.360625 -12.33 10.72125 -12.5 10.0625 C-13 8 -13 8 -13 7 C-13.66 7 -14.32 7 -15 7 C-14 5 -13 3 -12 1 C-11.01 1.33 -10.02 1.66 -9 2 C-8.01 1.67 -7.02 1.34 -6 1 C-2.8125 1.9375 -2.8125 1.9375 0 3 C0 2.01 0 1.02 0 0 Z " fill="#784516" transform="translate(66,35)"/>
<path d="M0 0 C5.73033708 4.58426966 5.73033708 4.58426966 7.5 7.3125 C8.95870909 9.26563261 8.95870909 9.26563261 11.8125 9.75 C16.18278264 8.7216982 17.28143328 6.4377257 19.60546875 2.75 C20.06566406 2.1725 20.52585937 1.595 21 1 C21.99 1 22.98 1 24 1 C26.07429364 21.35998991 26.07429364 21.35998991 21.9375 26.625 C21.298125 27.07875 20.65875 27.5325 20 28 C19.01 27.34 18.02 26.68 17 26 C17.99 26 18.98 26 20 26 C19.67 25.01 19.34 24.02 19 23 C19.33 22.67 19.66 22.34 20 22 C19.34 22 18.68 22 18 22 C17.34 22.99 16.68 23.98 16 25 C14.68 25 13.36 25 12 25 C11.67 25.33 11.34 25.66 11 26 C8.625 25.875 8.625 25.875 6 25 C3.12913211 21.38483303 2.14596581 17.42015386 1 13 C0.67 12.01 0.34 11.02 0 10 C0.165 9.030625 0.33 8.06125 0.5 7.0625 C0.96845456 4.1932158 0.93215166 2.69288256 0 0 Z " fill="#79876F" transform="translate(39,59)"/>
<path d="M0 0 C1.15955441 3.47866322 1 6.35001677 1 10 C1.495 11.485 1.495 11.485 2 13 C2.06712729 14.33180544 2.08522675 15.6666976 2.0625 17 C2.05347656 17.680625 2.04445312 18.36125 2.03515625 19.0625 C2.02355469 19.701875 2.01195312 20.34125 2 21 C2 23.62113708 2.31292445 25.50935112 3 28 C2.01 28.66 1.02 29.32 0 30 C0 30.66 0 31.32 0 32 C0.99 32 1.98 32 3 32 C4.22866894 40.19112628 4.22866894 40.19112628 3 44 C2.855625 45.175625 2.71125 46.35125 2.5625 47.5625 C2 51 2 51 0 54 C-2.625 54.1875 -2.625 54.1875 -5 54 C-4.38125 53.79375 -3.7625 53.5875 -3.125 53.375 C-0.79525444 52.10188034 -0.79525444 52.10188034 0.4375 49.4375 C1.20711495 44.73429751 0.02153311 41.25993566 -2 37 C-2.51820312 36.37867188 -3.03640625 35.75734375 -3.5703125 35.1171875 C-5.46964594 32.30451339 -5.50467836 30.11391817 -5.6875 26.75 C-5.75324219 25.67234375 -5.81898437 24.5946875 -5.88671875 23.484375 C-5.92410156 22.66453125 -5.96148438 21.8446875 -6 21 C-6.88300781 21.40992187 -7.76601563 21.81984375 -8.67578125 22.2421875 C-16.086523 25.56945931 -22.85697964 28.03613228 -31 29 C-31 27.02 -31 25.04 -31 23 C-30.67 23.66 -30.34 24.32 -30 25 C-27.0703125 24.21875 -27.0703125 24.21875 -24.140625 23.4375 C-22 23 -22 23 -18 23 C-17.67 22.01 -17.34 21.02 -17 20 C-13.67908998 18.29466783 -11.81507216 18 -8 18 C-7.566875 16.88625 -7.566875 16.88625 -7.125 15.75 C-6.17422601 13.42588579 -5.12145376 11.24290752 -4 9 C-3.28341854 7.42038246 -2.57513608 5.83697512 -1.875 4.25 C-1.34519531 3.05117188 -1.34519531 3.05117188 -0.8046875 1.828125 C-0.53914063 1.22484375 -0.27359375 0.6215625 0 0 Z " fill="#222526" transform="translate(31,34)"/>
<path d="M0 0 C0.33 0 0.66 0 1 0 C1.33 2.64 1.66 5.28 2 8 C3.32 8 4.64 8 6 8 C6.33 7.01 6.66 6.02 7 5 C7.66 5.33 8.32 5.66 9 6 C9 8.31 9 10.62 9 13 C9.556875 12.814375 10.11375 12.62875 10.6875 12.4375 C13.43512647 11.91767878 15.27571565 12.41622478 18 13 C19.9996441 13.03772913 22.00054061 13.04649906 24 13 C21.77810176 15.22189824 19.91517292 15.92598892 17 17 C17 17.33 17 17.66 17 18 C-10.60155285 19.96153167 -10.60155285 19.96153167 -19 16 C-20 15 -20 15 -20.0625 12.4375 C-20.041875 11.633125 -20.02125 10.82875 -20 10 C-15.46763094 8.98455119 -11.05577965 8.75591016 -6.42578125 8.57421875 C-3.83137171 8.25439676 -3.83137171 8.25439676 -2.66796875 5.95703125 C-2.44753906 5.31121094 -2.22710937 4.66539063 -2 4 C-1.34 4 -0.68 4 0 4 C0 2.68 0 1.36 0 0 Z " fill="#1B1C19" transform="translate(35,79)"/>
<path d="M0 0 C0 0.99 0 1.98 0 3 C2.31 3.66 4.62 4.32 7 5 C7 6.98 7 8.96 7 11 C6.34 11 5.68 11 5 11 C4.67 12.32 4.34 13.64 4 15 C3.67 14.67 3.34 14.34 3 14 C2.67 14.99 2.34 15.98 2 17 C4.97 18.98 7.94 20.96 11 23 C10.67 24.32 10.34 25.64 10 27 C8.02 27 6.04 27 4 27 C2.47551369 24.0173094 1.06059933 21.181798 0 18 C-0.66 18 -1.32 18 -2 18 C-2 18.66 -2 19.32 -2 20 C-4.5918086 19.5680319 -6.64305639 19.21650678 -8.90625 17.84375 C-10.98860631 16.74622923 -10.98860631 16.74622923 -13.140625 17.6796875 C-13.83671875 18.07414062 -14.5328125 18.46859375 -15.25 18.875 C-16.30960938 19.45894531 -16.30960938 19.45894531 -17.390625 20.0546875 C-17.92171875 20.36664063 -18.4528125 20.67859375 -19 21 C-18.34 19.02 -17.68 17.04 -17 15 C-18.50559539 16.96382007 -19.89131683 18.78263366 -21 21 C-21.66 20.67 -22.32 20.34 -23 20 C-22.51080078 19.22076172 -22.51080078 19.22076172 -22.01171875 18.42578125 C-19.63823632 14.63801135 -17.28224716 10.84378469 -15 7 C-10.96479403 8.58962659 -6.98188718 10.28232318 -3 12 C-2.90912109 11.06027344 -2.90912109 11.06027344 -2.81640625 10.1015625 C-2.73261719 9.28429688 -2.64882812 8.46703125 -2.5625 7.625 C-2.48128906 6.81289063 -2.40007812 6.00078125 -2.31640625 5.1640625 C-2 3 -2 3 -1 1 C-1.886875 1.474375 -2.77375 1.94875 -3.6875 2.4375 C-6.59227316 3.80767602 -8.8160907 4.73467423 -12 5 C-12.66 4.34 -13.32 3.68 -14 3 C-9.4871514 0.3964335 -5.15155902 0 0 0 Z " fill="#363131" transform="translate(68,17)"/>
<path d="M0 0 C0.66 0 1.32 0 2 0 C6 6.875 6 6.875 6 8 C8.97 8.495 8.97 8.495 12 9 C11.67 9.66 11.34 10.32 11 11 C10.95153418 12.36763357 10.96289981 13.73771388 11.0078125 15.10546875 C11.03294922 16.33426758 11.03294922 16.33426758 11.05859375 17.58789062 C11.1023716 19.30166459 11.15426721 21.01525318 11.21484375 22.72851562 C11.31059359 28.30376768 10.5670335 32.03393257 8 37 C7.67 37 7.34 37 7 37 C7.185625 35.824375 7.37125 34.64875 7.5625 33.4375 C8.08230996 29.38731406 7.7502354 26.00125547 7 22 C6.34 22 5.68 22 5 22 C4.67 20.68 4.34 19.36 4 18 C3.34 19.32 2.68 20.64 2 22 C0.68 21.34 -0.64 20.68 -2 20 C-1.484375 19.62875 -0.96875 19.2575 -0.4375 18.875 C1.36319983 16.96826848 1.36319983 16.96826848 0.6875 13.8125 C0.460625 12.884375 0.23375 11.95625 0 11 C0.66 11 1.32 11 2 11 C2.11323467 9.73899408 2.11323467 9.73899408 0.4375 8.3125 C-1 6 -1 6 -0.6875 2.75 C-0.460625 1.8425 -0.23375 0.935 0 0 Z " fill="#5D574D" transform="translate(66,35)"/>
<path d="M0 0 C1.32 0.66 2.64 1.32 4 2 C3.67 2.66 3.34 3.32 3 4 C3.33 4.99 3.66 5.98 4 7 C3.01 7.33 2.02 7.66 1 8 C1.2165625 8.86625 1.2165625 8.86625 1.4375 9.75 C1.95833333 11.83333333 2.47916667 13.91666667 3 16 C2.01 16.33 1.02 16.66 0 17 C0 17.66 0 18.32 0 19 C-0.66 18.67 -1.32 18.34 -2 18 C-1.814375 17.195625 -1.62875 16.39125 -1.4375 15.5625 C-1.293125 14.716875 -1.14875 13.87125 -1 13 C-1.33 12.67 -1.66 12.34 -2 12 C-3.57035335 14.49409061 -4.0274945 15.70443416 -3.75 18.6875 C-3.5025 19.450625 -3.255 20.21375 -3 21 C-2.34 21.33 -1.68 21.66 -1 22 C-1.226875 22.763125 -1.45375 23.52625 -1.6875 24.3125 C-1.790625 25.199375 -1.89375 26.08625 -2 27 C-0.62485459 28.7087646 -0.62485459 28.7087646 1 30 C1 30.66 1 31.32 1 32 C-5.59909326 28.70045337 -5.59909326 28.70045337 -7.3984375 24.29296875 C-9.18661771 17.47698315 -8.24750838 9.86129611 -7 3 C-4.69 3 -2.38 3 0 3 C0 2.01 0 1.02 0 0 Z " fill="#5A5547" transform="translate(41,24)"/>
<path d="M0 0 C0.33 0 0.66 0 1 0 C1.28444289 4.08430812 0.52809879 6.43630814 -1.4375 10 C-3.29468294 13.38631648 -4.29255666 16.21422213 -5 20 C-7.87565928 24.07385065 -11.46522657 25.00669152 -16.07421875 26.2890625 C-18.19660691 26.82305062 -18.19660691 26.82305062 -19 29 C-23.09194801 30.41644354 -26.66708088 31.26260116 -31 31 C-30 28 -30 28 -27.62890625 26.67578125 C-26.61699219 26.22589844 -25.60507812 25.77601562 -24.5625 25.3125 C-13.62645123 20.00070488 -7.07397267 14.664427 -3 3 C-2.34 3 -1.68 3 -1 3 C-0.67 2.01 -0.34 1.02 0 0 Z " fill="#9AA29A" transform="translate(32,28)"/>
<path d="M0 0 C1.0625 1.8125 1.0625 1.8125 2 4 C1.67 4.99 1.34 5.98 1 7 C0.88046231 8.97654185 0.82473804 10.95738456 0.8125 12.9375 C0.79832031 13.97777344 0.78414062 15.01804687 0.76953125 16.08984375 C0.99974113 18.9967312 1.62803357 20.48924721 3 23 C3 23.99 3 24.98 3 26 C3.61875 26.309375 4.2375 26.61875 4.875 26.9375 C6.25 27.625 7.625 28.3125 9 29 C7.68 27.02 6.36 25.04 5 23 C5.99 21.35 6.98 19.7 8 18 C8.33 18.66 8.66 19.32 9 20 C11.02463255 20.65213292 11.02463255 20.65213292 13 21 C13 22.32 13 23.64 13 25 C12.34 25 11.68 25 11 25 C11 24.34 11 23.68 11 23 C10.34 23 9.68 23 9 23 C10.24976756 26.65316671 10.67098753 27.78065836 14 30 C13.67 30.66 13.34 31.32 13 32 C10.525 31.01 10.525 31.01 8 30 C8 30.66 8 31.32 8 32 C8.66 32 9.32 32 10 32 C9.67 32.99 9.34 33.98 9 35 C8.34 34.67 7.68 34.34 7 34 C6.34 35.32 5.68 36.64 5 38 C4.34 38 3.68 38 3 38 C2.54625 37.05125 2.0925 36.1025 1.625 35.125 C0.19761746 31.99686321 0.19761746 31.99686321 -2 30 C-1.67 29.34 -1.34 28.68 -1 28 C-0.78622279 22.39296787 -0.78622279 22.39296787 -2 17 C-2.36170273 11.09218872 -1.2902392 5.72543644 0 0 Z " fill="#0F0B0B" transform="translate(33,27)"/>
<path d="M0 0 C0 0.99 0 1.98 0 3 C-0.99 3.495 -0.99 3.495 -2 4 C-1.67 4.99 -1.34 5.98 -1 7 C0.32 7 1.64 7 3 7 C2.625 9.375 2.625 9.375 1 12 C-4.99616 14.34436331 -10.7814993 14.1515742 -17 13 C-17.33 10.69 -17.66 8.38 -18 6 C-13.25 4.875 -13.25 4.875 -11 6 C-11.33 5.01 -11.66 4.02 -12 3 C-11.34 3 -10.68 3 -10 3 C-10 3.66 -10 4.32 -10 5 C-8.05925139 4.72382467 -8.05925139 4.72382467 -6 4 C-5.34 3.01 -4.68 2.02 -4 1 C-1.875 0.3125 -1.875 0.3125 0 0 Z " fill="#9D7D5E" transform="translate(61,79)"/>
<path d="M0 0 C0.99 0 1.98 0 3 0 C5.07429364 20.35998991 5.07429364 20.35998991 0.9375 25.625 C0.298125 26.07875 -0.34125 26.5325 -1 27 C-1.99 26.34 -2.98 25.68 -4 25 C-3.01 25 -2.02 25 -1 25 C-1.33 24.01 -1.66 23.02 -2 22 C-1.67 21.67 -1.34 21.34 -1 21 C-1.66 20.34 -2.32 19.68 -3 19 C-1.68 18.34 -0.36 17.68 1 17 C0.67 15.68 0.34 14.36 0 13 C0.66 13 1.32 13 2 13 C1.01 12.01 0.02 11.02 -1 10 C-3.09506252 13.44708859 -3.09506252 13.44708859 -5 17 C-6.32 16.67 -7.64 16.34 -9 16 C-9 15.34 -9 14.68 -9 14 C-8.34 14 -7.68 14 -7 14 C-6.67 13.01 -6.34 12.02 -6 11 C-7.32 10.67 -8.64 10.34 -10 10 C-9.2575 9.62875 -8.515 9.2575 -7.75 8.875 C-4.51812844 6.67145121 -3.01810606 4.31545996 -1 1 C-0.67 0.67 -0.34 0.34 0 0 Z " fill="#8EA383" transform="translate(60,60)"/>
<path d="M0 0 C3.37462715 0.54723683 5.08235 1.0549 8 3 C8.99 2.01 9.98 1.02 11 0 C11 1.65 11 3.3 11 5 C12.65 3.35 14.3 1.7 16 0 C18.31 0.66 20.62 1.32 23 2 C22.67 2.66 22.34 3.32 22 4 C21.36835937 4.13277344 20.73671875 4.26554687 20.0859375 4.40234375 C17.38504122 5.17619606 16.99016397 6.16620154 15.625 8.5625 C13.37875118 11.89742155 13.37875118 11.89742155 10 12.8125 C5.76468053 11.66543431 4.36312463 9.61419061 2 6 C2 4.68 2 3.36 2 2 C1.34 2 0.68 2 0 2 C0 1.34 0 0.68 0 0 Z " fill="#41230F" transform="translate(41,57)"/>
<path d="M0 0 C0.78375 0.165 1.5675 0.33 2.375 0.5 C5.09522679 1.23945377 5.09522679 1.23945377 8 0 C10.04296875 0.55859375 10.04296875 0.55859375 12.1875 1.4375 C12.90292969 1.72496094 13.61835937 2.01242188 14.35546875 2.30859375 C14.89816406 2.53675781 15.44085938 2.76492188 16 3 C16 2.34 16 1.68 16 1 C17.36125 1.0309375 17.36125 1.0309375 18.75 1.0625 C21.84063578 1.15021023 21.84063578 1.15021023 24.0625 0.375 C26.99940735 -0.19343368 28.42558407 0.51971084 31 2 C33.3125 5.125 33.3125 5.125 35 8 C34.34 9.32 33.68 10.64 33 12 C32.938125 11.05125 32.87625 10.1025 32.8125 9.125 C32.544375 8.09375 32.27625 7.0625 32 6 C29.53744315 4.54708727 29.53744315 4.54708727 27 4 C27 4.66 27 5.32 27 6 C20.91528324 7.9214895 12.95741205 7.31851422 7.25 4.4375 C6.5075 3.963125 5.765 3.48875 5 3 C4.67 3.99 4.34 4.98 4 6 C3.67 5.34 3.34 4.68 3 4 C1.68 4.33 0.36 4.66 -1 5 C-1 1 -1 1 0 0 Z M0 1 C1 4 1 4 1 4 Z " fill="#C5BBB9" transform="translate(54,0)"/>
<path d="M0 0 C2.475 0.495 2.475 0.495 5 1 C4.01 1.495 4.01 1.495 3 2 C2.896875 2.763125 2.79375 3.52625 2.6875 4.3125 C1.72888807 8.0598012 0.2320642 8.91768196 -3 11 C-5.79550056 11.59622346 -8.30600892 12.00353083 -11.125 12.25 C-11.84042969 12.32734375 -12.55585937 12.4046875 -13.29296875 12.484375 C-16.20755428 12.78945311 -19.06834136 13 -22 13 C-17.66775244 8.04885993 -17.66775244 8.04885993 -14.4375 7.8125 C-13.633125 7.874375 -12.82875 7.93625 -12 8 C-9.20917138 7.04314447 -8.25755082 6.4378364 -6.75 3.875 C-6.5025 3.25625 -6.255 2.6375 -6 2 C-4.02 2 -2.04 2 0 2 C0 1.34 0 0.68 0 0 Z " fill="#7D8586" transform="translate(75,6)"/>
<path d="M0 0 C4.875 0.875 4.875 0.875 6 2 C7.68183948 2.23287008 9.3712416 2.41264166 11.0625 2.5625 C12.44115234 2.68818359 12.44115234 2.68818359 13.84765625 2.81640625 C14.91306641 2.90728516 14.91306641 2.90728516 16 3 C16 3.99 16 4.98 16 6 C14.02 6 12.04 6 10 6 C9.34 7.65 8.68 9.3 8 11 C7.01 11 6.02 11 5 11 C4.67 11.33 4.34 11.66 4 12 C1.66702567 12.04092937 -0.66705225 12.04241723 -3 12 C-3.6875 9.75 -3.6875 9.75 -4 7 C-2.625 4.875 -2.625 4.875 -1 3 C-0.67 2.01 -0.34 1.02 0 0 Z " fill="#180D0C" transform="translate(59,3)"/>
<path d="M0 0 C0.66 0.33 1.32 0.66 2 1 C3.33059914 4.99179743 2.81502739 7.26317891 1 11 C0.67 10.01 0.34 9.02 0 8 C-0.88300781 8.40992188 -1.76601563 8.81984375 -2.67578125 9.2421875 C-10.086523 12.56945931 -16.85697964 15.03613228 -25 16 C-25 14.02 -25 12.04 -25 10 C-24.67 10.66 -24.34 11.32 -24 12 C-22.046875 11.47916667 -20.09375 10.95833333 -18.140625 10.4375 C-16 10 -16 10 -12 10 C-11.67 9.01 -11.34 8.02 -11 7 C-7.67908998 5.29466783 -5.81507216 5 -2 5 C-1.34 3.35 -0.68 1.7 0 0 Z " fill="#655D48" transform="translate(25,47)"/>
<path d="M0 0 C0.66 0 1.32 0 2 0 C2 1.65 2 3.3 2 5 C2.99 5.33 3.98 5.66 5 6 C5.33 6.99 5.66 7.98 6 9 C5.34 9 4.68 9 4 9 C4 9.66 4 10.32 4 11 C4.99 11.66 5.98 12.32 7 13 C6.34 13 5.68 13 5 13 C5.185625 13.7425 5.37125 14.485 5.5625 15.25 C5.99203108 17.94990963 5.85122974 19.44631077 5 22 C4.34 22 3.68 22 3 22 C2.87818359 21.11054687 2.87818359 21.11054687 2.75390625 20.203125 C1.76881766 17.32442051 0.40792493 16.47537614 -2.0625 14.75 C-3.16271484 13.96882813 -3.16271484 13.96882813 -4.28515625 13.171875 C-4.85105469 12.78515625 -5.41695313 12.3984375 -6 12 C-5.67 10.02 -5.34 8.04 -5 6 C-4.34 6 -3.68 6 -3 6 C-2.34 5.67 -1.68 5.34 -1 5 C-0.34444881 2.47266765 -0.34444881 2.47266765 0 0 Z " fill="#C3A99B" transform="translate(75,22)"/>
<path d="M0 0 C0.66 0.33 1.32 0.66 2 1 C2.2475 1.928125 2.495 2.85625 2.75 3.8125 C3.98955209 6.97335782 4.9607964 8.4369452 7.87109375 10.1875 C12.6802309 12.02291381 17.91333493 12.42642946 23 13 C23 13.33 23 13.66 23 14 C10.08870197 17.01892564 10.08870197 17.01892564 4 16 C1.49608404 14.24725883 0.45755335 12.98549952 -0.8125 10.25 C-1.10436489 6.74762135 -0.52083511 3.47223407 0 0 Z " fill="#A08F66" transform="translate(72,72)"/>
<path d="M0 0 C9.04109589 7.19178082 9.04109589 7.19178082 10.875 12.5625 C11.01737644 15.33884066 10.4648776 16.67342969 9 19 C7.35 18.67 5.7 18.34 4 18 C3.67 18.66 3.34 19.32 3 20 C2.690625 18.906875 2.38125 17.81375 2.0625 16.6875 C1.41662103 14.44592006 0.7376883 12.2130649 0 10 C0.165 9.030625 0.33 8.06125 0.5 7.0625 C0.96845456 4.1932158 0.93215166 2.69288256 0 0 Z " fill="#8D9F84" transform="translate(39,59)"/>
<path d="M0 0 C0.66 0 1.32 0 2 0 C2 0.99 2 1.98 2 3 C1.01 3.66 0.02 4.32 -1 5 C-1 5.66 -1 6.32 -1 7 C-0.01 7 0.98 7 2 7 C3.22866894 15.19112628 3.22866894 15.19112628 2 19 C1.7834375 20.7634375 1.7834375 20.7634375 1.5625 22.5625 C1 26 1 26 -1 29 C-3.625 29.1875 -3.625 29.1875 -6 29 C-5.38125 28.79375 -4.7625 28.5875 -4.125 28.375 C-1.79525444 27.10188034 -1.79525444 27.10188034 -0.5625 24.4375 C0.21218912 19.70328871 -1.01751337 16.30364806 -3 12 C-3.556875 11.278125 -4.11375 10.55625 -4.6875 9.8125 C-6.56034995 7.2261834 -6.21157872 5.10315453 -6 2 C-4.02 1.67 -2.04 1.34 0 1 C0 0.67 0 0.34 0 0 Z " fill="#473F35" transform="translate(32,59)"/>
<path d="M0 0 C1.23556641 0.01740234 1.23556641 0.01740234 2.49609375 0.03515625 C3.32238281 0.04417969 4.14867187 0.05320312 5 0.0625 C5.63808594 0.07410156 6.27617187 0.08570312 6.93359375 0.09765625 C7.26359375 1.08765625 7.59359375 2.07765625 7.93359375 3.09765625 C9.11470107 4.73151634 9.11470107 4.73151634 10.49609375 6.28515625 C11.30046875 7.21328125 12.10484375 8.14140625 12.93359375 9.09765625 C6.87985271 10.48497191 3.60057609 9.63802765 -2.06640625 7.09765625 C-3.06640625 6.09765625 -3.06640625 6.09765625 -3.19140625 3.59765625 C-3.01865637 0.14265862 -3.01865637 0.14265862 0 0 Z " fill="#2B3626" transform="translate(18.06640625,87.90234375)"/>
<path d="M0 0 C0 0.99 0 1.98 0 3 C2.31 3.66 4.62 4.32 7 5 C7 6.98 7 8.96 7 11 C4.36 10.34 1.72 9.68 -1 9 C-0.67 9.99 -0.34 10.98 0 12 C-0.66 12 -1.32 12 -2 12 C-2.0270043 10.54176788 -2.04639787 9.08339325 -2.0625 7.625 C-2.07410156 6.81289063 -2.08570312 6.00078125 -2.09765625 5.1640625 C-2 3 -2 3 -1 1 C-1.886875 1.474375 -2.77375 1.94875 -3.6875 2.4375 C-6.59227316 3.80767602 -8.8160907 4.73467423 -12 5 C-12.66 4.34 -13.32 3.68 -14 3 C-9.4871514 0.3964335 -5.15155902 0 0 0 Z " fill="#0F0706" transform="translate(68,17)"/>
<path d="M0 0 C2.475 0.99 2.475 0.99 5 2 C4.67 2.66 4.34 3.32 4 4 C3.01 3.34 2.02 2.68 1 2 C0.773125 2.66 0.54625 3.32 0.3125 4 C-0.82568815 6.60157293 -2.04466726 8.60505423 -3.625 10.9375 C-5.87772503 14.41898414 -6.52715062 16.78279508 -6 21 C-7.65 20.67 -9.3 20.34 -11 20 C-10.34 18.68 -9.68 17.36 -9 16 C-9.66 15.01 -10.32 14.02 -11 13 C-11.125 9.8125 -11.125 9.8125 -11 7 C-10.67 7.99 -10.34 8.98 -10 10 C-9.05125 9.236875 -8.1025 8.47375 -7.125 7.6875 C-6.59132813 7.25824219 -6.05765625 6.82898438 -5.5078125 6.38671875 C-3.74707893 4.87729455 -3.74707893 4.87729455 -2 2 C-1.34 2 -0.68 2 0 2 C0 1.34 0 0.68 0 0 Z " fill="#2C2F2C" transform="translate(52,22)"/>
<path d="M0 0 C4.17122846 1.0976917 5.2779278 2.37356736 7.5625 5.9375 C6.64017578 5.7209375 6.64017578 5.7209375 5.69921875 5.5 C4.89097656 5.314375 4.08273438 5.12875 3.25 4.9375 C2.44949219 4.751875 1.64898437 4.56625 0.82421875 4.375 C-1.54445938 3.84254177 -1.54445938 3.84254177 -4.4375 3.9375 C-5.95850023 5.45850023 -7.15773232 7.21259574 -8.4375 8.9375 C-7.7775 8.9375 -7.1175 8.9375 -6.4375 8.9375 C-6.4375 8.2775 -6.4375 7.6175 -6.4375 6.9375 C-5.7775 7.2675 -5.1175 7.5975 -4.4375 7.9375 C-4.685 8.8346875 -4.685 8.8346875 -4.9375 9.75 C-5.5489124 12.05094336 -5.5489124 12.05094336 -5.4375 14.9375 C-7.4175 14.9375 -9.3975 14.9375 -11.4375 14.9375 C-11.7675 13.9475 -12.0975 12.9575 -12.4375 11.9375 C-11.7775 11.2775 -11.1175 10.6175 -10.4375 9.9375 C-10.7560177 7.82929203 -10.7560177 7.82929203 -11.4375 5.9375 C-4.02434055 -0.07316983 -4.02434055 -0.07316983 0 0 Z " fill="#482A11" transform="translate(59.4375,33.0625)"/>
<path d="M0 0 C0.66 0 1.32 0 2 0 C5.39727127 7.19422151 5.39727127 7.19422151 4.484375 11.34375 C2.9525747 14.69912208 1.88098634 16.58153149 -1.5 18.1875 C-4.54038601 17.95947105 -5.79083538 17.04552279 -8 15 C-7.67 13.68 -7.34 12.36 -7 11 C-7 11.99 -7 12.98 -7 14 C-4.69 14 -2.38 14 0 14 C0.33 12.68 0.66 11.36 1 10 C-0.32 9.67 -1.64 9.34 -3 9 C-3.66 10.32 -4.32 11.64 -5 13 C-5.33 11.68 -5.66 10.36 -6 9 C-3.69 8.01 -1.38 7.02 1 6 C0.67 4.02 0.34 2.04 0 0 Z " fill="#BA9272" transform="translate(84,6)"/>
<path d="M0 0 C1.85776765 3.13498292 2.20140476 5.37471432 2 9 C-2.65537356 9.92092281 -7.14685433 10.12205997 -11.875 10.0625 C-12.90753906 10.05573242 -12.90753906 10.05573242 -13.9609375 10.04882812 C-15.64066335 10.03716336 -17.32034375 10.01923271 -19 10 C-19 9.67 -19 9.34 -19 9 C-18.071875 8.87625 -17.14375 8.7525 -16.1875 8.625 C-12.86074765 8.18466918 -12.86074765 8.18466918 -10 6 C-7.5750834 4.94298507 -5.34920495 4.06790096 -2.75 3.5625 C-1.88375 3.2840625 -1.88375 3.2840625 -1 3 C-0.67 2.01 -0.34 1.02 0 0 Z " fill="#3F3026" transform="translate(63,88)"/>
<path d="M0 0 C1.9375 0.625 1.9375 0.625 4 2 C4.75 5.125 4.75 5.125 5 8 C4.34 8 3.68 8 3 8 C2.67 8.99 2.34 9.98 2 11 C-1.0625 12.6875 -1.0625 12.6875 -4 14 C-3.34 12.02 -2.68 10.04 -2 8 C-3.50559539 9.96382007 -4.89131683 11.78263366 -6 14 C-6.66 13.67 -7.32 13.34 -8 13 C-7.67386719 12.48050781 -7.34773438 11.96101563 -7.01171875 11.42578125 C-4.63823632 7.63801135 -2.28224716 3.84378469 0 0 Z " fill="#83755C" transform="translate(53,24)"/>
<path d="M0 0 C0.66 0 1.32 0 2 0 C2 4.95 2 9.9 2 15 C2.99 15 3.98 15 5 15 C4.67 15.99 4.34 16.98 4 18 C1.69 17.67 -0.62 17.34 -3 17 C-4.53166168 12.91556885 -3.63081652 9.20544343 -3 5 C-2.01 5 -1.02 5 0 5 C0 3.35 0 1.7 0 0 Z " fill="#3A3026" transform="translate(69,74)"/>
<path d="M0 0 C0.33 0 0.66 0 1 0 C1.33 2.64 1.66 5.28 2 8 C3.32 8 4.64 8 6 8 C6.33 7.01 6.66 6.02 7 5 C7.66 5.33 8.32 5.66 9 6 C8.125 12.875 8.125 12.875 7 14 C4.32941149 14.14115161 1.67567762 14.04247107 -1 14 C-1.33 13.34 -1.66 12.68 -2 12 C-3.32 12.33 -4.64 12.66 -6 13 C-5.195625 12.154375 -4.39125 11.30875 -3.5625 10.4375 C-0.78371338 7.1484842 -0.25882224 4.31370396 0 0 Z " fill="#3B3A36" transform="translate(35,79)"/>
<path d="M0 0 C0.33 0.66 0.66 1.32 1 2 C1.99 2 2.98 2 4 2 C3.34 3.32 2.68 4.64 2 6 C0.35 6 -1.3 6 -3 6 C-3.33 7.32 -3.66 8.64 -4 10 C-4.33 10 -4.66 10 -5 10 C-5 8.35 -5 6.7 -5 5 C-6.65 5.66 -8.3 6.32 -10 7 C-9.75 4.125 -9.75 4.125 -9 1 C-5.98775677 -1.47434266 -3.60050154 -1.16773023 0 0 Z " fill="#3A2716" transform="translate(66,41)"/>
<path d="M0 0 C0.33 0 0.66 0 1 0 C1.12375 0.78375 1.2475 1.5675 1.375 2.375 C1.79117993 5.14057822 1.79117993 5.14057822 4 7 C4.125 10.625 4.125 10.625 4 14 C2.02 14.66 0.04 15.32 -2 16 C-3.70701221 10.10304872 -1.95193635 5.58011183 0 0 Z " fill="#160A07" transform="translate(70,50)"/>
<path d="M0 0 C0.78375 0.165 1.5675 0.33 2.375 0.5 C5.09522679 1.23945377 5.09522679 1.23945377 8 0 C10.04296875 0.55859375 10.04296875 0.55859375 12.1875 1.4375 C12.90292969 1.72496094 13.61835937 2.01242188 14.35546875 2.30859375 C14.89816406 2.53675781 15.44085938 2.76492188 16 3 C16 2.34 16 1.68 16 1 C16.99 1.33 17.98 1.66 19 2 C19.33 2.99 19.66 3.98 20 5 C14.05542387 6.09644404 10.32006564 6.41029848 5 3 C4.67 3.99 4.34 4.98 4 6 C3.67 5.34 3.34 4.68 3 4 C1.68 4.33 0.36 4.66 -1 5 C-1 1 -1 1 0 0 Z M0 1 C1 4 1 4 1 4 Z " fill="#E0C5BC" transform="translate(54,0)"/>
<path d="M0 0 C2.31 0.66 4.62 1.32 7 2 C6.67 2.66 6.34 3.32 6 4 C5.05833984 4.19916016 5.05833984 4.19916016 4.09765625 4.40234375 C1.39076049 5.17358221 0.88328297 6.20057733 -0.5625 8.5625 C-1.75390625 10.50390625 -1.75390625 10.50390625 -3 12 C-3.99 12 -4.98 12 -6 12 C-6.3125 9.3125 -6.3125 9.3125 -6 6 C-3.5625 3.1875 -3.5625 3.1875 -1 1 C-0.67 0.67 -0.34 0.34 0 0 Z " fill="#452811" transform="translate(57,57)"/>
<path d="M0 0 C0.66 0 1.32 0 2 0 C6 6.875 6 6.875 6 8 C8.97 8.495 8.97 8.495 12 9 C11.01 9.495 11.01 9.495 10 10 C10 12.31 10 14.62 10 17 C9.01 16.67 8.02 16.34 7 16 C5.93097061 13.69747517 4.92824183 11.3627974 4 9 C3.67 8.67 3.34 8.34 3 8 C2.34 8.66 1.68 9.32 1 10 C-1.42857143 3.71428571 -1.42857143 3.71428571 0 0 Z " fill="#988A6D" transform="translate(66,35)"/>
<path d="M0 0 C0.66 0.33 1.32 0.66 2 1 C1.49325789 5.43399343 -0.10511369 7.66649455 -3 11 C-3.99 12.485 -3.99 12.485 -5 14 C-5.99 14 -6.98 14 -8 14 C-8.33 12.68 -8.66 11.36 -9 10 C-8.01 10 -7.02 10 -6 10 C-6.33 8.68 -6.66 7.36 -7 6 C-6.34 5.67 -5.68 5.34 -5 5 C-5 4.34 -5 3.68 -5 3 C-3.35 2.67 -1.7 2.34 0 2 C0 1.34 0 0.68 0 0 Z " fill="#A8978F" transform="translate(56,3)"/>
<path d="M0 0 C0.66 1.32 1.32 2.64 2 4 C0.741875 4.185625 -0.51625 4.37125 -1.8125 4.5625 C-2.87404297 4.71912109 -2.87404297 4.71912109 -3.95703125 4.87890625 C-6 5 -6 5 -9 4 C-10.72795352 3.93197033 -12.45835365 3.91504355 -14.1875 3.9375 C-15.08855469 3.94652344 -15.98960938 3.95554687 -16.91796875 3.96484375 C-17.94857422 3.98224609 -17.94857422 3.98224609 -19 4 C-19 3.67 -19 3.34 -19 3 C-12.49577707 0.99134292 -6.8218683 -0.38614349 0 0 Z " fill="#242A11" transform="translate(98,86)"/>
<path d="M0 0 C2 3.875 2 3.875 2 5 C-0.64 5.66 -3.28 6.32 -6 7 C-5.67 7.99 -5.34 8.98 -5 10 C-4.34 9.01 -3.68 8.02 -3 7 C-1.35 7.33 0.3 7.66 2 8 C1.67 9.65 1.34 11.3 1 13 C-1.64 12.67 -4.28 12.34 -7 12 C-7 12.66 -7 13.32 -7 14 C-7.66 14 -8.32 14 -9 14 C-9.4375 11.3125 -9.4375 11.3125 -9 8 C-6.92559199 5.89292415 -4.62929661 4.34439148 -2 3 C-1.34 3 -0.68 3 0 3 C0 2.01 0 1.02 0 0 Z " fill="#30150E" transform="translate(84,8)"/>
<path d="M0 0 C1.32 0.66 2.64 1.32 4 2 C3.67 2.66 3.34 3.32 3 4 C3.33 4.99 3.66 5.98 4 7 C3.01 7.33 2.02 7.66 1 8 C0.01 9.485 0.01 9.485 -1 11 C-1.99 9.35 -2.98 7.7 -4 6 C-4.99 8.97 -5.98 11.94 -7 15 C-7.33 15 -7.66 15 -8 15 C-7.67 11.04 -7.34 7.08 -7 3 C-4.69 3 -2.38 3 0 3 C0 2.01 0 1.02 0 0 Z " fill="#858C88" transform="translate(41,24)"/>
<path d="M0 0 C0.66 1.32 1.32 2.64 2 4 C3.32 3.01 4.64 2.02 6 1 C6.93423645 4.01031744 7.04449911 4.86650268 6 8 C5.34 8 4.68 8 4 8 C4 8.99 4 9.98 4 11 C3.01 10.67 2.02 10.34 1 10 C0.67 8.35 0.34 6.7 0 5 C-0.99 5 -1.98 5 -3 5 C-3.33 4.01 -3.66 3.02 -4 2 C-2.68 1.34 -1.36 0.68 0 0 Z " fill="#2B1A11" transform="translate(34,61)"/>
<path d="M0 0 C0.99 0.33 1.98 0.66 3 1 C3.99 0.67 4.98 0.34 6 0 C8.6875 0.9375 8.6875 0.9375 11 2 C11 2.66 11 3.32 11 4 C9.68 4 8.36 4 7 4 C6.67 4.99 6.34 5.98 6 7 C5.01 6.67 4.02 6.34 3 6 C2.67 6.66 2.34 7.32 2 8 C1.34 8 0.68 8 0 8 C-0.33 6.68 -0.66 5.36 -1 4 C-1 4.66 -1 5.32 -1 6 C-1.66 6 -2.32 6 -3 6 C-2 4 -1 2 0 0 Z " fill="#7F4D1C" transform="translate(54,36)"/>
<path d="M0 0 C0.66 0.33 1.32 0.66 2 1 C1.5359375 2.4540625 1.5359375 2.4540625 1.0625 3.9375 C-0.75149431 10.33830851 -1.51036389 16.45508983 0 23 C-2.80390987 20.19609013 -2.66520791 17.88358829 -3 14 C-2.5625 11.5625 -2.5625 11.5625 -2 10 C-2.66 10 -3.32 10 -4 10 C-4 7.36 -4 4.72 -4 2 C-2.125 0.9375 -2.125 0.9375 0 0 Z " fill="#321B0D" transform="translate(73,64)"/>
<path d="M0 0 C0.99 0.66 1.98 1.32 3 2 C3 2.66 3 3.32 3 4 C2.34 4 1.68 4 1 4 C1.33 5.32 1.66 6.64 2 8 C-0.97 10.475 -0.97 10.475 -4 13 C-4.66 12.34 -5.32 11.68 -6 11 C-6 10.01 -6 9.02 -6 8 C-5.34 8 -4.68 8 -4 8 C-3.71125 7.05125 -3.4225 6.1025 -3.125 5.125 C-2 2 -2 2 0 0 Z " fill="#768A70" transform="translate(59,69)"/>
<path d="M0 0 C0.66 0.33 1.32 0.66 2 1 C2.433125 2.36125 2.433125 2.36125 2.875 3.75 C4.07003695 7.20232897 5.68361329 9.22033595 8 12 C8 12.66 8 13.32 8 14 C5.23723823 13.47731534 2.6739124 12.89130413 0 12 C-1.8066225 8.23620313 -0.59379272 3.95861815 0 0 Z " fill="#988C6C" transform="translate(72,72)"/>
<path d="M0 0 C1.5625 1.125 1.5625 1.125 3 3 C2.9375 6.0625 2.9375 6.0625 2 9 C-0.0625 10.375 -0.0625 10.375 -2 11 C-1.34 11.33 -0.68 11.66 0 12 C-1.8125 12.625 -1.8125 12.625 -4 13 C-4.99 12.34 -5.98 11.68 -7 11 C-5.69791667 9.56770833 -4.39583333 8.13541667 -3.09375 6.703125 C-1.63975508 4.77639485 -1.63975508 4.77639485 -2 1 C-1.34 0.67 -0.68 0.34 0 0 Z " fill="#0A0505" transform="translate(65,46)"/>
<path d="M0 0 C0.825 0.639375 1.65 1.27875 2.5 1.9375 C6.23191406 4.46413081 9.55723303 4.69360228 14 5 C14 5.33 14 5.66 14 6 C16.31 6 18.62 6 21 6 C21.33 6.66 21.66 7.32 22 8 C14.08 8.495 14.08 8.495 6 9 C5.67 8.34 5.34 7.68 5 7 C2.97536745 6.34786708 2.97536745 6.34786708 1 6 C0.67 4.02 0.34 2.04 0 0 Z " fill="#736551" transform="translate(70,83)"/>
<path d="M0 0 C3.465 1.485 3.465 1.485 7 3 C7.33 2.34 7.66 1.68 8 1 C10.0625 3.125 10.0625 3.125 12 6 C11.75 9.3125 11.75 9.3125 11 12 C10.34 12 9.68 12 9 12 C8.91878906 11.40445313 8.83757812 10.80890625 8.75390625 10.1953125 C7.76831001 7.32533797 6.42804348 6.55293229 3.9375 4.875 C1.71484375 3.3671875 1.71484375 3.3671875 0 2 C0 1.34 0 0.68 0 0 Z " fill="#9C7D6C" transform="translate(69,32)"/>
<path d="M0 0 C0.66 0.33 1.32 0.66 2 1 C2 1.99 2 2.98 2 4 C1.34 4 0.68 4 0 4 C-0.2475 4.66 -0.495 5.32 -0.75 6 C-1.76225375 8.42940901 -2.80797541 10.81160345 -3.9375 13.1875 C-4.25589844 13.86167969 -4.57429688 14.53585938 -4.90234375 15.23046875 C-6 17 -6 17 -9 19 C-8.10619878 11.8495902 -4.05156747 5.78795353 0 0 Z " fill="#636560" transform="translate(54,11)"/>
<path d="M0 0 C0.928125 0.20625 1.85625 0.4125 2.8125 0.625 C1.47916667 3.95833333 0.14583333 7.29166667 -1.1875 10.625 C-1.8475 9.635 -2.5075 8.645 -3.1875 7.625 C-2.8575 7.295 -2.5275 6.965 -2.1875 6.625 C-3.1775 5.944375 -3.1775 5.944375 -4.1875 5.25 C-4.8475 4.71375 -5.5075 4.1775 -6.1875 3.625 C-6.1875 2.965 -6.1875 2.305 -6.1875 1.625 C-3.1875 -0.375 -3.1875 -0.375 0 0 Z " fill="#B6B4B1" transform="translate(46.1875,19.375)"/>
<path d="M0 0 C-0.33 2.97 -0.66 5.94 -1 9 C-5.35535069 7.83857315 -7.64619703 6.92300495 -10 3 C-8.70990357 2.49596232 -7.41786211 1.99690074 -6.125 1.5 C-5.04605469 1.08234375 -5.04605469 1.08234375 -3.9453125 0.65625 C-2 0 -2 0 0 0 Z " fill="#743830" transform="translate(67,18)"/>
<path d="M0 0 C2.0625 2.3125 2.0625 2.3125 4 5 C3.67 5.99 3.34 6.98 3 8 C2.34 7.67 1.68 7.34 1 7 C0.67 8.32 0.34 9.64 0 11 C-1.65 11 -3.3 11 -5 11 C-5 8.36 -5 5.72 -5 3 C-4.34 4.32 -3.68 5.64 -3 7 C-1.25372522 4.38058783 -0.61277612 2.96175123 0 0 Z " fill="#23201E" transform="translate(41,77)"/>
<path d="M0 0 C0 3.99711412 -1.32141544 5.1042329 -4 8 C-5.64142963 9.0409066 -7.30712215 10.04504326 -9 11 C-10.75149165 12.58245275 -10.75149165 12.58245275 -12 14 C-11.49287967 10.28111761 -10.88391785 7.26545761 -9 4 C-8.34 4 -7.68 4 -7 4 C-7 4.66 -7 5.32 -7 6 C-6.01 6 -5.02 6 -4 6 C-3.566875 5.071875 -3.566875 5.071875 -3.125 4.125 C-2 2 -2 2 0 0 Z " fill="#9B642B" transform="translate(63,49)"/>
<path d="M0 0 C0 0.99 0 1.98 0 3 C-0.99 3.495 -0.99 3.495 -2 4 C-1.11785113 6.88214887 -1.11785113 6.88214887 0 9 C-3.63 9 -7.26 9 -11 9 C-9.625 6.5 -9.625 6.5 -8 4 C-7.34 4 -6.68 4 -6 4 C-5.34 3.01 -4.68 2.02 -4 1 C-1.875 0.3125 -1.875 0.3125 0 0 Z " fill="#7D6B4B" transform="translate(61,79)"/>
<path d="M0 0 C1.23556641 0.01740234 1.23556641 0.01740234 2.49609375 0.03515625 C3.32238281 0.04417969 4.14867187 0.05320312 5 0.0625 C5.63808594 0.07410156 6.27617187 0.08570312 6.93359375 0.09765625 C6.93359375 1.74765625 6.93359375 3.39765625 6.93359375 5.09765625 C6.33546875 4.93265625 5.73734375 4.76765625 5.12109375 4.59765625 C2.82015039 3.98624385 2.82015039 3.98624385 -0.06640625 4.09765625 C0.26359375 5.41765625 0.59359375 6.73765625 0.93359375 8.09765625 C-0.38640625 7.43765625 -1.70640625 6.77765625 -3.06640625 6.09765625 C-3.10912725 4.4315372 -3.10704457 2.7638274 -3.06640625 1.09765625 C-2.06640625 0.09765625 -2.06640625 0.09765625 0 0 Z " fill="#4F4F3E" transform="translate(18.06640625,87.90234375)"/>
<path d="M0 0 C0.33 0 0.66 0 1 0 C1.30017023 4.16486198 0.45324946 6.65015727 -1.5 10.3125 C-1.9640625 11.19550781 -2.428125 12.07851563 -2.90625 12.98828125 C-3.2671875 13.65214844 -3.628125 14.31601562 -4 15 C-6 12 -6 12 -5.75 9.5625 C-5.05282249 7.18047686 -4.20252143 5.16453858 -3 3 C-2.34 3 -1.68 3 -1 3 C-0.67 2.01 -0.34 1.02 0 0 Z " fill="#A5AEA6" transform="translate(32,28)"/>
<path d="M0 0 C0.66 0 1.32 0 2 0 C2.99 2.97 3.98 5.94 5 9 C2.33333333 9 -0.33333333 9 -3 9 C-3.66 10.32 -4.32 11.64 -5 13 C-5.33 11.68 -5.66 10.36 -6 9 C-3.69 8.01 -1.38 7.02 1 6 C0.67 4.02 0.34 2.04 0 0 Z " fill="#8D755E" transform="translate(84,6)"/>
<path d="M0 0 C1.125 1.625 1.125 1.625 2 4 C1.125 7.25 1.125 7.25 0 10 C-0.33 9.01 -0.66 8.02 -1 7 C-2.65 7.33 -4.3 7.66 -6 8 C-6 8.66 -6 9.32 -6 10 C-6.66 10 -7.32 10 -8 10 C-8 8.68 -8 7.36 -8 6 C-4.535 5.505 -4.535 5.505 -1 5 C-1.33 3.68 -1.66 2.36 -2 1 C-1.34 0.67 -0.68 0.34 0 0 Z " fill="#633814" transform="translate(55,42)"/>
<path d="M0 0 C2.475 0.99 2.475 0.99 5 2 C4.67 2.66 4.34 3.32 4 4 C3.01 3.34 2.02 2.68 1 2 C0.773125 2.680625 0.54625 3.36125 0.3125 4.0625 C-1.35572357 7.79614324 -3.55729608 10.72163421 -6 14 C-6.66 13.67 -7.32 13.34 -8 13 C-7.38125 11.9275 -6.7625 10.855 -6.125 9.75 C-4.6676321 7.20219016 -3.27075509 4.64740645 -2 2 C-1.34 2 -0.68 2 0 2 C0 1.34 0 0.68 0 0 Z " fill="#301F0E" transform="translate(52,22)"/>
<path d="M0 0 C0.33 0.66 0.66 1.32 1 2 C1.99 2.33 2.98 2.66 4 3 C3.2884375 4.175625 3.2884375 4.175625 2.5625 5.375 C1.66101977 6.88948678 0.78820515 8.4235897 0 10 C-1.32 9.67 -2.64 9.34 -4 9 C-4 8.34 -4 7.68 -4 7 C-3.34 7 -2.68 7 -2 7 C-1.67 6.01 -1.34 5.02 -1 4 C-2.32 3.67 -3.64 3.34 -5 3 C-3.35 2.01 -1.7 1.02 0 0 Z " fill="#A9B999" transform="translate(55,67)"/>
<path d="M0 0 C2 1 2 1 2.875 2.8125 C4.19965085 5.38820998 5.89415861 7.03454804 8 9 C7.67 9.99 7.34 10.98 7 12 C6.34 12 5.68 12 5 12 C5 12.66 5 13.32 5 14 C4.34 13.67 3.68 13.34 3 13 C3.33 11.35 3.66 9.7 4 8 C3.01 7.34 2.02 6.68 1 6 C0.3125 2.875 0.3125 2.875 0 0 Z " fill="#5F6C6F" transform="translate(36,29)"/>
<path d="M0 0 C0.66 0 1.32 0 2 0 C2 0.66 2 1.32 2 2 C2.66 2.33 3.32 2.66 4 3 C1.93243723 5.7972908 0.85559629 6.02692273 -2.6875 6.6875 C-3.780625 6.790625 -4.87375 6.89375 -6 7 C-6 5.68 -6 4.36 -6 3 C-1.25 1.875 -1.25 1.875 1 3 C0.67 2.01 0.34 1.02 0 0 Z " fill="#927D5E" transform="translate(49,82)"/>
<path d="M0 0 C0 0.66 0 1.32 0 2 C-4.1196377 3.29243536 -7.66831683 4.26252625 -12 4 C-11 1 -11 1 -8.8125 -0.25 C-5.51773102 -1.12860506 -3.29199038 -0.76557916 0 0 Z " fill="#748170" transform="translate(13,55)"/>
<path d="M0 0 C1.10370043 3.3111013 0.92673641 5.24748949 0.5625 8.6875 C0.46066406 9.68136719 0.35882812 10.67523438 0.25390625 11.69921875 C0.12822266 12.83810547 0.12822266 12.83810547 0 14 C-1.32 13.67 -2.64 13.34 -4 13 C-3.50269348 8.02693484 -2.44697666 4.36200187 0 0 Z " fill="#394C54" transform="translate(31,34)"/>
<path d="M0 0 C0.33 0 0.66 0 1 0 C1.49230769 7.38461538 1.49230769 7.38461538 -1 10.5 C-1.66 10.995 -2.32 11.49 -3 12 C-3.99 11.67 -4.98 11.34 -6 11 C-5.45156876 7.16098132 -3.7234735 5.63836495 -1 3 C-0.67 2.01 -0.34 1.02 0 0 Z " fill="#757E78" transform="translate(26,40)"/>
<path d="M0 0 C0 3 0 3 -1.5625 6.375 C-3.01454479 10.03667817 -3.21332587 11.36002238 -2 15 C-3.32 14.67 -4.64 14.34 -6 14 C-6.6796875 12.29296875 -6.6796875 12.29296875 -7 10 C-5.8203125 7.67578125 -5.8203125 7.67578125 -4.125 5.3125 C-3.57070313 4.52488281 -3.01640625 3.73726562 -2.4453125 2.92578125 C-1 1 -1 1 0 0 Z " fill="#100905" transform="translate(52,29)"/>
<path d="M0 0 C1.0625 1.8125 1.0625 1.8125 2 4 C1.67 4.99 1.34 5.98 1 7 C-1.0625 7.6875 -1.0625 7.6875 -3 8 C-2.67 6.68 -2.34 5.36 -2 4 C-3.32 6.31 -4.64 8.62 -6 11 C-6.66 10.67 -7.32 10.34 -8 10 C-7.23721377 8.7035649 -6.46443041 7.41300852 -5.6875 6.125 C-5.25824219 5.40570313 -4.82898437 4.68640625 -4.38671875 3.9453125 C-3 2 -3 2 0 0 Z " fill="#71593E" transform="translate(53,27)"/>
<path d="M0 0 C1.4540625 0.0309375 1.4540625 0.0309375 2.9375 0.0625 C2.8125 1.9375 2.8125 1.9375 1.9375 4.0625 C-1.125 5.3125 -1.125 5.3125 -4.0625 6.0625 C-4.105221 4.39638095 -4.10313832 2.72867115 -4.0625 1.0625 C-3.0625 0.0625 -3.0625 0.0625 0 0 Z " fill="#A99F83" transform="translate(72.0625,7.9375)"/>
<path d="M0 0 C0.391875 0.474375 0.78375 0.94875 1.1875 1.4375 C3.40908173 3.35265666 5.16036935 3.47691014 8 4 C8.33 4.66 8.66 5.32 9 6 C8.67 6.66 8.34 7.32 8 8 C4.67277559 7.4454626 1.8986087 6.75986957 -1 5 C-1.33 4.34 -1.66 3.68 -2 3 C-1.34 3 -0.68 3 0 3 C0 2.01 0 1.02 0 0 Z " fill="#654F32" transform="translate(58,29)"/>
<path d="M0 0 C0.99 0.66 1.98 1.32 3 2 C2.814375 2.7425 2.62875 3.485 2.4375 4.25 C2.00796892 6.94990963 2.14877026 8.44631077 3 11 C1.35 10.67 -0.3 10.34 -2 10 C-2.1953125 3.9453125 -2.1953125 3.9453125 -2 2 C-1.34 1.34 -0.68 0.68 0 0 Z " fill="#292720" transform="translate(38,35)"/>
<path d="M0 0 C0 3 0 3 -2.0625 5.125 C-5.45157837 7.28824151 -8.02771052 7.68844788 -12 8 C-10.375 5 -10.375 5 -8 2 C-4.875 1.75 -4.875 1.75 -2 2 C-1.34 1.34 -0.68 0.68 0 0 Z " fill="#C0C4C4" transform="translate(65,12)"/>
<path d="M0 0 C-2.12966005 2.12966005 -3.04068204 2.47624662 -5.875 3.1875 C-6.55304687 3.36667969 -7.23109375 3.54585938 -7.9296875 3.73046875 C-10.2810998 4.03659601 -11.77682987 3.80462015 -14 3 C-14.66 2.34 -15.32 1.68 -16 1 C-10.65097076 0.40801257 -5.39115154 -0.14187241 0 0 Z " fill="#141415" transform="translate(59,92)"/>
<path d="M0 0 C2.64 0.33 5.28 0.66 8 1 C7.67 2.32 7.34 3.64 7 5 C5.02 5 3.04 5 1 5 C0.67 3.35 0.34 1.7 0 0 Z " fill="#3C2310" transform="translate(71,39)"/>
<path d="M0 0 C0.66 0.66 1.32 1.32 2 2 C0.35 3.65 -1.3 5.3 -3 7 C-3.99 6.67 -4.98 6.34 -6 6 C-5.67 4.35 -5.34 2.7 -5 1 C-4.34 1 -3.68 1 -3 1 C-3 1.66 -3 2.32 -3 3 C-2.34 3 -1.68 3 -1 3 C-0.67 2.01 -0.34 1.02 0 0 Z " fill="#66615B" transform="translate(63,8)"/>
<path d="M0 0 C1.76462683 3.08809695 2 4.23312136 2 8 C1.01 8 0.02 8 -1 8 C-1 7.34 -1 6.68 -1 6 C-1.99 6.33 -2.98 6.66 -4 7 C-4.66 6.34 -5.32 5.68 -6 5 C-5.67 4.34 -5.34 3.68 -5 3 C-3.68 3 -2.36 3 -1 3 C-0.67 2.01 -0.34 1.02 0 0 Z " fill="#3A2E24" transform="translate(63,88)"/>
<path d="M0 0 C3.3 0 6.6 0 10 0 C10 0.99 10 1.98 10 3 C8.68 3 7.36 3 6 3 C5.67 3.33 5.34 3.66 5 4 C3.32457024 3.71395102 1.65614657 3.38218767 0 3 C0 2.01 0 1.02 0 0 Z " fill="#ABA578" transform="translate(45,81)"/>
<path d="M0 0 C2.31 0.33 4.62 0.66 7 1 C6.01 1.495 6.01 1.495 5 2 C5 4.31 5 6.62 5 9 C4.01 8.67 3.02 8.34 2 8 C1.26953125 6.15234375 1.26953125 6.15234375 0.8125 3.9375 C0.65394531 3.20402344 0.49539062 2.47054687 0.33203125 1.71484375 C0.22246094 1.14894531 0.11289063 0.58304688 0 0 Z " fill="#D3C8B0" transform="translate(71,43)"/>
<path d="M0 0 C2.64 0.99 5.28 1.98 8 3 C8 3.66 8 4.32 8 5 C8.66 5.33 9.32 5.66 10 6 C9.67 6.66 9.34 7.32 9 8 C3.5 6.53333333 3.5 6.53333333 1.125 4 C0 2 0 2 0 0 Z " fill="#2C1F12" transform="translate(57,26)"/>
<path d="M0 0 C0 1.98 0 3.96 0 6 C-4.75 5.125 -4.75 5.125 -7 4 C-7 3.01 -7 2.02 -7 1 C-1.125 0 -1.125 0 0 0 Z " fill="#69523B" transform="translate(75,16)"/>
<path d="M0 0 C0 0.66 0 1.32 0 2 C-1.32 2 -2.64 2 -4 2 C-4.33 2.99 -4.66 3.98 -5 5 C-5.99 4.67 -6.98 4.34 -8 4 C-8.33 4.66 -8.66 5.32 -9 6 C-9.66 6 -10.32 6 -11 6 C-10.875 4.125 -10.875 4.125 -10 2 C-6.40349908 0.40155515 -3.96602757 0 0 0 Z " fill="#94602C" transform="translate(65,38)"/>
<path d="M0 0 C0.66 0.33 1.32 0.66 2 1 C3.33059914 4.99179743 2.81502739 7.26317891 1 11 C0.67 11 0.34 11 0 11 C0 9.35 0 7.7 0 6 C-0.66 6 -1.32 6 -2 6 C-1.49396008 3.83125748 -1.00016187 2.00032373 0 0 Z " fill="#4D483B" transform="translate(25,47)"/>
<path d="M0 0 C3.53647504 1.67517239 4.7911563 2.49280817 6.3125 6.1875 C6.539375 7.115625 6.76625 8.04375 7 9 C6.34 9.66 5.68 10.32 5 11 C4.9175 10.05125 4.835 9.1025 4.75 8.125 C4.34925077 4.89538209 4.34925077 4.89538209 1.9375 3.625 C1.298125 3.41875 0.65875 3.2125 0 3 C0 2.01 0 1.02 0 0 Z " fill="#F9F8F5" transform="translate(82,1)"/>
<path d="M0 0 C0.33 0.66 0.66 1.32 1 2 C2.65 1.67 4.3 1.34 6 1 C5.34 1.66 4.68 2.32 4 3 C3.01 3 2.02 3 1 3 C1 3.66 1 4.32 1 5 C-1.31 5.33 -3.62 5.66 -6 6 C-4.71034824 4.62437146 -3.37310707 3.29233607 -2 2 C-1.34 2 -0.68 2 0 2 C0 1.34 0 0.68 0 0 Z " fill="#535B5B" transform="translate(67,12)"/>
<path d="M0 0 C-0.20625 0.61875 -0.4125 1.2375 -0.625 1.875 C-0.74875 2.57625 -0.8725 3.2775 -1 4 C-0.34 4.66 0.32 5.32 1 6 C-1.375 5.8125 -1.375 5.8125 -4 5 C-5.3125 2.4375 -5.3125 2.4375 -6 0 C-3.50907189 -1.24546405 -2.58919267 -0.7767578 0 0 Z " fill="#151F15" transform="translate(23,91)"/>
<path d="M0 0 C3 3.875 3 3.875 3 5 C-1.27343092 5.36629408 -3.48812804 4.40814077 -7 2 C-4.66682784 1.22227595 -2.38564077 0.57584432 0 0 Z " fill="#20221F" transform="translate(33,90)"/>
<path d="M0 0 C0.66 0 1.32 0 2 0 C2.80967438 2.91482778 3.21845993 4.46113217 2.0625 7.3125 C1.5365625 8.1478125 1.5365625 8.1478125 1 9 C0.01 7.35 -0.98 5.7 -2 4 C-1.01 3.67 -0.02 3.34 1 3 C0.01 2.67 -0.98 2.34 -2 2 C-1.34 1.34 -0.68 0.68 0 0 Z " fill="#AAB595" transform="translate(47,69)"/>
<path d="M0 0 C0.33 0.66 0.66 1.32 1 2 C1.66 2 2.32 2 3 2 C3.33 2.99 3.66 3.98 4 5 C3.34 5.66 2.68 6.32 2 7 C1.01 7 0.02 7 -1 7 C-1.04254356 5.00045254 -1.04080783 2.99958364 -1 1 C-0.67 0.67 -0.34 0.34 0 0 Z " fill="#5F3612" transform="translate(52,62)"/>
<path d="M0 0 C1.98 0 3.96 0 6 0 C5.30058404 3.14737182 4.23921302 6.02588876 3 9 C2 6 2 6 3 3 C2.01 2.67 1.02 2.34 0 2 C0 1.34 0 0.68 0 0 Z " fill="#925720" transform="translate(48,49)"/>
<path d="M0 0 C0.33 0 0.66 0 1 0 C1.25 2.75 1.25 2.75 1 6 C-1 8.375 -1 8.375 -3 10 C-3.99 9.34 -4.98 8.68 -6 8 C-5.01 8 -4.02 8 -3 8 C-3.33 7.01 -3.66 6.02 -4 5 C-3.01 4.67 -2.02 4.34 -1 4 C-0.26676204 1.98491642 -0.26676204 1.98491642 0 0 Z " fill="#9F8F69" transform="translate(62,77)"/>
<path d="M0 0 C0.99 0 1.98 0 3 0 C2.67 1.98 2.34 3.96 2 6 C0.68 5.67 -0.64 5.34 -2 5 C-1.125 1.125 -1.125 1.125 0 0 Z " fill="#A0BEA2" transform="translate(60,60)"/>
<path d="M0 0 C0.66 1.32 1.32 2.64 2 4 C-0.46278801 5.231394 -2.2795055 5.07159196 -5 5 C-5.33 4.01 -5.66 3.02 -6 2 C-2.25 0 -2.25 0 0 0 Z " fill="#3D220E" transform="translate(53,43)"/>
<path d="M0 0 C2.97 0.495 2.97 0.495 6 1 C6 1.66 6 2.32 6 3 C6.66 3 7.32 3 8 3 C7.67 3.99 7.34 4.98 7 6 C3.73539027 4.19587357 2.11070205 3.16605307 0 0 Z " fill="#955957" transform="translate(57,21)"/>
<path d="M0 0 C2.31 0 4.62 0 7 0 C7 0.66 7 1.32 7 2 C7.99 2.33 8.98 2.66 10 3 C5.545 3.495 5.545 3.495 1 4 C1.33 3.34 1.66 2.68 2 2 C1.34 1.34 0.68 0.68 0 0 Z " fill="#765F4B" transform="translate(55,94)"/>
<path d="M0 0 C0.66 0 1.32 0 2 0 C2.625 3.375 2.625 3.375 3 7 C2.34 7.66 1.68 8.32 1 9 C0.34 8.67 -0.32 8.34 -1 8 C-1.625 5.9375 -1.625 5.9375 -2 4 C-1.34 3.67 -0.68 3.34 0 3 C0 2.01 0 1.02 0 0 Z " fill="#3F3328" transform="translate(32,67)"/>
<path d="M0 0 C0.66 0 1.32 0 2 0 C2.33 0.66 2.66 1.32 3 2 C4.98 2 6.96 2 9 2 C9 2.66 9 3.32 9 4 C6.23735711 4.59732819 3.83967231 5 1 5 C0.67 3.35 0.34 1.7 0 0 Z " fill="#673F1E" transform="translate(42,50)"/>
<path d="M0 0 C2.475 0.99 2.475 0.99 5 2 C5 2.66 5 3.32 5 4 C5.99 4.33 6.98 4.66 8 5 C8 5.66 8 6.32 8 7 C4.66272214 5.82744291 2.22562513 4.81131596 0 2 C0 1.34 0 0.68 0 0 Z " fill="#917663" transform="translate(69,32)"/>
<path d="M0 0 C0.66 0 1.32 0 2 0 C2.66 2.64 3.32 5.28 4 8 C1.5625 7.3125 1.5625 7.3125 -1 6 C-1.8125 3.375 -1.8125 3.375 -2 1 C-1.34 1 -0.68 1 0 1 C0 0.67 0 0.34 0 0 Z " fill="#DDB9BC" transform="translate(72,27)"/>
<path d="M0 0 C1.62463842 -0.05395478 3.24978541 -0.09277195 4.875 -0.125 C5.77992187 -0.14820312 6.68484375 -0.17140625 7.6171875 -0.1953125 C10 0 10 0 12 2 C8.37 2.33 4.74 2.66 1 3 C0.67 2.01 0.34 1.02 0 0 Z " fill="#241F1C" transform="translate(40,95)"/>
<path d="M0 0 C0.66 0.33 1.32 0.66 2 1 C2 1.99 2 2.98 2 4 C-0.95664519 5.4783226 -3.74229737 5.06032783 -7 5 C-5 3 -5 3 -2.9375 2.5 C-2.298125 2.335 -1.65875 2.17 -1 2 C-0.67 1.34 -0.34 0.68 0 0 Z " fill="#907B66" transform="translate(74,89)"/>
<path d="M0 0 C3 1 3 1 5 2 C4.67 3.32 4.34 4.64 4 6 C2.68 5.67 1.36 5.34 0 5 C0 3.35 0 1.7 0 0 Z " fill="#85987E" transform="translate(49,69)"/>
<path d="M0 0 C0.66 0.33 1.32 0.66 2 1 C1.25 2.9375 1.25 2.9375 0 5 C-2.125 5.75 -2.125 5.75 -4 6 C-4.33 5.01 -4.66 4.02 -5 3 C-3.35 2.67 -1.7 2.34 0 2 C0 1.34 0 0.68 0 0 Z " fill="#89665C" transform="translate(56,3)"/>
<path d="M0 0 C5.94 0.99 5.94 0.99 12 2 C12 2.33 12 2.66 12 3 C10.56274129 3.16873478 9.12518162 3.33490737 7.6875 3.5 C6.88699219 3.5928125 6.08648437 3.685625 5.26171875 3.78125 C3 4 3 4 0 4 C0 2.68 0 1.36 0 0 Z " fill="#D2B98C" transform="translate(79,82)"/>
<path d="M0 0 C0.66 0 1.32 0 2 0 C2.33 2.64 2.66 5.28 3 8 C2.01 8.33 1.02 8.66 0 9 C0 6.03 0 3.06 0 0 Z " fill="#201C18" transform="translate(67,80)"/>
<path d="M0 0 C0.66 1.32 1.32 2.64 2 4 C0.35 4.33 -1.3 4.66 -3 5 C-3.33 4.01 -3.66 3.02 -4 2 C-2.68 1.34 -1.36 0.68 0 0 Z " fill="#21100C" transform="translate(34,61)"/>
<path d="M0 0 C2.10633718 1.70828921 2.93801608 2.52148416 3.29296875 5.26171875 C3.25816406 6.06222656 3.22335938 6.86273438 3.1875 7.6875 C3.16042969 8.49574219 3.13335937 9.30398437 3.10546875 10.13671875 C3.07066406 10.75160156 3.03585938 11.36648437 3 12 C2.67 12 2.34 12 2 12 C0.70756464 7.8803623 -0.26252625 4.33168317 0 0 Z " fill="#BEB096" transform="translate(74,53)"/>
<path d="M0 0 C0.66 0.33 1.32 0.66 2 1 C1.67 2.98 1.34 4.96 1 7 C0.01 6.34 -0.98 5.68 -2 5 C-2 3.68 -2 2.36 -2 1 C-1.34 0.67 -0.68 0.34 0 0 Z " fill="#190C07" transform="translate(65,46)"/>
<path d="M0 0 C1.11375 0.4640625 1.11375 0.4640625 2.25 0.9375 C4.50692176 1.8094925 6.6450153 2.47667007 9 3 C8.67 3.99 8.34 4.98 8 6 C4.5625 4.6875 4.5625 4.6875 1 3 C0.67 2.01 0.34 1.02 0 0 Z " fill="#414855" transform="translate(57,24)"/>
<path d="M0 0 C0.66 1.32 1.32 2.64 2 4 C1.34 4.66 0.68 5.32 0 6 C-0.66 6 -1.32 6 -2 6 C-3.33783393 6.31478446 -4.67203709 6.64587656 -6 7 C-4.71937515 5.2925002 -3.38232443 3.62626404 -2 2 C-1.34 2 -0.68 2 0 2 C0 1.34 0 0.68 0 0 Z " fill="#1F242C" transform="translate(66,8)"/>
<path d="M0 0 C0 0.99 0 1.98 0 3 C-2.5 5.1875 -2.5 5.1875 -5 7 C-5 6.01 -5 5.02 -5 4 C-5.99 4.33 -6.98 4.66 -8 5 C-8 4.34 -8 3.68 -8 3 C-6.865625 2.690625 -5.73125 2.38125 -4.5625 2.0625 C-1.21224901 1.37075469 -1.21224901 1.37075469 0 0 Z " fill="#D9CCC7" transform="translate(57,6)"/>
<path d="M0 0 C0.66 0 1.32 0 2 0 C1.34 1.32 0.68 2.64 0 4 C-4.455 3.01 -4.455 3.01 -9 2 C-9 1.67 -9 1.34 -9 1 C-7.700625 1.020625 -6.40125 1.04125 -5.0625 1.0625 C-3.70834367 1.08399454 -2.35243917 1.07148199 -1 1 C-0.67 0.67 -0.34 0.34 0 0 Z " fill="#BE9C77" transform="translate(62,86)"/>
<path d="M0 0 C1.32 0.99 2.64 1.98 4 3 C4.33 2.01 4.66 1.02 5 0 C5.66 1.32 6.32 2.64 7 4 C5.02 4.33 3.04 4.66 1 5 C0.67 3.35 0.34 1.7 0 0 Z " fill="#1D0D0A" transform="translate(34,69)"/>
<path d="M0 0 C0.99 0 1.98 0 3 0 C3 2.31 3 4.62 3 7 C2.01 7 1.02 7 0 7 C0 4.69 0 2.38 0 0 Z " fill="#281A14" transform="translate(70,55)"/>
<path d="M0 0 C2.97 0.495 2.97 0.495 6 1 C6 1.66 6 2.32 6 3 C3.69 3 1.38 3 -1 3 C-0.67 2.01 -0.34 1.02 0 0 Z " fill="#5D5544" transform="translate(19,52)"/>
<path d="M0 0 C2 0.25 2 0.25 4 1 C4.33 1.99 4.66 2.98 5 4 C3.68 4.33 2.36 4.66 1 5 C0.34 3.68 -0.32 2.36 -1 1 C-0.67 0.67 -0.34 0.34 0 0 Z " fill="#2F1E14" transform="translate(41,42)"/>
<path d="M0 0 C1.98 0 3.96 0 6 0 C6 1.98 6 3.96 6 6 C5.34 5.01 4.68 4.02 4 3 C3.01 3 2.02 3 1 3 C0.67 2.01 0.34 1.02 0 0 Z " fill="#764248" transform="translate(67,26)"/>
<path d="M0 0 C0.99 0.33 1.98 0.66 3 1 C3.33 1.99 3.66 2.98 4 4 C1.6875 4.6875 1.6875 4.6875 -1 5 C-2.8125 3.5625 -2.8125 3.5625 -4 2 C-2.68 2 -1.36 2 0 2 C0 1.34 0 0.68 0 0 Z " fill="#F2EEEB" transform="translate(70,1)"/>
<path d="M0 0 C0 0.66 0 1.32 0 2 C-5.41538462 3.23076923 -5.41538462 3.23076923 -8.375 2.0625 C-8.91125 1.711875 -9.4475 1.36125 -10 1 C-6.52674819 -0.1577506 -3.63932552 -0.06866652 0 0 Z " fill="#8B6D53" transform="translate(58,90)"/>
<path d="M0 0 C0.66 0.99 1.32 1.98 2 3 C1.67 3.99 1.34 4.98 1 6 C0.67 5.34 0.34 4.68 0 4 C-0.99 4.33 -1.98 4.66 -3 5 C-2.625 3.0625 -2.625 3.0625 -2 1 C-1.34 0.67 -0.68 0.34 0 0 Z " fill="#181411" transform="translate(64,82)"/>
<path d="M0 0 C1.65 1.65 3.3 3.3 5 5 C4.01 5.99 3.02 6.98 2 8 C2 7.34 2 6.68 2 6 C1.34 5.67 0.68 5.34 0 5 C0 3.35 0 1.7 0 0 Z " fill="#9AAA8E" transform="translate(43,63)"/>
<path d="M0 0 C0.99 0.33 1.98 0.66 3 1 C2.67 1.99 2.34 2.98 2 4 C1.34 4 0.68 4 0 4 C-0.33 4.66 -0.66 5.32 -1 6 C-1.66 4.68 -2.32 3.36 -3 2 C-2.34 2 -1.68 2 -1 2 C-0.67 1.34 -0.34 0.68 0 0 Z " fill="#696B66" transform="translate(69,44)"/>
<path d="M0 0 C0.66 1.32 1.32 2.64 2 4 C0.68 4.99 -0.64 5.98 -2 7 C-3 5 -3 5 -2.6875 2.9375 C-2 1 -2 1 0 0 Z " fill="#4B2A0E" transform="translate(59,41)"/>
<path d="M0 0 C1.98 0.99 1.98 0.99 4 2 C3.67 2.66 3.34 3.32 3 4 C3.33 4.99 3.66 5.98 4 7 C3.01 7.33 2.02 7.66 1 8 C0.67 5.36 0.34 2.72 0 0 Z " fill="#727777" transform="translate(41,24)"/>
<path d="M0 0 C0.99 0.33 1.98 0.66 3 1 C2.01 1.66 1.02 2.32 0 3 C-1.20450304 5.55183404 -1.20450304 5.55183404 -2 8 C-2.66 7.67 -3.32 7.34 -4 7 C-1.125 1.125 -1.125 1.125 0 0 Z " fill="#F7FEF3" transform="translate(82,57)"/>
<path d="M0 0 C0.33 0.99 0.66 1.98 1 3 C-0.3125 5.1875 -0.3125 5.1875 -2 7 C-2.66 7 -3.32 7 -4 7 C-2.79618552 4.50638429 -1.54571278 2.31856917 0 0 Z " fill="#FFFFFF" transform="translate(89,18)"/>
<path d="M0 0 C1.32 0.33 2.64 0.66 4 1 C2.68 1.33 1.36 1.66 0 2 C0 1.34 0 0.68 0 0 Z " fill="#DBF3DA" transform="translate(86,57)"/>
<path d="M0 0 C0.33 0.99 0.66 1.98 1 3 C0.34 3 -0.32 3 -1 3 C-0.67 2.01 -0.34 1.02 0 0 Z " fill="#EEF9E3" transform="translate(22,39)"/>
<path d="M0 0 C0.66 0 1.32 0 2 0 C2 0.66 2 1.32 2 2 C1.34 2 0.68 2 0 2 C0 1.34 0 0.68 0 0 Z " fill="#C8C2A5" transform="translate(77,76)"/>
<path d="M0 0 C0.33 0.66 0.66 1.32 1 2 C0.34 1.67 -0.32 1.34 -1 1 C-0.67 0.67 -0.34 0.34 0 0 Z " fill="#FFFFFF" transform="translate(76,70)"/>
<path d="M0 0 C2 1 2 1 2 1 Z " fill="#E1F3D6" transform="translate(75,75)"/>
<path d="M0 0 C2 1 2 1 2 1 Z " fill="#C3CFC1" transform="translate(10,50)"/>
<path d="M0 0 C2 1 2 1 2 1 Z " fill="#FFFFFF" transform="translate(74,0)"/>
<path d="" fill="#FFFFFF" transform="translate(0,0)"/>
<path d="" fill="#FFFFFF" transform="translate(0,0)"/>
<path d="" fill="#FFFFFF" transform="translate(0,0)"/>
<path d="" fill="#FFFFFF" transform="translate(0,0)"/>
</svg>
