<?xml version="1.0" encoding="UTF-8"?>
<svg version="1.1" xmlns="http://www.w3.org/2000/svg" width="100" height="89">
<path d="M0 0 C6.21936461 0.38077742 11.67724555 2.11610007 17.45532227 4.36010742 C22.01378732 6.02311297 25.29185376 6.11294051 30 5 C31.92283085 3.58408173 31.92283085 3.58408173 33 2 C33.495 2.99 33.495 2.99 34 4 C35.32 3.34 36.64 2.68 38 2 C40.10633718 3.70828921 40.93801608 4.52148416 41.29296875 7.26171875 C41.25816406 8.06222656 41.22335938 8.86273438 41.1875 9.6875 C41.14689453 10.89986328 41.14689453 10.89986328 41.10546875 12.13671875 C41.05326172 13.05904297 41.05326172 13.05904297 41 14 C41.99 14.495 41.99 14.495 43 15 C43.921875 16.9609375 43.921875 16.9609375 44.75 19.375 C45.03359375 20.16648437 45.3171875 20.95796875 45.609375 21.7734375 C46 24 46 24 44 27 C44.47050781 27.66386719 44.94101563 28.32773437 45.42578125 29.01171875 C46.35970703 30.33623047 46.35970703 30.33623047 47.3125 31.6875 C48.23482422 32.99267578 48.23482422 32.99267578 49.17578125 34.32421875 C50.88581306 36.83250952 52.46636423 39.38102199 54 42 C52.35 42.33 50.7 42.66 49 43 C48.97273073 45.35424675 48.95303281 47.70816962 48.9375 50.0625 C48.92589844 51.37347656 48.91429688 52.68445312 48.90234375 54.03515625 C48.99547665 57.8163519 49.38551274 61.27920707 50 65 C52.88214887 64.11785113 52.88214887 64.11785113 55 63 C55.33 63.66 55.66 64.32 56 65 C57.485 65.495 57.485 65.495 59 66 C58.67 66.9075 58.34 67.815 58 68.75 C56.80394277 72.07045807 56.80394277 72.07045807 57 76 C57.66 76.66 58.32 77.32 59 78 C58.13197754 78.23710693 57.26395508 78.47421387 56.36962891 78.71850586 C53.15253268 79.59834567 49.93596047 80.48005265 46.71972656 81.36303711 C45.3270289 81.74497389 43.93412597 82.126163 42.54101562 82.5065918 C40.53982103 83.05321439 38.53937755 83.60251251 36.5390625 84.15234375 C35.33459473 84.48226318 34.13012695 84.81218262 32.88916016 85.15209961 C30.09125845 85.88051868 30.09125845 85.88051868 28 87 C26.63667984 87.09466261 25.26894483 87.13072175 23.90234375 87.1328125 C22.70061523 87.13474609 22.70061523 87.13474609 21.47460938 87.13671875 C20.63736328 87.13285156 19.80011719 87.12898438 18.9375 87.125 C18.09638672 87.12886719 17.25527344 87.13273437 16.38867188 87.13671875 C10.12662682 87.12662682 10.12662682 87.12662682 9 86 C6.09626526 85.63734267 3.20579377 85.33160306 0.29296875 85.0625 C-0.58397141 84.97750244 -1.46091156 84.89250488 -2.36442566 84.80493164 C-5.18006433 84.53240961 -7.9962126 84.26572822 -10.8125 84 C-13.61802281 83.73379128 -16.42339426 83.46626676 -19.22843933 83.19506836 C-20.9766126 83.02617916 -22.72507222 82.86022255 -24.47383118 82.69750977 C-25.27113144 82.62072998 -26.0684317 82.5439502 -26.88989258 82.46484375 C-27.58858963 82.399021 -28.28728668 82.33319824 -29.00715637 82.26538086 C-31.05967419 81.99205337 -33.00243862 81.53969147 -35 81 C-35.25 78.25 -35.25 78.25 -35 75 C-33.125 72.75 -33.125 72.75 -31 71 C-30.01 70.01 -30.01 70.01 -29 69 C-27.68 69.99 -26.36 70.98 -25 72 C-24.38125 71.690625 -23.7625 71.38125 -23.125 71.0625 C-21.75 70.375 -20.375 69.6875 -19 69 C-16.39911378 66.39911378 -16.70037775 65.17862887 -16.5859375 61.5546875 C-16.54726563 60.47832031 -16.50859375 59.40195312 -16.46875 58.29296875 C-16.42234375 56.60107422 -16.42234375 56.60107422 -16.375 54.875 C-16.33632813 53.73933594 -16.29765625 52.60367188 -16.2578125 51.43359375 C-16.16332399 48.62256044 -16.07776459 45.81153767 -16 43 C-19.465 42.505 -19.465 42.505 -23 42 C-21.70455878 37.7072634 -20.05483419 34.09139031 -17.75 30.25 C-17.12738281 29.20585937 -16.50476563 28.16171875 -15.86328125 27.0859375 C-15.24839844 26.06757813 -14.63351563 25.04921875 -14 24 C-13.47792969 23.12601563 -12.95585937 22.25203125 -12.41796875 21.3515625 C-10.41051635 17.99344952 -8.3896839 14.64358295 -6.36328125 11.296875 C-5.56470703 9.97429688 -5.56470703 9.97429688 -4.75 8.625 C-4.03070312 7.43777344 -4.03070312 7.43777344 -3.296875 6.2265625 C-2.10805779 4.1855209 -1.0287261 2.12538695 0 0 Z " fill="#838391" transform="translate(35,2)"/>
<path d="M0 0 C6.21936461 0.38077742 11.67724555 2.11610007 17.45532227 4.36010742 C22.01378732 6.02311297 25.29185376 6.11294051 30 5 C31.92283085 3.58408173 31.92283085 3.58408173 33 2 C33.495 2.99 33.495 2.99 34 4 C35.32 3.34 36.64 2.68 38 2 C40.10633718 3.70828921 40.93801608 4.52148416 41.29296875 7.26171875 C41.25816406 8.06222656 41.22335938 8.86273438 41.1875 9.6875 C41.14689453 10.89986328 41.14689453 10.89986328 41.10546875 12.13671875 C41.05326172 13.05904297 41.05326172 13.05904297 41 14 C41.99 14.495 41.99 14.495 43 15 C43.921875 16.9609375 43.921875 16.9609375 44.75 19.375 C45.03359375 20.16648437 45.3171875 20.95796875 45.609375 21.7734375 C46 24 46 24 44 27 C44.47050781 27.66386719 44.94101563 28.32773437 45.42578125 29.01171875 C46.35970703 30.33623047 46.35970703 30.33623047 47.3125 31.6875 C48.23482422 32.99267578 48.23482422 32.99267578 49.17578125 34.32421875 C50.88581306 36.83250952 52.46636423 39.38102199 54 42 C49.95038003 42.96638658 46.15797593 43.13396116 42 43.125 C40.205625 43.12886719 40.205625 43.12886719 38.375 43.1328125 C35.44672307 43.01757938 32.84213024 42.67823563 30 42 C30 43.98 30 45.96 30 48 C27.22949974 48.1946838 24.45886998 48.38102792 21.6875 48.5625 C20.50897461 48.64661133 20.50897461 48.64661133 19.30664062 48.73242188 C18.1706543 48.80493164 18.1706543 48.80493164 17.01171875 48.87890625 C16.31522217 48.9260376 15.61872559 48.97316895 14.90112305 49.02172852 C13 49 13 49 10 48 C10.66 46.35 11.32 44.7 12 43 C9.37438891 42.91925797 6.75124324 42.8596377 4.125 42.8125 C3.37863281 42.78736328 2.63226563 42.76222656 1.86328125 42.73632812 C-0.56221828 42.6701236 -0.56221828 42.6701236 -4 43 C-4.66 43.99 -5.32 44.98 -6 46 C-6.66 46 -7.32 46 -8 46 C-8 46.66 -8 47.32 -8 48 C-10.64 48 -13.28 48 -16 48 C-16 46.35 -16 44.7 -16 43 C-18.31 42.67 -20.62 42.34 -23 42 C-21.70455878 37.7072634 -20.05483419 34.09139031 -17.75 30.25 C-16.81607422 28.68378906 -16.81607422 28.68378906 -15.86328125 27.0859375 C-14.94095703 25.55839844 -14.94095703 25.55839844 -14 24 C-13.21689453 22.68902344 -13.21689453 22.68902344 -12.41796875 21.3515625 C-10.41051635 17.99344952 -8.3896839 14.64358295 -6.36328125 11.296875 C-5.56470703 9.97429688 -5.56470703 9.97429688 -4.75 8.625 C-4.03070312 7.43777344 -4.03070312 7.43777344 -3.296875 6.2265625 C-2.10805779 4.1855209 -1.0287261 2.12538695 0 0 Z " fill="#A5090B" transform="translate(35,2)"/>
<path d="M0 0 C0.66 0 1.32 0 2 0 C2.495 0.99 2.495 0.99 3 2 C3.99 2.33 4.98 2.66 6 3 C5.67 3.9075 5.34 4.815 5 5.75 C3.80394277 9.07045807 3.80394277 9.07045807 4 13 C4.99 13.99 4.99 13.99 6 15 C5.13197754 15.23710693 4.26395508 15.47421387 3.36962891 15.71850586 C0.15253268 16.59834567 -3.06403953 17.48005265 -6.28027344 18.36303711 C-7.6729711 18.74497389 -9.06587403 19.126163 -10.45898438 19.5065918 C-12.46017897 20.05321439 -14.46062245 20.60251251 -16.4609375 21.15234375 C-17.66540527 21.48226318 -18.86987305 21.81218262 -20.11083984 22.15209961 C-22.90874155 22.88051868 -22.90874155 22.88051868 -25 24 C-26.36332016 24.09466261 -27.73105517 24.13072175 -29.09765625 24.1328125 C-30.29938477 24.13474609 -30.29938477 24.13474609 -31.52539062 24.13671875 C-32.36263672 24.13285156 -33.19988281 24.12898438 -34.0625 24.125 C-34.90361328 24.12886719 -35.74472656 24.13273437 -36.61132812 24.13671875 C-42.87337318 24.12662682 -42.87337318 24.12662682 -44 23 C-46.90373474 22.63734267 -49.79420623 22.33160306 -52.70703125 22.0625 C-53.58397141 21.97750244 -54.46091156 21.89250488 -55.36442566 21.80493164 C-58.18006433 21.53240961 -60.9962126 21.26572822 -63.8125 21 C-66.61802281 20.73379128 -69.42339426 20.46626676 -72.22843933 20.19506836 C-73.9766126 20.02617916 -75.72507222 19.86022255 -77.47383118 19.69750977 C-78.66978157 19.58234009 -78.66978157 19.58234009 -79.88989258 19.46484375 C-80.58858963 19.399021 -81.28728668 19.33319824 -82.00715637 19.26538086 C-84.05967419 18.99205337 -86.00243862 18.53969147 -88 18 C-88.25 15.25 -88.25 15.25 -88 12 C-86.125 9.75 -86.125 9.75 -84 8 C-83.34 7.34 -82.68 6.68 -82 6 C-80.68 6.99 -79.36 7.98 -78 9 C-77.505 8.690625 -77.01 8.38125 -76.5 8.0625 C-73.02013219 6.58355618 -69.75971491 6.37597149 -66 6 C-66 5.34 -66 4.68 -66 4 C-63.36 4 -60.72 4 -58 4 C-57.855625 5.134375 -57.71125 6.26875 -57.5625 7.4375 C-57.38828522 10.80777201 -57.38828522 10.80777201 -56 12 C-53.65012738 12.23527773 -51.29443961 12.41386417 -48.9375 12.5625 C-47.64714844 12.64628906 -46.35679688 12.73007813 -45.02734375 12.81640625 C-44.02832031 12.87699219 -43.02929688 12.93757813 -42 13 C-42 12.01 -42 11.02 -42 10 C-41.34 10 -40.68 10 -40 10 C-39.67 9.01 -39.34 8.02 -39 7 C-36.36 7.33 -33.72 7.66 -31 8 C-31.33 10.31 -31.66 12.62 -32 15 C-31.34 15 -30.68 15 -30 15 C-29.67 13.68 -29.34 12.36 -29 11 C-28.34 11.99 -27.68 12.98 -27 14 C-27 13.01 -27 12.02 -27 11 C-27 10.34 -27 9.68 -27 9 C-24.95928485 8.66089006 -22.91737379 8.32897296 -20.875 8 C-19.16957031 7.7215625 -19.16957031 7.7215625 -17.4296875 7.4375 C-14.23862398 7.03043951 -11.21182209 6.92190098 -8 7 C-8 6.34 -8 5.68 -8 5 C-9.98 5 -11.96 5 -14 5 C-14 4.67 -14 4.34 -14 4 C-7.07 3.01 -7.07 3.01 0 2 C0 1.34 0 0.68 0 0 Z " fill="#013624" transform="translate(88,65)"/>
<path d="M0 0 C0.80836304 0.28049194 0.80836304 0.28049194 1.63305664 0.56665039 C4.10446697 1.41430147 6.58311709 2.23847517 9.0625 3.0625 C10.33383789 3.50432617 10.33383789 3.50432617 11.63085938 3.95507812 C16.90286675 5.6852736 20.58711463 6.40960556 26 5 C27.92283085 3.58408173 27.92283085 3.58408173 29 2 C29.33 2.66 29.66 3.32 30 4 C31.32 3.34 32.64 2.68 34 2 C36.10633718 3.70828921 36.93801608 4.52148416 37.29296875 7.26171875 C37.25816406 8.06222656 37.22335938 8.86273438 37.1875 9.6875 C37.14689453 10.89986328 37.14689453 10.89986328 37.10546875 12.13671875 C37.05326172 13.05904297 37.05326172 13.05904297 37 14 C37.66 14.33 38.32 14.66 39 15 C39.921875 16.9609375 39.921875 16.9609375 40.75 19.375 C41.03359375 20.16648437 41.3171875 20.95796875 41.609375 21.7734375 C42 24 42 24 40 27 C40.47050781 27.66386719 40.94101563 28.32773437 41.42578125 29.01171875 C42.04839844 29.89472656 42.67101562 30.77773438 43.3125 31.6875 C44.23482422 32.99267578 44.23482422 32.99267578 45.17578125 34.32421875 C46.88581306 36.83250952 48.46636423 39.38102199 50 42 C45.95038003 42.96638658 42.15797593 43.13396116 38 43.125 C36.205625 43.12886719 36.205625 43.12886719 34.375 43.1328125 C31.44672307 43.01757938 28.84213024 42.67823563 26 42 C25.67 42.66 25.34 43.32 25 44 C24.34 43.01 23.68 42.02 23 41 C24.65 41 26.3 41 28 41 C22.97768493 33.73134037 17.81528479 26.56828744 12.62036133 19.42236328 C10.27580718 16.18943881 7.94526208 12.9590579 5.74609375 9.625 C4.00475167 6.91360078 4.00475167 6.91360078 1.75 4.25 C0 2 0 2 0 0 Z " fill="#460E1A" transform="translate(39,2)"/>
<path d="M0 0 C1.32 0 2.64 0 4 0 C4 1.65 4 3.3 4 5 C4.99 5 5.98 5 7 5 C6.67 6.65 6.34 8.3 6 10 C7.32 10 8.64 10 10 10 C10 10.99 10 11.98 10 13 C4.06 13.495 4.06 13.495 -2 14 C-1.814375 14.886875 -1.62875 15.77375 -1.4375 16.6875 C-1.01957516 19.85178811 -1.19222258 21.94839642 -2 25 C-2.66 25 -3.32 25 -4 25 C-4 25.99 -4 26.98 -4 28 C-4.66 28 -5.32 28 -6 28 C-6 28.99 -6 29.98 -6 31 C-0.72 31.33 4.56 31.66 10 32 C10 31.34 10 30.68 10 30 C14.62 30 19.24 30 24 30 C24 31.32 24 32.64 24 34 C19.545 34.495 19.545 34.495 15 35 C15.495 37.475 15.495 37.475 16 40 C16.9075 39.814375 17.815 39.62875 18.75 39.4375 C21.68314324 39.04265379 23.2644657 39.05308428 26 40 C26 40.66 26 41.32 26 42 C23.89651926 42.19504458 21.79217415 42.38078496 19.6875 42.5625 C18.51574219 42.66691406 17.34398437 42.77132812 16.13671875 42.87890625 C13 43 13 43 10 42 C10.66 40.35 11.32 38.7 12 37 C9.37438891 36.91925797 6.75124324 36.8596377 4.125 36.8125 C3.37863281 36.78736328 2.63226563 36.76222656 1.86328125 36.73632812 C-0.56221828 36.6701236 -0.56221828 36.6701236 -4 37 C-4.66 37.99 -5.32 38.98 -6 40 C-6.66 40 -7.32 40 -8 40 C-8 40.66 -8 41.32 -8 42 C-10.64 42 -13.28 42 -16 42 C-16 40.35 -16 38.7 -16 37 C-18.31 36.67 -20.62 36.34 -23 36 C-21.69850612 31.67237255 -20.02078519 28.05216527 -17.6875 24.1875 C-14.69555043 19.1737937 -11.80562314 14.11993901 -9 9 C-6.03 9.495 -6.03 9.495 -3 10 C-3 8.35 -3 6.7 -3 5 C-2.01 5 -1.02 5 0 5 C0 3.35 0 1.7 0 0 Z " fill="#8E100D" transform="translate(35,8)"/>
<path d="M0 0 C7.26 0 14.52 0 22 0 C22 0.66 22 1.32 22 2 C19.36 2 16.72 2 14 2 C14 9.92 14 17.84 14 26 C17.465 25.505 17.465 25.505 21 25 C21 21.37 21 17.74 21 14 C20.34 14 19.68 14 19 14 C18.01 14 17.02 14 16 14 C16 10.7 16 7.4 16 4 C18.31 4 20.62 4 23 4 C23.96088383 6.88265149 24.11670941 8.67662271 24.09765625 11.66796875 C24.09443359 12.56064453 24.09121094 13.45332031 24.08789062 14.37304688 C24.07951172 15.30181641 24.07113281 16.23058594 24.0625 17.1875 C24.05798828 18.12787109 24.05347656 19.06824219 24.04882812 20.03710938 C24.03704626 22.35813712 24.02059558 24.67903644 24 27 C21.87527424 27.05386629 19.75016348 27.09273071 17.625 27.125 C15.84996094 27.15980469 15.84996094 27.15980469 14.0390625 27.1953125 C11 27 11 27 9 25 C8.875 21.375 8.875 21.375 9 18 C6.36 18 3.72 18 1 18 C1 18.66 1 19.32 1 20 C-0.98 20 -2.96 20 -5 20 C-4.34 19.34 -3.68 18.68 -3 18 C-2.6936141 15.26565038 -2.4886664 12.61720179 -2.375 9.875 C-2.33632813 9.12089844 -2.29765625 8.36679687 -2.2578125 7.58984375 C-2.16348969 5.72696816 -2.08065338 3.86351745 -2 2 C-1.34 2 -0.68 2 0 2 C0 1.34 0 0.68 0 0 Z " fill="#CBC0AD" transform="translate(21,51)"/>
<path d="M0 0 C2.64 0 5.28 0 8 0 C8.144375 1.134375 8.28875 2.26875 8.4375 3.4375 C8.61171478 6.80777201 8.61171478 6.80777201 10 8 C11.68183948 8.23287008 13.3712416 8.41264166 15.0625 8.5625 C15.98160156 8.64628906 16.90070312 8.73007813 17.84765625 8.81640625 C18.55792969 8.87699219 19.26820312 8.93757813 20 9 C20 9.66 20 10.32 20 11 C19.34 11 18.68 11 18 11 C18 11.66 18 12.32 18 13 C18.61488281 12.98839844 19.22976562 12.97679688 19.86328125 12.96484375 C20.67152344 12.95582031 21.47976562 12.94679688 22.3125 12.9375 C23.51326172 12.92009766 23.51326172 12.92009766 24.73828125 12.90234375 C27 13 27 13 30 14 C30 14.66 30 15.32 30 16 C5.87052654 16.38352262 5.87052654 16.38352262 -3.953125 14.51171875 C-9.91427112 13.5105519 -15.96979638 13.31694016 -22 13 C-22.234375 8.2734375 -22.234375 8.2734375 -20.125 5.8125 C-19.073125 4.9153125 -19.073125 4.9153125 -18 4 C-17.34 3.34 -16.68 2.68 -16 2 C-14.68 2.99 -13.36 3.98 -12 5 C-11.505 4.690625 -11.01 4.38125 -10.5 4.0625 C-7.02013219 2.58355618 -3.75971491 2.37597149 0 2 C0 1.34 0 0.68 0 0 Z " fill="#5E808C" transform="translate(22,69)"/>
<path d="M0 0 C1.625 1.6875 1.625 1.6875 1.625 4.6875 C2.615 5.0175 3.605 5.3475 4.625 5.6875 C4.625 7.0075 4.625 8.3275 4.625 9.6875 C5.945 10.0175 7.265 10.3475 8.625 10.6875 C8.625 12.0075 8.625 13.3275 8.625 14.6875 C9.285 15.0175 9.945 15.3475 10.625 15.6875 C6.335 15.6875 2.045 15.6875 -2.375 15.6875 C-2.375 16.3475 -2.375 17.0075 -2.375 17.6875 C-4.47909639 17.71451408 -6.58329178 17.73390223 -8.6875 17.75 C-9.85925781 17.76160156 -11.03101563 17.77320312 -12.23828125 17.78515625 C-15.375 17.6875 -15.375 17.6875 -18.375 16.6875 C-18.375 15.6975 -18.375 14.7075 -18.375 13.6875 C-17.715 13.6875 -17.055 13.6875 -16.375 13.6875 C-16.375 12.6975 -16.375 11.7075 -16.375 10.6875 C-15.715 10.6875 -15.055 10.6875 -14.375 10.6875 C-14.375 7.0575 -14.375 3.4275 -14.375 -0.3125 C-4.1051855 -2.26865514 -4.1051855 -2.26865514 0 0 Z " fill="#E8B510" transform="translate(47.375,22.3125)"/>
<path d="M0 0 C0.66 0.66 1.32 1.32 2 2 C3.32 1.34 4.64 0.68 6 0 C8.10633718 1.70828921 8.93801608 2.52148416 9.29296875 5.26171875 C9.25816406 6.06222656 9.22335938 6.86273438 9.1875 7.6875 C9.16042969 8.49574219 9.13335937 9.30398438 9.10546875 10.13671875 C9.07066406 10.75160156 9.03585938 11.36648438 9 12 C9.66 12.33 10.32 12.66 11 13 C11.921875 14.9609375 11.921875 14.9609375 12.75 17.375 C13.03359375 18.16648437 13.3171875 18.95796875 13.609375 19.7734375 C14 22 14 22 12 25 C11.9744911 27.5254223 11.9744911 27.5254223 12.375 30.1875 C12.48585938 31.08855469 12.59671875 31.98960938 12.7109375 32.91796875 C12.80632812 33.60503906 12.90171875 34.29210938 13 35 C10.69 35 8.38 35 6 35 C4.55792059 32.11584117 4.90605113 29.58278472 4.9375 26.375 C4.94652344 25.18648437 4.95554687 23.99796875 4.96484375 22.7734375 C4.97644531 21.85820312 4.98804687 20.94296875 5 20 C2.36 19.67 -0.28 19.34 -3 19 C-3 17.35 -3 15.7 -3 14 C-3.66 14 -4.32 14 -5 14 C-5 13.34 -5 12.68 -5 12 C-3.68 11.67 -2.36 11.34 -1 11 C-1.495 10.5875 -1.99 10.175 -2.5 9.75 C-4 8 -4 8 -4 4 C-2 1.75 -2 1.75 0 0 Z " fill="#5B293A" transform="translate(67,4)"/>
<path d="M0 0 C0 6.93 0 13.86 0 21 C-0.99 20.01 -1.98 19.02 -3 18 C-5.4356656 17.46043516 -5.4356656 17.46043516 -8.0625 17.375 C-12.83919598 17.08040201 -12.83919598 17.08040201 -15 16 C-15 16.66 -15 17.32 -15 18 C-15.66 18 -16.32 18 -17 18 C-17 17.34 -17 16.68 -17 16 C-17.66 16 -18.32 16 -19 16 C-19 13.69 -19 11.38 -19 9 C-18.34 9 -17.68 9 -17 9 C-17 6.03 -17 3.06 -17 0 C-10.99078743 -0.96147401 -5.93628281 -1.4840707 0 0 Z " fill="#D4A120" transform="translate(65,53)"/>
<path d="M0 0 C2.97 0.33 5.94 0.66 9 1 C8.67 3.31 8.34 5.62 8 8 C8.66 8 9.32 8 10 8 C10.33 6.68 10.66 5.36 11 4 C11.99 5.485 11.99 5.485 13 7 C13 6.01 13 5.02 13 4 C14.32 3.67 15.64 3.34 17 3 C17 4.65 17 6.3 17 8 C22.94 8.99 22.94 8.99 29 10 C29 10.33 29 10.66 29 11 C27.78763672 11.18175781 27.78763672 11.18175781 26.55078125 11.3671875 C25.48214844 11.53476563 24.41351563 11.70234375 23.3125 11.875 C22.25675781 12.03742188 21.20101562 12.19984375 20.11328125 12.3671875 C17.06760274 12.85156434 17.06760274 12.85156434 14.75 14.09375 C10.41307282 15.52296464 6.19682054 14.9436799 1.6875 14.625 C0.75615234 14.56828125 -0.17519531 14.5115625 -1.13476562 14.453125 C-3.42402103 14.31224774 -5.7120794 14.16090171 -8 14 C-8 13.67 -8 13.34 -8 13 C-6.37585622 12.80522261 -4.75063577 12.61940542 -3.125 12.4375 C-2.22007813 12.33308594 -1.31515625 12.22867188 -0.3828125 12.12109375 C2 12 2 12 4 13 C4 12.34 4 11.68 4 11 C0.04 10.67 -3.92 10.34 -8 10 C-8 9.34 -8 8.68 -8 8 C-7.34 8 -6.68 8 -6 8 C-6 7.34 -6 6.68 -6 6 C-4.68 6 -3.36 6 -2 6 C-2 5.01 -2 4.02 -2 3 C-1.34 3 -0.68 3 0 3 C0 2.01 0 1.02 0 0 Z " fill="#5E6663" transform="translate(48,72)"/>
<path d="M0 0 C2.31 0 4.62 0 7 0 C7.33 4.62 7.66 9.24 8 14 C10.31 14 12.62 14 15 14 C14.67 13.34 14.34 12.68 14 12 C13.960008 10.00039988 13.95653201 7.99952758 14 6 C18.24404412 9.88026891 21.10917547 14.04254346 24 19 C19.95038003 19.96638658 16.15797593 20.13396116 12 20.125 C10.80375 20.12757812 9.6075 20.13015625 8.375 20.1328125 C5.44672307 20.01757938 2.84213024 19.67823563 0 19 C-0.33 19.66 -0.66 20.32 -1 21 C-1.66 20.01 -2.32 19.02 -3 18 C-1.35 18 0.3 18 2 18 C0.02 14.535 0.02 14.535 -2 11 C1.465 10.505 1.465 10.505 5 10 C4.6390625 9.44570313 4.278125 8.89140625 3.90625 8.3203125 C3.4421875 7.59585938 2.978125 6.87140625 2.5 6.125 C2.0359375 5.40570312 1.571875 4.68640625 1.09375 3.9453125 C0 2 0 2 0 0 Z " fill="#572A2A" transform="translate(65,25)"/>
<path d="M0 0 C3.63 0 7.26 0 11 0 C11 0.66 11 1.32 11 2 C8.36 2 5.72 2 3 2 C3 9.92 3 17.84 3 26 C6.465 25.505 6.465 25.505 10 25 C10 21.37 10 17.74 10 14 C9.34 14 8.68 14 8 14 C7.01 14 6.02 14 5 14 C5 10.7 5 7.4 5 4 C7.31 4 9.62 4 12 4 C12.96088383 6.88265149 13.11670941 8.67662271 13.09765625 11.66796875 C13.09443359 12.56064453 13.09121094 13.45332031 13.08789062 14.37304688 C13.07951172 15.30181641 13.07113281 16.23058594 13.0625 17.1875 C13.05798828 18.12787109 13.05347656 19.06824219 13.04882812 20.03710938 C13.03704645 22.35810008 13.01911114 24.67905807 13 27 C8.71 27 4.42 27 0 27 C-0.19432251 23.06272701 -0.3807528 19.1253561 -0.5625 15.1875 C-0.61857422 14.06794922 -0.67464844 12.94839844 -0.73242188 11.79492188 C-0.80493164 10.18520508 -0.80493164 10.18520508 -0.87890625 8.54296875 C-0.9260376 7.55321045 -0.97316895 6.56345215 -1.02172852 5.54370117 C-1 3 -1 3 0 0 Z " fill="#C8A9A4" transform="translate(32,51)"/>
<path d="M0 0 C1.8125 0.75 1.8125 0.75 2.8125 2.75 C1.1625 2.75 -0.4875 2.75 -2.1875 2.75 C-2.1875 3.41 -2.1875 4.07 -2.1875 4.75 C-1.5275 4.75 -0.8675 4.75 -0.1875 4.75 C-0.1875 6.4 -0.1875 8.05 -0.1875 9.75 C1.730625 9.688125 1.730625 9.688125 3.6875 9.625 C5.8671875 9.5546875 5.8671875 9.5546875 7.8125 9.75 C8.4725 10.41 9.1325 11.07 9.8125 11.75 C6.13461882 12.97596039 5.02800387 12.59310077 0.8125 11.75 C2.7925 15.38 4.7725 19.01 6.8125 22.75 C3.73268354 23.18225494 1.78930812 23.4265473 -1.1875 22.75 C-5.82785479 19.07790822 -8.89656171 14.14044304 -11.1875 8.75 C-9.5375 8.09 -7.8875 7.43 -6.1875 6.75 C-6.1875 5.76 -6.1875 4.77 -6.1875 3.75 C-6.1875 3.09 -6.1875 2.43 -6.1875 1.75 C-3.9127187 0.36888278 -2.68578639 -0.30694702 0 0 Z " fill="#57060B" transform="translate(64.1875,13.25)"/>
<path d="M0 0 C0.33 0 0.66 0 1 0 C1 1.65 1 3.3 1 5 C1.67804687 4.77183594 2.35609375 4.54367188 3.0546875 4.30859375 C9.77099902 2.23416512 15.08165079 1.754397 22 3 C22 3.66 22 4.32 22 5 C21.34 5 20.68 5 20 5 C20 5.66 20 6.32 20 7 C20.61488281 6.98839844 21.22976562 6.97679688 21.86328125 6.96484375 C22.67152344 6.95582031 23.47976562 6.94679688 24.3125 6.9375 C25.51326172 6.92009766 25.51326172 6.92009766 26.73828125 6.90234375 C29 7 29 7 32 8 C32 8.66 32 9.32 32 10 C28.1875662 10.05872928 24.37525094 10.09383916 20.5625 10.125 C19.49322266 10.14175781 18.42394531 10.15851563 17.32226562 10.17578125 C10.38127891 10.21823377 3.35282226 10.17641113 -3 7 C-3 6.34 -3 5.68 -3 5 C-2.01 5 -1.02 5 0 5 C0 3.35 0 1.7 0 0 Z " fill="#606876" transform="translate(20,75)"/>
<path d="M0 0 C2.31 0 4.62 0 7 0 C7.33 4.95 7.66 9.9 8 15 C10.31 15.66 12.62 16.32 15 17 C15 17.66 15 18.32 15 19 C9.75103182 20.07671142 5.60877798 20 0 20 C0 13.4 0 6.8 0 0 Z " fill="#505E4E" transform="translate(65,53)"/>
<path d="M0 0 C0.625 3.0625 0.625 3.0625 1 6 C0.34 5.67 -0.32 5.34 -1 5 C-1.66 6.32 -2.32 7.64 -3 9 C-3.99 9 -4.98 9 -6 9 C-6 8.01 -6 7.02 -6 6 C-6.99 6 -7.98 6 -9 6 C-9.33 7.32 -9.66 8.64 -10 10 C-17.625 12.125 -17.625 12.125 -21 11 C-21 9.35 -21 7.7 -21 6 C-22.32 5.67 -23.64 5.34 -25 5 C-22.95928485 4.66089006 -20.91737379 4.32897296 -18.875 4 C-17.73804687 3.814375 -16.60109375 3.62875 -15.4296875 3.4375 C-12.23862398 3.03043951 -9.21182209 2.92190098 -6 3 C-6 2.34 -6 1.68 -6 1 C-7.98 1 -9.96 1 -12 1 C-12 0.67 -12 0.34 -12 0 C-10.37585622 -0.19477739 -8.75063577 -0.38059458 -7.125 -0.5625 C-6.22007813 -0.66691406 -5.31515625 -0.77132812 -4.3828125 -0.87890625 C-2 -1 -2 -1 0 0 Z " fill="#0F2F4D" transform="translate(86,69)"/>
<path d="M0 0 C2.64 0 5.28 0 8 0 C8.33 0.66 8.66 1.32 9 2 C6.69 2 4.38 2 2 2 C2 5.3 2 8.6 2 12 C3.65 11.34 5.3 10.68 7 10 C8.31164842 12.62329684 8.13262846 14.63698625 8.125 17.5625 C8.12757812 18.55378906 8.13015625 19.54507813 8.1328125 20.56640625 C8 23 8 23 7 24 C4.69 24 2.38 24 0 24 C0 16.08 0 8.16 0 0 Z " fill="#A80904" transform="translate(35,53)"/>
<path d="M0 0 C3.36704285 -0.2295711 5.41370268 -0.33943529 8.375 1.375 C8.91125 1.91125 9.4475 2.4475 10 3 C10 3.66 10 4.32 10 5 C8.68 5 7.36 5 6 5 C6 6.65 6 8.3 6 10 C5.34 10 4.68 10 4 10 C4 11.65 4 13.3 4 15 C4.66 15.33 5.32 15.66 6 16 C5.67 16.66 5.34 17.32 5 18 C1.37 18 -2.26 18 -6 18 C-6 17.34 -6 16.68 -6 16 C-5.34 15.67 -4.68 15.34 -4 15 C-4 13.35 -4 11.7 -4 10 C-2.35 10 -0.7 10 1 10 C2.0745356 8.2236068 2.0745356 8.2236068 2 7 C2 5.68 2 4.36 2 3 C1.34 2.67 0.68 2.34 0 2 C0 1.34 0 0.68 0 0 Z " fill="#ECD497" transform="translate(39,21)"/>
<path d="M0 0 C1.32 0 2.64 0 4 0 C4 1.65 4 3.3 4 5 C4.99 5 5.98 5 7 5 C6.67 6.65 6.34 8.3 6 10 C7.32 10 8.64 10 10 10 C10 10.99 10 11.98 10 13 C8.02145742 13.19397476 6.0421352 13.38001321 4.0625 13.5625 C2.40927734 13.71912109 2.40927734 13.71912109 0.72265625 13.87890625 C-0.62505859 13.93884766 -0.62505859 13.93884766 -2 14 C-3 13 -3 13 -3.09765625 11.15234375 C-3.06510417 9.1015625 -3.03255208 7.05078125 -3 5 C-2.01 5 -1.02 5 0 5 C0 3.35 0 1.7 0 0 Z " fill="#793B0F" transform="translate(35,8)"/>
<path d="M0 0 C2.31 0 4.62 0 7 0 C6.67 5.28 6.34 10.56 6 16 C6.66 16.33 7.32 16.66 8 17 C5.66705225 17.04241723 3.33297433 17.04092937 1 17 C0 16 0 16 -0.09765625 12.40234375 C-0.0909822 10.91403133 -0.07902183 9.42573568 -0.0625 7.9375 C-0.05798828 7.17888672 -0.05347656 6.42027344 -0.04882812 5.63867188 C-0.0370068 3.75908129 -0.01907078 1.87953101 0 0 Z " fill="#B0B4AD" transform="translate(72,52)"/>
<path d="M0 0 C4 0 4 0 5.703125 1.6796875 C6.21359375 2.40414063 6.7240625 3.12859375 7.25 3.875 C8.03117187 4.95394531 8.03117187 4.95394531 8.828125 6.0546875 C10 8 10 8 10 10 C8.02 10.33 6.04 10.66 4 11 C4 9.35 4 7.7 4 6 C2.68 6 1.36 6 0 6 C0 7.65 0 9.3 0 11 C-0.99 11 -1.98 11 -3 11 C-3 12.65 -3 14.3 -3 16 C-4.65 16 -6.3 16 -8 16 C-6.78068682 11.45528724 -4.95918386 8.27669133 -2.12109375 4.61328125 C-0.80277938 2.87782099 -0.80277938 2.87782099 0 0 Z " fill="#CA675F" transform="translate(35,2)"/>
<path d="M0 0 C2.31 0 4.62 0 7 0 C7.96088383 2.88265149 8.11670941 4.67662271 8.09765625 7.66796875 C8.09443359 8.56064453 8.09121094 9.45332031 8.08789062 10.37304688 C8.07951172 11.30181641 8.07113281 12.23058594 8.0625 13.1875 C8.05798828 14.12787109 8.05347656 15.06824219 8.04882812 16.03710938 C8.03704626 18.35813712 8.02059558 20.67903644 8 23 C7.34 23 6.68 23 6 23 C5.67 18.71 5.34 14.42 5 10 C4.34 10 3.68 10 3 10 C2.01 10 1.02 10 0 10 C0 6.7 0 3.4 0 0 Z " fill="#E9CDBA" transform="translate(37,55)"/>
<path d="M0 0 C0.85659135 3.08084955 1.26941369 6.06792001 1.5625 9.25 C1.64628906 10.14203125 1.73007813 11.0340625 1.81640625 11.953125 C1.87699219 12.62859375 1.93757813 13.3040625 2 14 C-0.31 14 -2.62 14 -5 14 C-6.38226016 11.23547967 -6.09525387 8.9538637 -6.0625 5.875 C-6.05347656 4.77929688 -6.04445313 3.68359375 -6.03515625 2.5546875 C-6.02355469 1.71164063 -6.01195313 0.86859375 -6 0 C-3.50907189 -1.24546405 -2.58919267 -0.7767578 0 0 Z " fill="#898370" transform="translate(78,25)"/>
<path d="M0 0 C0.66 0 1.32 0 2 0 C2 7.26 2 14.52 2 22 C1.34 21.67 0.68 21.34 0 21 C0 18.69 0 16.38 0 14 C-3.3 14 -6.6 14 -10 14 C-10 13.34 -10 12.68 -10 12 C-6.535 11.505 -6.535 11.505 -3 11 C-3 9.02 -3 7.04 -3 5 C-3.99 4.67 -4.98 4.34 -6 4 C-5.01 4 -4.02 4 -3 4 C-2.67 3.01 -2.34 2.02 -2 1 C-2 1.99 -2 2.98 -2 4 C-1.34 4 -0.68 4 0 4 C0 2.68 0 1.36 0 0 Z " fill="#CCBEB6" transform="translate(30,55)"/>
<path d="M0 0 C4.24404412 3.88026891 7.10917547 8.04254346 10 13 C4.28422291 14.00276791 0.41824248 14.21152754 -5 12 C-5.33 11.01 -5.66 10.02 -6 9 C-5 8 -5 8 -1.9375 7.9375 C-0.4834375 7.9684375 -0.4834375 7.9684375 1 8 C0.67 7.34 0.34 6.68 0 6 C-0.039992 4.00039988 -0.04346799 1.99952758 0 0 Z " fill="#502944" transform="translate(79,31)"/>
<path d="M0 0 C4.62 0 9.24 0 14 0 C14 1.32 14 2.64 14 4 C3.44 4 -7.12 4 -18 4 C-17.67 3.01 -17.34 2.02 -17 1 C-11.39 1.33 -5.78 1.66 0 2 C0 1.34 0 0.68 0 0 Z " fill="#02458C" transform="translate(45,38)"/>
<path d="M0 0 C5.94 0.33 11.88 0.66 18 1 C18 2.65 18 4.3 18 6 C12.06 6 6.12 6 0 6 C0 4.02 0 2.04 0 0 Z " fill="#736E51" transform="translate(65,44)"/>
<path d="M0 0 C5.94 0 11.88 0 18 0 C18.66 1.98 19.32 3.96 20 6 C20.9075 5.814375 21.815 5.62875 22.75 5.4375 C25.68314324 5.04265379 27.2644657 5.05308428 30 6 C30 6.66 30 7.32 30 8 C27.89651926 8.19504458 25.79217415 8.38078496 23.6875 8.5625 C22.51574219 8.66691406 21.34398437 8.77132812 20.13671875 8.87890625 C17 9 17 9 14 8 C14.66 6.35 15.32 4.7 16 3 C10.72 2.67 5.44 2.34 0 2 C0 1.34 0 0.68 0 0 Z " fill="#5C1420" transform="translate(31,42)"/>
<path d="M0 0 C0.66 0 1.32 0 2 0 C2.33 0.66 2.66 1.32 3 2 C3.99 2.33 4.98 2.66 6 3 C5.67 3.9075 5.34 4.815 5 5.75 C3.80394277 9.07045807 3.80394277 9.07045807 4 13 C4.66 13.66 5.32 14.32 6 15 C3.69 15 1.38 15 -1 15 C-1 14.01 -1 13.02 -1 12 C-1.66 11.67 -2.32 11.34 -3 11 C-2.67 12.65 -2.34 14.3 -2 16 C-2.99 16 -3.98 16 -5 16 C-4.67 13.36 -4.34 10.72 -4 8 C-3.34 8.33 -2.68 8.66 -2 9 C-2.33 7.02 -2.66 5.04 -3 3 C-2.01 2.34 -1.02 1.68 0 1 C0 0.67 0 0.34 0 0 Z " fill="#0D2023" transform="translate(88,65)"/>
<path d="M0 0 C5.61 0 11.22 0 17 0 C14 5 14 5 12.00708008 5.65942383 C10.89949341 5.6829895 10.89949341 5.6829895 9.76953125 5.70703125 C8.56586914 5.75053711 8.56586914 5.75053711 7.33789062 5.79492188 C6.08782227 5.80362305 6.08782227 5.80362305 4.8125 5.8125 C3.5450293 5.85020508 3.5450293 5.85020508 2.25195312 5.88867188 C0.1684695 5.94752734 -1.91581627 5.97662995 -4 6 C-4 5.34 -4 4.68 -4 4 C-3.34 4 -2.68 4 -2 4 C-1.34 2.68 -0.68 1.36 0 0 Z " fill="#2D70B4" transform="translate(31,44)"/>
<path d="M0 0 C1.98 0 3.96 0 6 0 C6.33 4.62 6.66 9.24 7 14 C2 15 2 15 0 14 C0 9.38 0 4.76 0 0 Z " fill="#78733F" transform="translate(78,54)"/>
<path d="M0 0 C2.64 0 5.28 0 8 0 C8.33 2.97 8.66 5.94 9 9 C5.49223216 10.60355101 2.85645121 11.22036864 -1 11 C-1.33 9.02 -1.66 7.04 -2 5 C1.465 4.505 1.465 4.505 5 4 C5 3.34 5 2.68 5 2 C3.68 2.33 2.36 2.66 1 3 C0.67 2.01 0.34 1.02 0 0 Z " fill="#4D2317" transform="translate(22,69)"/>
<path d="M0 0 C2.97 0.33 5.94 0.66 9 1 C8.67 3.31 8.34 5.62 8 8 C7.34 7.67 6.68 7.34 6 7 C6 6.01 6 5.02 6 4 C5.34 4 4.68 4 4 4 C3.87625 4.804375 3.7525 5.60875 3.625 6.4375 C3.41875 7.283125 3.2125 8.12875 3 9 C0.59454362 10.20272819 -0.94996953 10.10071472 -3.625 10.0625 C-4.85089844 10.04896484 -4.85089844 10.04896484 -6.1015625 10.03515625 C-7.04128906 10.01775391 -7.04128906 10.01775391 -8 10 C-8 9.34 -8 8.68 -8 8 C-7.34 8 -6.68 8 -6 8 C-6 7.34 -6 6.68 -6 6 C-4.68 6 -3.36 6 -2 6 C-2 5.01 -2 4.02 -2 3 C-1.34 3 -0.68 3 0 3 C0 2.01 0 1.02 0 0 Z " fill="#203F35" transform="translate(48,72)"/>
<path d="M0 0 C2.41699271 -0.05521049 4.83266191 -0.09423388 7.25 -0.125 C7.91257812 -0.14175781 8.57515625 -0.15851563 9.2578125 -0.17578125 C13.49135716 -0.21572035 17.4372186 0.19145399 21.60546875 0.9453125 C30.01666256 2.44859536 38.49372382 2.75609104 47.01367188 3.2109375 C48.88055664 3.32308594 48.88055664 3.32308594 50.78515625 3.4375 C52.46943726 3.52837891 52.46943726 3.52837891 54.18774414 3.62109375 C57 4 57 4 60 6 C46.01691413 5.65728659 32.11046152 4.87442365 18.1875 3.5625 C17.50742889 3.50105804 16.82735779 3.43961609 16.12667847 3.37631226 C14.18126155 3.19872318 12.23707417 3.00781935 10.29296875 2.81640625 C9.1743042 2.70756104 8.05563965 2.59871582 6.90307617 2.48657227 C4.1941128 2.03253442 2.3472269 1.38636544 0 0 Z " fill="#10443C" transform="translate(0,82)"/>
<path d="M0 0 C8.80896651 -0.46182931 8.80896651 -0.46182931 13.0625 1.1875 C15.41729253 3.39037043 15.74310052 4.83157307 16 8 C14.68 8 13.36 8 12 8 C12 7.34 12 6.68 12 6 C8.7 6 5.4 6 2 6 C1.34 4.02 0.68 2.04 0 0 Z " fill="#E9B311" transform="translate(49,42)"/>
<path d="M0 0 C2.31 0 4.62 0 7 0 C7 0.33 7 0.66 7 1 C5.35 1 3.7 1 2 1 C2 2.98 2 4.96 2 7 C2.66 7 3.32 7 4 7 C4 5.35 4 3.7 4 2 C4.99 2 5.98 2 7 2 C7 3.65 7 5.3 7 7 C7.99 7 8.98 7 10 7 C9.690625 7.598125 9.38125 8.19625 9.0625 8.8125 C7.89790296 11.08956772 7.89790296 11.08956772 7 14 C6.01 14 5.02 14 4 14 C4 12.02 4 10.04 4 8 C3.34 8 2.68 8 2 8 C2 10.31 2 12.62 2 15 C1.34 15 0.68 15 0 15 C0 10.05 0 5.1 0 0 Z " fill="#BC803F" transform="translate(48,53)"/>
<path d="M0 0 C0.66022156 0.0028299 1.32044312 0.00565979 2.00067139 0.00857544 C4.09959397 0.01972835 6.19808242 0.04482304 8.296875 0.0703125 C9.72395215 0.08034866 11.15103602 0.0894734 12.578125 0.09765625 C16.06784828 0.11965139 19.55731923 0.15414714 23.046875 0.1953125 C23.046875 1.5153125 23.046875 2.8353125 23.046875 4.1953125 C21.726875 4.1953125 20.406875 4.1953125 19.046875 4.1953125 C19.046875 3.5353125 19.046875 2.8753125 19.046875 2.1953125 C18.098125 2.3603125 17.149375 2.5253125 16.171875 2.6953125 C11.4704873 3.38073042 6.78684214 3.28114691 2.046875 3.1953125 C1.716875 3.8553125 1.386875 4.5153125 1.046875 5.1953125 C1.046875 3.8753125 1.046875 2.5553125 1.046875 1.1953125 C-4.893125 1.6903125 -4.893125 1.6903125 -10.953125 2.1953125 C-6.67148008 0.05449004 -4.69529104 -0.0397906 0 0 Z " fill="#0E467E" transform="translate(59.953125,49.8046875)"/>
<path d="M0 0 C3.96 0.33 7.92 0.66 12 1 C10.68 1.33 9.36 1.66 8 2 C8 3.32 8 4.64 8 6 C8.99 6.33 9.98 6.66 11 7 C7.86501708 8.85776765 5.62528568 9.20140476 2 9 C2.33 10.98 2.66 12.96 3 15 C2.34 15 1.68 15 1 15 C0.67 10.05 0.34 5.1 0 0 Z " fill="#AD9185" transform="translate(33,22)"/>
<path d="M0 0 C1.65 0.99 3.3 1.98 5 3 C5.99 2.34 6.98 1.68 8 1 C8 3.31 8 5.62 8 8 C8.66 8 9.32 8 10 8 C10 8.66 10 9.32 10 10 C8.02 10 6.04 10 4 10 C4.33 8.35 4.66 6.7 5 5 C4.01 5.495 4.01 5.495 3 6 C2.34786708 8.02463255 2.34786708 8.02463255 2 10 C-1.26954202 9.43628586 -2.82575883 8.50037734 -5 6 C-4.360625 5.38125 -3.72125 4.7625 -3.0625 4.125 C-0.96116416 2.17402388 -0.96116416 2.17402388 0 0 Z " fill="#444E3C" transform="translate(5,71)"/>
<path d="M0 0 C3.71080883 4.42442592 6.84577733 9.17403931 10 14 C9.01 14.495 9.01 14.495 8 15 C7.67 14.34 7.34 13.68 7 13 C3.97065509 12.34227572 3.97065509 12.34227572 1 12 C0.67 10.35 0.34 8.7 0 7 C-1.32 7 -2.64 7 -4 7 C-3.67 5.35 -3.34 3.7 -3 2 C-3.66 1.67 -4.32 1.34 -5 1 C-3.35 0.67 -1.7 0.34 0 0 Z " fill="#B81513" transform="translate(45,11)"/>
<path d="M0 0 C1.95918968 0.05991406 3.91751529 0.14867138 5.875 0.25 C6.96554688 0.29640625 8.05609375 0.3428125 9.1796875 0.390625 C12 1 12 1 13.3828125 3.046875 C13.58648437 3.69140625 13.79015625 4.3359375 14 5 C13.01 5 12.02 5 11 5 C11 5.66 11 6.32 11 7 C11.66 7.33 12.32 7.66 13 8 C11.75 9.5 11.75 9.5 10 11 C8.68 11 7.36 11 6 11 C6 9.02 6 7.04 6 5 C4.02 4.34 2.04 3.68 0 3 C0 2.01 0 1.02 0 0 Z " fill="#8C6921" transform="translate(50,69)"/>
<path d="M0 0 C1.98 0 3.96 0 6 0 C6 4.29 6 8.58 6 13 C5.34 13 4.68 13 4 13 C3.67 11.35 3.34 9.7 3 8 C2.01 8 1.02 8 0 8 C0 6.35 0 4.7 0 3 C-0.99 3 -1.98 3 -3 3 C-3 4.65 -3 6.3 -3 8 C-3.66 8 -4.32 8 -5 8 C-5 6.02 -5 4.04 -5 2 C-3.35 2 -1.7 2 0 2 C0 1.34 0 0.68 0 0 Z " fill="#E7E3E2" transform="translate(55,52)"/>
<path d="M0 0 C0.66 0 1.32 0 2 0 C2 1.98 2 3.96 2 6 C2.99 6 3.98 6 5 6 C5.33 4.02 5.66 2.04 6 0 C6.33 0 6.66 0 7 0 C7 1.98 7 3.96 7 6 C8.32 6 9.64 6 11 6 C10.67 6.99 10.34 7.98 10 9 C2.25 9.125 2.25 9.125 0 8 C0 8.66 0 9.32 0 10 C-0.66 10 -1.32 10 -2 10 C-2 9.34 -2 8.68 -2 8 C-2.66 8 -3.32 8 -4 8 C-4 5.69 -4 3.38 -4 1 C-3.34 1 -2.68 1 -2 1 C-2 2.98 -2 4.96 -2 7 C-1.34 7 -0.68 7 0 7 C0 4.69 0 2.38 0 0 Z " fill="#DAC7B7" transform="translate(50,61)"/>
<path d="M0 0 C-0.50603992 2.16874252 -0.99983813 3.99967627 -2 6 C-2.66 6 -3.32 6 -4 6 C-4 6.66 -4 7.32 -4 8 C-6.64 8 -9.28 8 -12 8 C-12.04254356 6.00045254 -12.04080783 3.99958364 -12 2 C-9.38538794 -0.61461206 -3.45000888 0 0 0 Z " fill="#89490B" transform="translate(31,42)"/>
<path d="M0 0 C1.8125 0.75 1.8125 0.75 2.8125 2.75 C1.1625 2.75 -0.4875 2.75 -2.1875 2.75 C-2.1875 3.41 -2.1875 4.07 -2.1875 4.75 C-1.5275 4.75 -0.8675 4.75 -0.1875 4.75 C-0.1875 6.4 -0.1875 8.05 -0.1875 9.75 C1.730625 9.688125 1.730625 9.688125 3.6875 9.625 C5.8671875 9.5546875 5.8671875 9.5546875 7.8125 9.75 C8.4725 10.41 9.1325 11.07 9.8125 11.75 C6.48715243 12.85844919 4.19067425 12.59454356 0.8125 11.75 C1.8025 14.06 2.7925 16.37 3.8125 18.75 C3.1525 18.75 2.4925 18.75 1.8125 18.75 C-1.13797835 14.13987758 -2.7372272 11.38470383 -2.1875 5.75 C-2.8475 5.75 -3.5075 5.75 -4.1875 5.75 C-4.1875 5.09 -4.1875 4.43 -4.1875 3.75 C-4.8475 3.75 -5.5075 3.75 -6.1875 3.75 C-6.1875 3.09 -6.1875 2.43 -6.1875 1.75 C-3.9127187 0.36888278 -2.68578639 -0.30694702 0 0 Z " fill="#3D0609" transform="translate(64.1875,13.25)"/>
<path d="M0 0 C2.97 0.495 2.97 0.495 6 1 C6.66 3.97 7.32 6.94 8 10 C6.35 10.33 4.7 10.66 3 11 C3 9.68 3 8.36 3 7 C1.35 7.33 -0.3 7.66 -2 8 C-2 4.23312136 -1.76462683 3.08809695 0 0 Z " fill="#76330D" transform="translate(26,17)"/>
<path d="M0 0 C0.99 0 1.98 0 3 0 C3 1.65 3 3.3 3 5 C4.65 5 6.3 5 8 5 C7.67 6.32 7.34 7.64 7 9 C1.91913204 9.84681133 -2.84828377 10.09038099 -8 10 C-8 9.67 -8 9.34 -8 9 C-6.35 9 -4.7 9 -3 9 C-3 7.35 -3 5.7 -3 4 C-2.01 4 -1.02 4 0 4 C0 2.68 0 1.36 0 0 Z " fill="#67371A" transform="translate(20,34)"/>
<path d="M0 0 C0.625 3.0625 0.625 3.0625 1 6 C0.34 5.67 -0.32 5.34 -1 5 C-1.66 6.32 -2.32 7.64 -3 9 C-3.99 9 -4.98 9 -6 9 C-6 8.01 -6 7.02 -6 6 C-7.65 6.33 -9.3 6.66 -11 7 C-11 6.34 -11 5.68 -11 5 C-10.34 5 -9.68 5 -9 5 C-9 4.34 -9 3.68 -9 3 C-8.01 3 -7.02 3 -6 3 C-6 2.34 -6 1.68 -6 1 C-7.98 1 -9.96 1 -12 1 C-12 0.67 -12 0.34 -12 0 C-10.37585622 -0.19477739 -8.75063577 -0.38059458 -7.125 -0.5625 C-6.22007813 -0.66691406 -5.31515625 -0.77132812 -4.3828125 -0.87890625 C-2 -1 -2 -1 0 0 Z " fill="#0C486D" transform="translate(86,69)"/>
<path d="M0 0 C0.99 0 1.98 0 3 0 C2.67 1.32 2.34 2.64 2 4 C1.01 4 0.02 4 -1 4 C-1 4.66 -1 5.32 -1 6 C-0.34 6.33 0.32 6.66 1 7 C-0.1875 9 -0.1875 9 -2 11 C-4.5 11.5 -4.5 11.5 -7 11 C-8.97610386 8.95575462 -10 7.8823175 -10 5 C-6.535 4.505 -6.535 4.505 -3 4 C-2.67 3.01 -2.34 2.02 -2 1 C-1.34 1 -0.68 1 0 1 C0 0.67 0 0.34 0 0 Z " fill="#4D0F1F" transform="translate(59,11)"/>
<path d="M0 0 C3.3 0 6.6 0 10 0 C10 2.64 10 5.28 10 8 C5.61999924 7.49942848 3.15830185 6.06806466 0 3 C0 2.01 0 1.02 0 0 Z " fill="#9292A7" transform="translate(63,9)"/>
<path d="M0 0 C3.77112931 0.13874615 7.54181445 0.28721093 11.3125 0.4375 C12.9202832 0.49647461 12.9202832 0.49647461 14.56054688 0.55664062 C16.10258789 0.61948242 16.10258789 0.61948242 17.67578125 0.68359375 C18.62364502 0.72025146 19.57150879 0.75690918 20.5480957 0.79467773 C23 1 23 1 26 2 C26 2.66 26 3.32 26 4 C18.58982977 4.11459026 11.35793733 3.91160286 4 3 C4 2.34 4 1.68 4 1 C2.68 0.67 1.36 0.34 0 0 Z " fill="#69737E" transform="translate(26,81)"/>
<path d="M0 0 C2.31 0 4.62 0 7 0 C7 3.96 7 7.92 7 12 C5.02 12.99 5.02 12.99 3 14 C3 13.34 3 12.68 3 12 C2.34 11.67 1.68 11.34 1 11 C2.32 10.67 3.64 10.34 5 10 C4.6390625 9.44570313 4.278125 8.89140625 3.90625 8.3203125 C3.4421875 7.59585938 2.978125 6.87140625 2.5 6.125 C2.0359375 5.40570312 1.571875 4.68640625 1.09375 3.9453125 C0 2 0 2 0 0 Z " fill="#5F320A" transform="translate(65,25)"/>
<path d="M0 0 C1.65 0 3.3 0 5 0 C4.67 2.97 4.34 5.94 4 9 C5.32 9.66 6.64 10.32 8 11 C5.36 11 2.72 11 0 11 C0 7.37 0 3.74 0 0 Z " fill="#75723B" transform="translate(66,62)"/>
<path d="M0 0 C1.32 1.32 2.64 2.64 4 4 C2.68 4.33 1.36 4.66 0 5 C0 6.32 0 7.64 0 9 C-0.99 9 -1.98 9 -3 9 C-3 10.65 -3 12.3 -3 14 C-4.65 14 -6.3 14 -8 14 C-7.04661031 12.03925516 -6.0871246 10.08147348 -5.125 8.125 C-4.59132813 7.03445312 -4.05765625 5.94390625 -3.5078125 4.8203125 C-2 2 -2 2 0 0 Z " fill="#CB0B0E" transform="translate(20,29)"/>
<path d="M0 0 C0.99 0 1.98 0 3 0 C3 4.62 3 9.24 3 14 C2.34 14 1.68 14 1 14 C1 14.66 1 15.32 1 16 C1.66 16 2.32 16 3 16 C3 16.66 3 17.32 3 18 C1.02 18 -0.96 18 -3 18 C-2.34 17.34 -1.68 16.68 -1 16 C-0.6936141 13.26565038 -0.4886664 10.61720179 -0.375 7.875 C-0.33632813 7.12089844 -0.29765625 6.36679687 -0.2578125 5.58984375 C-0.16348969 3.72696816 -0.08065338 1.86351745 0 0 Z " fill="#EAB917" transform="translate(19,53)"/>
<path d="M0 0 C0.99 0 1.98 0 3 0 C3 0.99 3 1.98 3 3 C3.99 3 4.98 3 6 3 C6 3.99 6 4.98 6 6 C3.35541621 7.32229189 1.32238699 7.09677194 -1.625 7.0625 C-2.62789063 7.05347656 -3.63078125 7.04445313 -4.6640625 7.03515625 C-5.43492188 7.02355469 -6.20578125 7.01195313 -7 7 C-7.33 6.34 -7.66 5.68 -8 5 C-4.535 4.505 -4.535 4.505 -1 4 C-0.67 2.68 -0.34 1.36 0 0 Z " fill="#062743" transform="translate(77,75)"/>
<path d="M0 0 C2.31 0 4.62 0 7 0 C7 0.66 7 1.32 7 2 C6.34 2 5.68 2 5 2 C5 2.99 5 3.98 5 5 C4.34 5 3.68 5 3 5 C3 5.99 3 6.98 3 8 C1.02 8 -0.96 8 -3 8 C-3 6.35 -3 4.7 -3 3 C-2.01 3 -1.02 3 0 3 C0 2.01 0 1.02 0 0 Z " fill="#7C4E1C" transform="translate(26,31)"/>
<path d="M0 0 C-0.99 0 -1.98 0 -3 0 C-3 0.66 -3 1.32 -3 2 C-3.66 2 -4.32 2 -5 2 C-5 1.34 -5 0.68 -5 0 C-8.63 0 -12.26 0 -16 0 C-16.33 0.66 -16.66 1.32 -17 2 C-17 1.34 -17 0.68 -17 0 C-20.3 0 -23.6 0 -27 0 C-27 0.66 -27 1.32 -27 2 C-27.66 2 -28.32 2 -29 2 C-29 1.01 -29 0.02 -29 -1 C-4.82374101 -3.21582734 -4.82374101 -3.21582734 0 0 Z " fill="#2B548C" transform="translate(48,51)"/>
<path d="M0 0 C0.66 0.66 1.32 1.32 2 2 C3.32 1.34 4.64 0.68 6 0 C7.51953125 1.20703125 7.51953125 1.20703125 9 3 C9.07421875 5.26171875 9.07421875 5.26171875 8.6875 7.6875 C8.50767578 8.89986328 8.50767578 8.89986328 8.32421875 10.13671875 C8.21722656 10.75160156 8.11023438 11.36648438 8 12 C7.34 12 6.68 12 6 12 C6 9.69 6 7.38 6 5 C2.7 5 -0.6 5 -4 5 C-2.68 3.35 -1.36 1.7 0 0 Z " fill="#294B57" transform="translate(67,4)"/>
<path d="M0 0 C2.31 0 4.62 0 7 0 C6.67 2.64 6.34 5.28 6 8 C4.02 8 2.04 8 0 8 C0 5.36 0 2.72 0 0 Z " fill="#BAC0B9" transform="translate(72,52)"/>
<path d="M0 0 C2.64 0 5.28 0 8 0 C8.33 0.66 8.66 1.32 9 2 C6.69 2 4.38 2 2 2 C2.01160156 2.7734375 2.02320313 3.546875 2.03515625 4.34375 C2.08709845 10.33936364 1.91184156 16.07302983 1 22 C0.67 22 0.34 22 0 22 C0 14.74 0 7.48 0 0 Z " fill="#82332C" transform="translate(35,53)"/>
<path d="M0 0 C3.63 0 7.26 0 11 0 C11 0.66 11 1.32 11 2 C8.36 2 5.72 2 3 2 C2.11360611 4.65918166 1.82010975 6.48064641 1.68359375 9.23046875 C1.64169922 10.03291016 1.59980469 10.83535156 1.55664062 11.66210938 C1.49766602 12.91217773 1.49766602 12.91217773 1.4375 14.1875 C1.39431641 15.03248047 1.35113281 15.87746094 1.30664062 16.74804688 C1.20068482 18.83184433 1.0998498 20.91590103 1 23 C0.67 23 0.34 23 0 23 C-0.19689005 19.72966072 -0.38089008 16.45872059 -0.5625 13.1875 C-0.61857422 12.25873047 -0.67464844 11.32996094 -0.73242188 10.37304688 C-0.78076172 9.48037109 -0.82910156 8.58769531 -0.87890625 7.66796875 C-0.9260376 6.84578857 -0.97316895 6.0236084 -1.02172852 5.17651367 C-1 3 -1 3 0 0 Z " fill="#957C7C" transform="translate(32,51)"/>
<path d="M0 0 C1.32 0 2.64 0 4 0 C3.125 3.875 3.125 3.875 2 5 C2.99 5 3.98 5 5 5 C5.33 4.34 5.66 3.68 6 3 C7.32 3.99 8.64 4.98 10 6 C9.67 6.66 9.34 7.32 9 8 C5.37 8 1.74 8 -2 8 C-2 7.34 -2 6.68 -2 6 C-1.34 5.67 -0.68 5.34 0 5 C0 3.35 0 1.7 0 0 Z " fill="#F8E7B5" transform="translate(35,31)"/>
<path d="M0 0 C4.66666667 0.66666667 9.33333333 1.33333333 14 2 C14.33 2.99 14.66 3.98 15 5 C14.01 5.33 13.02 5.66 12 6 C11.34 6.66 10.68 7.32 10 8 C7.36 7.01 4.72 6.02 2 5 C3.32 4.34 4.64 3.68 6 3 C4.02 2.34 2.04 1.68 0 1 C0 0.67 0 0.34 0 0 Z " fill="#521729" transform="translate(45,8)"/>
<path d="M0 0 C2.97 0.495 2.97 0.495 6 1 C6.33 2.32 6.66 3.64 7 5 C5.02 5 3.04 5 1 5 C1 6.98 1 8.96 1 11 C0.01 10.67 -0.98 10.34 -2 10 C-2 8.35 -2 6.7 -2 5 C-1.34 5 -0.68 5 0 5 C0 3.35 0 1.7 0 0 Z " fill="#CAA662" transform="translate(45,26)"/>
<path d="M0 0 C1.32 0 2.64 0 4 0 C4 1.65 4 3.3 4 5 C9.94 5.99 9.94 5.99 16 7 C16 7.33 16 7.66 16 8 C11.56590901 9.10852275 7.54531422 9.21993456 3 9 C2.01 8.34 1.02 7.68 0 7 C0.66 6.67 1.32 6.34 2 6 C2 4.68 2 3.36 2 2 C1.34 1.34 0.68 0.68 0 0 Z " fill="#68727C" transform="translate(61,75)"/>
<path d="M0 0 C2.96404505 2.80804268 5.44499019 5.18315774 7 9 C2.23727328 10.02977875 -0.65885463 10.39511469 -5 8 C-3.02 8 -1.04 8 1 8 C0.67 7.34 0.34 6.68 0 6 C-0.039992 4.00039988 -0.04346799 1.99952758 0 0 Z " fill="#432137" transform="translate(79,31)"/>
<path d="M0 0 C1.32 0 2.64 0 4 0 C4 1.32 4 2.64 4 4 C4.99 4.33 5.98 4.66 7 5 C6.01 5.495 6.01 5.495 5 6 C3.86649466 8.01669827 3.86649466 8.01669827 3 10 C2.01 10 1.02 10 0 10 C0 6.7 0 3.4 0 0 Z " fill="#D38852" transform="translate(37,55)"/>
<path d="M0 0 C0.86512207 0.15847412 1.73024414 0.31694824 2.62158203 0.48022461 C5.79790152 0.9689068 8.84565939 1.20061658 12.0546875 1.31640625 C13.16328125 1.35830078 14.271875 1.40019531 15.4140625 1.44335938 C16.55617188 1.48267578 17.69828125 1.52199219 18.875 1.5625 C20.0403125 1.60568359 21.205625 1.64886719 22.40625 1.69335938 C25.27072625 1.79901629 28.13528321 1.90111799 31 2 C31 2.33 31 2.66 31 3 C20.44 3 9.88 3 -1 3 C-0.67 2.01 -0.34 1.02 0 0 Z " fill="#4A75A6" transform="translate(28,39)"/>
<path d="M0 0 C0.33 0 0.66 0 1 0 C1 1.98 1 3.96 1 6 C0.01 5.67 -0.98 5.34 -2 5 C-2 6.98 -2 8.96 -2 11 C-1.34 11 -0.68 11 0 11 C0.33 10.34 0.66 9.68 1 9 C1 10.32 1 11.64 1 13 C-2.63 13 -6.26 13 -10 13 C-7 11 -7 11 -3 11 C-3 9.02 -3 7.04 -3 5 C-3.99 4.67 -4.98 4.34 -6 4 C-5.01 4 -4.02 4 -3 4 C-2.67 3.01 -2.34 2.02 -2 1 C-2 1.99 -2 2.98 -2 4 C-1.34 4 -0.68 4 0 4 C0 2.68 0 1.36 0 0 Z " fill="#FDFAEE" transform="translate(30,55)"/>
<path d="M0 0 C-1 2.5 -1 2.5 -3 5 C-5.79374292 5.46837899 -8.14221036 5.23424505 -11 5 C-11 3.68 -11 2.36 -11 1 C-7.27569643 0.30710631 -3.78916254 -0.11144596 0 0 Z " fill="#B32629" transform="translate(75,18)"/>
<path d="M0 0 C0.90105469 0.00902344 1.80210938 0.01804687 2.73046875 0.02734375 C3.41753906 0.03894531 4.10460938 0.05054687 4.8125 0.0625 C4.8125 1.0525 4.8125 2.0425 4.8125 3.0625 C-1.1275 3.5575 -1.1275 3.5575 -7.1875 4.0625 C-7.5175 3.0725 -7.8475 2.0825 -8.1875 1.0625 C-5.17259443 0.05753148 -3.14568308 -0.04085303 0 0 Z " fill="#273A63" transform="translate(40.1875,17.9375)"/>
<path d="M0 0 C5.17469679 1.2936742 5.91755537 2.80445036 9 7 C9 7.66 9 8.32 9 9 C7.02 9.33 5.04 9.66 3 10 C2.01 6.7 1.02 3.4 0 0 Z " fill="#CE4F54" transform="translate(36,3)"/>
<path d="M0 0 C0.33 0 0.66 0 1 0 C1.125 5.75 1.125 5.75 0 8 C3.63 8 7.26 8 11 8 C11 7.34 11 6.68 11 6 C11.66 6.33 12.32 6.66 13 7 C12.67 7.66 12.34 8.32 12 9 C9.89590361 9.02701408 7.79170822 9.04640223 5.6875 9.0625 C4.51574219 9.07410156 3.34398437 9.08570313 2.13671875 9.09765625 C-1 9 -1 9 -4 8 C-4 7.01 -4 6.02 -4 5 C-3.34 5 -2.68 5 -2 5 C-2 4.01 -2 3.02 -2 2 C-1.34 2 -0.68 2 0 2 C0 1.34 0 0.68 0 0 Z " fill="#A2893C" transform="translate(33,31)"/>
<path d="M0 0 C0.99 0.99 1.98 1.98 3 3 C3.33 2.34 3.66 1.68 4 1 C4.66 1 5.32 1 6 1 C6 2.65 6 4.3 6 6 C5.01 6 4.02 6 3 6 C3 6.99 3 7.98 3 9 C1.68 9 0.36 9 -1 9 C-1.33 7.35 -1.66 5.7 -2 4 C-1.34 4 -0.68 4 0 4 C0 2.68 0 1.36 0 0 Z " fill="#1B331C" transform="translate(58,76)"/>
<path d="M0 0 C0.66 0 1.32 0 2 0 C2.33 0.66 2.66 1.32 3 2 C3.99 2.33 4.98 2.66 6 3 C5.34 4.98 4.68 6.96 4 9 C3.01 9 2.02 9 1 9 C-1 6 -1 6 -0.625 2.8125 C-0.41875 1.884375 -0.2125 0.95625 0 0 Z " fill="#2F5657" transform="translate(88,65)"/>
<path d="M0 0 C3.63 0 7.26 0 11 0 C11 0.66 11 1.32 11 2 C11.99 1.67 12.98 1.34 14 1 C14 1.66 14 2.32 14 3 C8.39 3 2.78 3 -3 3 C-2.01 2.67 -1.02 2.34 0 2 C0 1.34 0 0.68 0 0 Z " fill="#797B5D" transform="translate(69,47)"/>
<path d="M0 0 C1.5625 1.1875 1.5625 1.1875 3 3 C2.71263151 5.87368492 1.91403285 8.25790144 1 11 C0.34 11 -0.32 11 -1 11 C-2.1875 7.75 -2.1875 7.75 -3 4 C-1.625 1.5625 -1.625 1.5625 0 0 Z " fill="#8F9B68" transform="translate(12,52)"/>
<path d="M0 0 C2.64 0 5.28 0 8 0 C8 1.65 8 3.3 8 5 C6.02 5.33 4.04 5.66 2 6 C1.34 4.02 0.68 2.04 0 0 Z " fill="#E0AD18" transform="translate(49,42)"/>
<path d="M0 0 C1.32 0 2.64 0 4 0 C4 2.97 4 5.94 4 9 C2.68 9 1.36 9 0 9 C0 6.03 0 3.06 0 0 Z " fill="#E8DAC4" transform="translate(73,27)"/>
<path d="M0 0 C3.3 0 6.6 0 10 0 C9.01 0.495 9.01 0.495 8 1 C8 2.65 8 4.3 8 6 C7.01 6 6.02 6 5 6 C5 4.35 5 2.7 5 1 C4.01 1 3.02 1 2 1 C2 2.65 2 4.3 2 6 C1.34 6 0.68 6 0 6 C0 4.02 0 2.04 0 0 Z " fill="#D6B385" transform="translate(50,54)"/>
<path d="M0 0 C2.97 0 5.94 0 9 0 C8.34 1.32 7.68 2.64 7 4 C4.36 4 1.72 4 -1 4 C-0.67 2.68 -0.34 1.36 0 0 Z " fill="#BABEE9" transform="translate(38,45)"/>
<path d="M0 0 C2.3431213 0.25561323 4.67843403 0.59270772 7 1 C7.33 1.66 7.66 2.32 8 3 C7.01 3.33 6.02 3.66 5 4 C6.98 4.66 8.96 5.32 11 6 C10.67 6.66 10.34 7.32 10 8 C6.6875 7.375 6.6875 7.375 3 6 C1.0625 2.875 1.0625 2.875 0 0 Z " fill="#3F0615" transform="translate(44,9)"/>
<path d="M0 0 C1.32 1.65 2.64 3.3 4 5 C0.91190305 6.76462683 -0.23312136 7 -4 7 C-3.67 5.35 -3.34 3.7 -3 2 C-3.66 1.67 -4.32 1.34 -5 1 C-3.35 0.67 -1.7 0.34 0 0 Z " fill="#BF312D" transform="translate(45,11)"/>
<path d="M0 0 C0.33 0 0.66 0 1 0 C1 2.64 1 5.28 1 8 C1.66 8 2.32 8 3 8 C3 8.66 3 9.32 3 10 C3.99 10.33 4.98 10.66 6 11 C4.625 12.5 4.625 12.5 3 14 C2.34 14 1.68 14 1 14 C0.67 14.99 0.34 15.98 0 17 C0 11.39 0 5.78 0 0 Z " fill="#8D7B70" transform="translate(45,61)"/>
<path d="M0 0 C2 2 2 2 2.1953125 4.1640625 C2.17210937 4.97617188 2.14890625 5.78828125 2.125 6.625 C2.10695313 7.44226563 2.08890625 8.25953125 2.0703125 9.1015625 C2.03550781 10.04128906 2.03550781 10.04128906 2 11 C0.68 11.33 -0.64 11.66 -2 12 C-1.85904936 10.3745692 -1.71207913 8.74965949 -1.5625 7.125 C-1.48128906 6.22007813 -1.40007813 5.31515625 -1.31640625 4.3828125 C-1 2 -1 2 0 0 Z " fill="#5C0A0A" transform="translate(37,65)"/>
<path d="M0 0 C1.32 0.33 2.64 0.66 4 1 C4 1.66 4 2.32 4 3 C4.99 3 5.98 3 7 3 C8.6875 5 8.6875 5 10 7 C9.67 7.66 9.34 8.32 9 9 C6.5 7.625 6.5 7.625 4 6 C4 5.34 4 4.68 4 4 C2.68 4 1.36 4 0 4 C0 2.68 0 1.36 0 0 Z " fill="#B6080A" transform="translate(49,23)"/>
<path d="M0 0 C2.97 0.495 2.97 0.495 6 1 C5.01 1.33 4.02 1.66 3 2 C3.33 3.65 3.66 5.3 4 7 C2.02 7.33 0.04 7.66 -2 8 C-2 4.23312136 -1.76462683 3.08809695 0 0 Z " fill="#BA342E" transform="translate(26,17)"/>
<path d="M0 0 C0.99 0 1.98 0 3 0 C3 1.65 3 3.3 3 5 C2.01 5 1.02 5 0 5 C0 6.65 0 8.3 0 10 C-0.99 10 -1.98 10 -3 10 C-3 8.02 -3 6.04 -3 4 C-2.01 4 -1.02 4 0 4 C0 2.68 0 1.36 0 0 Z " fill="#4D0707" transform="translate(35,9)"/>
<path d="M0 0 C0.33 0 0.66 0 1 0 C1.33 2.31 1.66 4.62 2 7 C4.31 7.66 6.62 8.32 9 9 C9 9.66 9 10.32 9 11 C1.25 11.125 1.25 11.125 -1 10 C-0.67 6.7 -0.34 3.4 0 0 Z " fill="#635518" transform="translate(71,61)"/>
<path d="M0 0 C0.99 0.33 1.98 0.66 3 1 C2.67 1.99 2.34 2.98 2 4 C3.32 4.33 4.64 4.66 6 5 C-6.48519362 8.44419134 -6.48519362 8.44419134 -13 8 C-13 7.67 -13 7.34 -13 7 C-3.58997722 4.70387244 -3.58997722 4.70387244 1 5 C0.67 3.35 0.34 1.7 0 0 Z " fill="#264C56" transform="translate(85,76)"/>
<path d="M0 0 C0.625 3.0625 0.625 3.0625 1 6 C-1.31 5.01 -3.62 4.02 -6 3 C-6 2.34 -6 1.68 -6 1 C-7.98 1 -9.96 1 -12 1 C-12 0.67 -12 0.34 -12 0 C-10.37585622 -0.19477739 -8.75063577 -0.38059458 -7.125 -0.5625 C-6.22007813 -0.66691406 -5.31515625 -0.77132812 -4.3828125 -0.87890625 C-2 -1 -2 -1 0 0 Z " fill="#476B6E" transform="translate(86,69)"/>
<path d="M0 0 C2.64 0 5.28 0 8 0 C7.67 1.32 7.34 2.64 7 4 C5.02 4.33 3.04 4.66 1 5 C0.67 3.35 0.34 1.7 0 0 Z " fill="#0E456A" transform="translate(65,73)"/>
<path d="M0 0 C0.33 0 0.66 0 1 0 C1 1.98 1 3.96 1 6 C1.99 6 2.98 6 4 6 C4 7.98 4 9.96 4 12 C2.68 12 1.36 12 0 12 C0 8.04 0 4.08 0 0 Z " fill="#D9C7A3" transform="translate(23,54)"/>
<path d="M0 0 C3.36704285 -0.2295711 5.41370268 -0.33943529 8.375 1.375 C8.91125 1.91125 9.4475 2.4475 10 3 C10 3.66 10 4.32 10 5 C7.69 5.33 5.38 5.66 3 6 C3 5.34 3 4.68 3 4 C3.99 4 4.98 4 6 4 C6 3.34 6 2.68 6 2 C4.02 2 2.04 2 0 2 C0 1.34 0 0.68 0 0 Z " fill="#F1CC7D" transform="translate(39,21)"/>
<path d="M0 0 C1.32 0.33 2.64 0.66 4 1 C3.01 1.495 3.01 1.495 2 2 C2.33 3.32 2.66 4.64 3 6 C2.01 6 1.02 6 0 6 C0 7.65 0 9.3 0 11 C-0.99 10.67 -1.98 10.34 -3 10 C-2.05066101 6.64566891 -1.10251165 3.30753495 0 0 Z " fill="#C9766D" transform="translate(35,2)"/>
<path d="M0 0 C1.65 0 3.3 0 5 0 C5 0.66 5 1.32 5 2 C5.66 2.33 6.32 2.66 7 3 C5.75 4.5 5.75 4.5 4 6 C2.68 6 1.36 6 0 6 C0 4.02 0 2.04 0 0 Z " fill="#938754" transform="translate(56,74)"/>
<path d="M0 0 C-1.32 0.33 -2.64 0.66 -4 1 C-4 2.32 -4 3.64 -4 5 C-3.01 5.33 -2.02 5.66 -1 6 C-4.13498292 7.85776765 -6.37471432 8.20140476 -10 8 C-8.68 7.67 -7.36 7.34 -6 7 C-5.67 5.68 -5.34 4.36 -5 3 C-6.65 2.67 -8.3 2.34 -10 2 C-6.5980513 -0.09350689 -3.94727588 -0.17942163 0 0 Z " fill="#B48E6A" transform="translate(45,23)"/>
<path d="M0 0 C1.51400391 0.01740234 1.51400391 0.01740234 3.05859375 0.03515625 C4.07050781 0.04417969 5.08242187 0.05320312 6.125 0.0625 C7.29869141 0.07990234 7.29869141 0.07990234 8.49609375 0.09765625 C4.48612516 2.17177794 1.34214398 3.22585988 -3.19140625 3.16015625 C-4.40376953 3.14662109 -4.40376953 3.14662109 -5.640625 3.1328125 C-6.56294922 3.11541016 -6.56294922 3.11541016 -7.50390625 3.09765625 C-6.86453125 2.78828125 -6.22515625 2.47890625 -5.56640625 2.16015625 C-1.48563778 0.05794219 -1.48563778 0.05794219 0 0 Z " fill="#053A45" transform="translate(67.50390625,83.90234375)"/>
<path d="M0 0 C0.66 0 1.32 0 2 0 C1.125 4.875 1.125 4.875 0 6 C-2.67058851 6.14115161 -5.32432238 6.04247107 -8 6 C-8 5.01 -8 4.02 -8 3 C-5.61435923 3.57584432 -3.33317216 4.22227595 -1 5 C-0.67 3.35 -0.34 1.7 0 0 Z " fill="#558298" transform="translate(8,76)"/>
<path d="M0 0 C0 0.33 0 0.66 0 1 C-1.79090253 1.19466332 -3.58276505 1.38051213 -5.375 1.5625 C-6.87160156 1.71912109 -6.87160156 1.71912109 -8.3984375 1.87890625 C-11 2 -11 2 -13 1 C-13 0.34 -13 -0.32 -13 -1 C-8.15507803 -2.51403812 -4.7408989 -1.36602172 0 0 Z " fill="#711317" transform="translate(75,17)"/>
<path d="M0 0 C0.33 0 0.66 0 1 0 C1 2.31 1 4.62 1 7 C1.66 7 2.32 7 3 7 C3 7.66 3 8.32 3 9 C1.02 9 -0.96 9 -3 9 C-2.01 6.03 -1.02 3.06 0 0 Z " fill="#070B0A" transform="translate(12,72)"/>
<path d="M0 0 C1.32 0 2.64 0 4 0 C3.42655063 2.86724686 3.1385485 3.8614515 1 6 C-0.32 6 -1.64 6 -3 6 C-2.67 4.68 -2.34 3.36 -2 2 C-1.34 2 -0.68 2 0 2 C0 1.34 0 0.68 0 0 Z " fill="#E2B533" transform="translate(27,42)"/>
<path d="M0 0 C0 3.96 0 7.92 0 12 C-1.98 12.99 -1.98 12.99 -4 14 C-4 13.34 -4 12.68 -4 12 C-4.66 11.67 -5.32 11.34 -6 11 C-4.35 11 -2.7 11 -1 11 C-1 8.36 -1 5.72 -1 3 C-1.66 3 -2.32 3 -3 3 C-3 2.34 -3 1.68 -3 1 C-1 0 -1 0 0 0 Z " fill="#71482F" transform="translate(72,25)"/>
<path d="M0 0 C3.3 0.99 6.6 1.98 10 3 C8.02 3.99 8.02 3.99 6 5 C6 5.66 6 6.32 6 7 C2.58841744 5.86280581 1.88145399 4.95657056 0 2 C0 1.34 0 0.68 0 0 Z " fill="#461D18" transform="translate(39,2)"/>
<path d="M0 0 C9.41002278 -0.18451025 9.41002278 -0.18451025 14 1 C10.5980513 3.09350689 7.94727588 3.17942163 4 3 C4 2.34 4 1.68 4 1 C2.68 0.67 1.36 0.34 0 0 Z " fill="#7A8191" transform="translate(26,81)"/>
<path d="M0 0 C1.32 0 2.64 0 4 0 C4 1.98 4 3.96 4 6 C3.01 5.67 2.02 5.34 1 5 C0.34 5.66 -0.32 6.32 -1 7 C-1.04254356 5.00045254 -1.04080783 2.99958364 -1 1 C-0.67 0.67 -0.34 0.34 0 0 Z " fill="#456A34" transform="translate(14,72)"/>
<path d="M0 0 C3.3 0 6.6 0 10 0 C10 0.66 10 1.32 10 2 C7.69 2.33 5.38 2.66 3 3 C3 4.98 3 6.96 3 9 C2.67 9 2.34 9 2 9 C2 6.36 2 3.72 2 1 C1.34 0.67 0.68 0.34 0 0 Z " fill="#9B8D86" transform="translate(17,71)"/>
<path d="M0 0 C2.64 0 5.28 0 8 0 C8 1.65 8 3.3 8 5 C7.01 4.67 6.02 4.34 5 4 C5 3.34 5 2.68 5 2 C3.68 2.33 2.36 2.66 1 3 C0.67 2.01 0.34 1.02 0 0 Z " fill="#8E6115" transform="translate(22,69)"/>
<path d="M0 0 C0.99 0.33 1.98 0.66 3 1 C2.54177532 4.46941546 2.10868317 7.67395049 1 11 C0.01 8.03 -0.98 5.06 -2 2 C-1.34 2 -0.68 2 0 2 C0 1.34 0 0.68 0 0 Z " fill="#9F989D" transform="translate(45,51)"/>
<path d="M0 0 C3.3 0.66 6.6 1.32 10 2 C10 2.33 10 2.66 10 3 C6.37 3.33 2.74 3.66 -1 4 C-0.67 2.68 -0.34 1.36 0 0 Z " fill="#4A6278" transform="translate(67,80)"/>
<path d="M0 0 C0.66 1.32 1.32 2.64 2 4 C1.01 4 0.02 4 -1 4 C-1 5.65 -1 7.3 -1 9 C-2.32 9.33 -3.64 9.66 -5 10 C-3.35 6.7 -1.7 3.4 0 0 Z " fill="#AB2511" transform="translate(17,33)"/>
<path d="M0 0 C2.64 0 5.28 0 8 0 C7.67 0.99 7.34 1.98 7 3 C4.69 3 2.38 3 0 3 C0 2.01 0 1.02 0 0 Z " fill="#050F4A" transform="translate(20,39)"/>
<path d="M0 0 C0.99 0 1.98 0 3 0 C3 1.65 3 3.3 3 5 C1.35 5 -0.3 5 -2 5 C-2.33 6.32 -2.66 7.64 -3 9 C-3 7.35 -3 5.7 -3 4 C-2.01 4 -1.02 4 0 4 C0 2.68 0 1.36 0 0 Z " fill="#720206" transform="translate(20,34)"/>
<path d="M0 0 C0.99 0 1.98 0 3 0 C2.67 1.32 2.34 2.64 2 4 C1.01 4 0.02 4 -1 4 C-1.33 4.99 -1.66 5.98 -2 7 C-2.66 7 -3.32 7 -4 7 C-3.34 5.02 -2.68 3.04 -2 1 C-1.34 1 -0.68 1 0 1 C0 0.67 0 0.34 0 0 Z " fill="#754254" transform="translate(59,11)"/>
<path d="M0 0 C0.33 0.99 0.66 1.98 1 3 C2.32 3 3.64 3 5 3 C5 2.34 5 1.68 5 1 C6.32 1.33 7.64 1.66 9 2 C8.67 2.66 8.34 3.32 8 4 C5.67843403 4.40729228 3.3431213 4.74438677 1 5 C0.67 3.35 0.34 1.7 0 0 Z " fill="#425B67" transform="translate(56,82)"/>
<path d="M0 0 C2.64 0.33 5.28 0.66 8 1 C8 1.66 8 2.32 8 3 C5.36 3 2.72 3 0 3 C0 2.01 0 1.02 0 0 Z " fill="#8E141E" transform="translate(53,47)"/>
<path d="M0 0 C2.475 0.99 2.475 0.99 5 2 C5 3.32 5 4.64 5 6 C5.66 6.33 6.32 6.66 7 7 C5.02 7 3.04 7 1 7 C1.33 5.68 1.66 4.36 2 3 C1.34 2.67 0.68 2.34 0 2 C0 1.34 0 0.68 0 0 Z " fill="#E6B03C" transform="translate(51,31)"/>
<path d="M0 0 C0 0.99 0 1.98 0 3 C-2.64 3 -5.28 3 -8 3 C-8 2.34 -8 1.68 -8 1 C-5.07175348 0.02391783 -3.04386724 -0.08226668 0 0 Z " fill="#081349" transform="translate(34,28)"/>
<path d="M0 0 C2.475 0.495 2.475 0.495 5 1 C4.67 2.32 4.34 3.64 4 5 C2.68 5 1.36 5 0 5 C0 3.35 0 1.7 0 0 Z " fill="#F8E58F" transform="translate(35,25)"/>
<path d="M0 0 C0.33 0 0.66 0 1 0 C1 1.98 1 3.96 1 6 C-0.65 6.33 -2.3 6.66 -4 7 C-4 6.34 -4 5.68 -4 5 C-3.34 5 -2.68 5 -2 5 C-2 4.01 -2 3.02 -2 2 C-1.34 2 -0.68 2 0 2 C0 1.34 0 0.68 0 0 Z " fill="#DBA614" transform="translate(33,31)"/>
<path d="M0 0 C0.99 0.33 1.98 0.66 3 1 C2.34 1 1.68 1 1 1 C1 1.99 1 2.98 1 4 C0.34 4 -0.32 4 -1 4 C-1 4.66 -1 5.32 -1 6 C-1.99 5.67 -2.98 5.34 -4 5 C-2.25 1.125 -2.25 1.125 0 0 Z " fill="#875502" transform="translate(30,32)"/>
<path d="M0 0 C1.98 0 3.96 0 6 0 C5.34 1.32 4.68 2.64 4 4 C2.68 4 1.36 4 0 4 C0 2.68 0 1.36 0 0 Z " fill="#93484E" transform="translate(64,19)"/>
<path d="M0 0 C0.66 0 1.32 0 2 0 C2 2.97 2 5.94 2 9 C1.01 8.01 0.02 7.02 -1 6 C-0.6875 2.8125 -0.6875 2.8125 0 0 Z " fill="#34584B" transform="translate(88,65)"/>
<path d="M0 0 C2.375 0.25 2.375 0.25 5 1 C6.3125 3.0625 6.3125 3.0625 7 5 C4.625 4.75 4.625 4.75 2 4 C0.6875 1.9375 0.6875 1.9375 0 0 Z " fill="#57142C" transform="translate(63,36)"/>
<path d="M0 0 C0.99 0 1.98 0 3 0 C3 1.65 3 3.3 3 5 C1.68 5 0.36 5 -1 5 C-0.67 3.35 -0.34 1.7 0 0 Z " fill="#031E33" transform="translate(77,75)"/>
<path d="M0 0 C0.33 0.66 0.66 1.32 1 2 C1.66 2.33 2.32 2.66 3 3 C0.09399739 4.25664978 -1.79604584 5 -5 5 C-5 4.01 -5 3.02 -5 2 C-3.35 1.34 -1.7 0.68 0 0 Z " fill="#34150B" transform="translate(28,75)"/>
<path d="M0 0 C0.66 0.33 1.32 0.66 2 1 C2 2.65 2 4.3 2 6 C1.01 6.495 1.01 6.495 0 7 C-0.66 6.67 -1.32 6.34 -2 6 C-2 5.01 -2 4.02 -2 3 C-1.34 3 -0.68 3 0 3 C0 2.01 0 1.02 0 0 Z " fill="#50181A" transform="translate(48,72)"/>
<path d="M0 0 C0.33 0 0.66 0 1 0 C1.66 3.3 2.32 6.6 3 10 C1.68 9.67 0.36 9.34 -1 9 C-0.67 6.03 -0.34 3.06 0 0 Z " fill="#AC1313" transform="translate(39,67)"/>
<path d="M0 0 C2.31 0.33 4.62 0.66 7 1 C7 1.66 7 2.32 7 3 C4.69 3 2.38 3 0 3 C0 2.01 0 1.02 0 0 Z " fill="#7094B4" transform="translate(73,36)"/>
<path d="M0 0 C0.99 0.33 1.98 0.66 3 1 C1.8125 3 1.8125 3 0 5 C-2.6875 5.25 -2.6875 5.25 -5 5 C-4.34 4.01 -3.68 3.02 -3 2 C-2.01 2 -1.02 2 0 2 C0 1.34 0 0.68 0 0 Z " fill="#602639" transform="translate(57,17)"/>
<path d="M0 0 C1.65 0 3.3 0 5 0 C3.1875 2 3.1875 2 1 4 C0.01 4 -0.98 4 -2 4 C-2 3.34 -2 2.68 -2 2 C-1.34 2 -0.68 2 0 2 C0 1.34 0 0.68 0 0 Z " fill="#081F22" transform="translate(42,78)"/>
<path d="M0 0 C0.33 0 0.66 0 1 0 C1 1.65 1 3.3 1 5 C1.66 5 2.32 5 3 5 C3 6.65 3 8.3 3 10 C2.34 10 1.68 10 1 10 C-0.1577506 6.52674819 -0.06866652 3.63932552 0 0 Z " fill="#F0DAA6" transform="translate(58,55)"/>
<path d="M0 0 C0.66 0 1.32 0 2 0 C2 1.32 2 2.64 2 4 C0.68 4 -0.64 4 -2 4 C-2 3.34 -2 2.68 -2 2 C-3.32 1.67 -4.64 1.34 -6 1 C-4.7934375 1.0309375 -4.7934375 1.0309375 -3.5625 1.0625 C-1.06645115 1.29633621 -1.06645115 1.29633621 0 0 Z " fill="#DEB236" transform="translate(63,46)"/>
<path d="M0 0 C1.32 1.32 2.64 2.64 4 4 C0.25 5.125 0.25 5.125 -2 4 C-1.34 2.68 -0.68 1.36 0 0 Z " fill="#B71611" transform="translate(20,29)"/>
<path d="M0 0 C1.65 0 3.3 0 5 0 C5.33 0.99 5.66 1.98 6 3 C4.02 3 2.04 3 0 3 C0 2.01 0 1.02 0 0 Z " fill="#17579B" transform="translate(46,27)"/>
<path d="M0 0 C2.0625 0.25 2.0625 0.25 4 1 C4.33 1.66 4.66 2.32 5 3 C3.35 3 1.7 3 0 3 C-0.33 3.66 -0.66 4.32 -1 5 C-1.33 4.01 -1.66 3.02 -2 2 C-1.34 1.34 -0.68 0.68 0 0 Z " fill="#31040C" transform="translate(62,13)"/>
<path d="M0 0 C0.33 0 0.66 0 1 0 C1 2.31 1 4.62 1 7 C0.67 7 0.34 7 0 7 C0 4.69 0 2.38 0 0 Z " fill="#027E19" transform="translate(11,65)"/>
<path d="" fill="#027813" transform="translate(0,0)"/>
</svg>
